<svg xmlns="http://www.w3.org/2000/svg" width="253" height="253" viewBox="0 0 253.4 253.4"><style>.bottle-a{fill:#DDBB72;}.bottle-b{fill:#98DEC1;}.bottle-c{fill:#78A56D;}.bottle-d{fill:#FFF;opacity:0.2;}</style><circle cx="126.7" cy="126.7" r="126.7" fill="#F4F2DC"/><path d="M155.7 166.5v51.7c0 7.4-6 13.4-13.3 13.4h-29c-7.5 0-13.7-6-13.7-13.4v-51.7h2.6c0 23.5 12 44.2 25.6 44.2 13.6 0 25.6-20.6 25.6-44.2H155.7z" class="bottle-a"/><path d="M155.7 114.8v51.7h-2.2c0-23.5-11.9-44.2-25.5-44.2 -13.6 0-25.6 20.6-25.6 44.2h-2.6v-51.7c0-5.6 2-14.1 11.7-22.4l0.1-0.1 4.4-57.1c0.1-1.8 4.2-3.3 9.9-3.5h3.9c4.4 0.2 7.9 1.1 9.2 2.4 0.3 0.4 0.5 0.7 0.5 1.2l4.8 56.9 0 0.2 0.2 0.1C152.1 98.4 155.7 108 155.7 114.8z" class="bottle-a"/><path d="M127.9 123.5c14 0 24.4 22.7 24.4 43 0 20.3-10.4 43-24.4 43 -14 0-24.4-22.7-24.4-43C103.4 146.2 113.9 123.5 127.9 123.5z" class="bottle-b"/><path d="M137.7 25.7c1 0 1.8 0.8 1.8 1.8 0 1.4-1.1 3.2-1.8 3.2h-8.2c-0.6 0-1.3 0-1.9 0 -0.6 0-1.3 0-1.9 0.1h-8.9c-0.7 0-1.8-1.7-1.8-3.2 0-1 0.8-1.8 1.8-1.8H137.7z" class="bottle-b"/><path d="M129.6 31.7h-3.9c0.6 0 1.3 0 2 0C128.3 31.6 128.9 31.6 129.6 31.7z" class="bottle-b"/><path d="M129.6 30.7h-3.8c0.6 0 1.3 0 1.9 0C128.3 30.6 128.9 30.6 129.6 30.7z" class="bottle-b"/><path d="M129.6 30.7c2.3 0.1 4.7 0.4 6.6 1h-6.6c-0.6 0-1.2 0-1.9 0 -0.7 0-1.3 0-1.9 0.1h-6.6c1.9-0.6 4.2-0.9 6.7-1H129.6z" class="bottle-b"/><path d="M139.6 27.5c0-1-0.8-1.8-1.8-1.8h-20.9c-1 0-1.8 0.8-1.8 1.8 0 1.4 1.1 3.2 1.8 3.2h8.9c-2.4 0.1-4.8 0.4-6.7 1h-2.3c-1.8 0-2.8-2.9-2.8-4.2 0-1.6 1.3-2.8 2.8-2.8h20.9c1.5 0 2.8 1.3 2.8 2.8 0 1.2-1 4.2-2.8 4.2h-1.6c-1.9-0.6-4.3-0.9-6.6-1h8.2C138.5 30.7 139.6 28.9 139.6 27.5z" class="bottle-b"/><path d="M152.3 166.5c0-20.3-10.4-43-24.4-43 -14 0-24.4 22.7-24.4 43 0 20.3 10.4 43 24.4 43C141.8 209.5 152.3 186.8 152.3 166.5zM127.9 122.4c13.6 0 25.6 20.6 25.6 44.2 0 23.5-11.9 44.2-25.5 44.2 -13.6 0-25.6-20.6-25.6-44.2C102.3 143 114.2 122.4 127.9 122.4z" class="bottle-a"/><path d="M156.7 218.2c0 8-6.4 14.4-14.3 14.4h-29c-8.1 0-14.7-6.5-14.7-14.4V114.8c0-5.8 2.1-14.5 11.8-23l4.3-56.6c0-1.6 1.7-2.8 4.2-3.5h6.6c-5.7 0.3-9.8 1.7-9.9 3.6l-4.4 57.1 -0.1 0.1c-9.6 8.3-11.7 16.8-11.7 22.4v51.7 51.7c0 7.4 6.1 13.4 13.7 13.4h29.1c7.3 0 13.3-6 13.3-13.4v-51.7 -51.7c0-6.9-3.5-16.4-11.5-22.4l-0.2-0.1 0-0.2 -4.8-56.8c0-0.4-0.1-0.8-0.5-1.1 -1.3-1.3-4.8-2.2-9.2-2.4h6.6c1.4 0.4 2.6 1 3.3 1.7 0.6 0.6 0.8 1.2 0.8 1.8l4.8 56.6c8.1 6.1 11.7 16 11.7 23V218.2z" class="bottle-a"/><path d="M128.4 174.5c-3.8 6-12.1 7-11.7 6.6 2.4-3.1 11.2-6.7 11.2-6.7s-10.1 3.5-19-3.6c-0.3-0.2 12.3 0.2 18.2 2.1 0.3 0.1-15.5-3.1-16.1-19.4 0-0.2 2.7 3 10.7 8.8 3.4 2.5 5.1 6.1 5.9 7.9 0.3 0.7-6.2-14.4 1.6-31.1 0.2-0.3 2.5 7.8 3.1 14.6 0.7 8.6-2.2 16.5-2.1 16.3 1.5-3.7 6.5-9.1 11.5-12.2 3.2-2 5-4.5 5-4.3 0.2 15-20 21.4-15.7 19.4 4.3-2 18.2-2.8 17.5-2.1 -7 7-20.6 3.4-18.8 3.5s13 6.8 10.6 6.4c-9.3-1.5-11.2-6.3-11.2-6.3s-0.4 3.1 0.2 8c0.1 0.9-1.3-0.1-1.3-0.1S128.5 174.3 128.4 174.5z" fill="#55874B"/><path d="M129.1 139.2l-0.4 34.6c0 0-3.7-9.1-3.5-18.1C125.4 146.6 129.1 139.2 129.1 139.2z" class="bottle-c"/><path d="M111 153.7c0 0 6.2 11 17.6 20 0 0 0.2 0.2-0.1 0.1 -1.8-0.5-8.8-3-13.1-8C110.5 160 111 153.7 111 153.7z" class="bottle-c"/><path d="M108.9 170.8c0.9 1 5.2 3.8 10.8 4.4 6.9 0.8 9.1-1.5 9-1.5C119.6 175.3 108.4 170.2 108.9 170.8z" class="bottle-c"/><path d="M128.5 174.3c0 0-1 2.5-5.2 4.9 -4.2 2.4-6.6 2-6.6 2s5.1-2.3 6.4-3.1c1.8-1.1 4.8-3 5.5-4.3C128.8 173.5 128.5 174.3 128.5 174.3z" class="bottle-c"/><path d="M128.4 174.5c0-0.1 0.2-1 0.2-0.8 -0.3 2.6-0.2 9.2-0.2 9.2s-0.3-0.1-0.8-0.4C127.6 182.3 128.3 177.3 128.4 174.5z" class="bottle-c"/><path d="M146.4 153.7c-3.3 3.7-4.1 3.4-7.7 6.2 -3.3 2.5-8.4 7.5-10.1 13.7 0 0.2 0.1 0 0 0.2 0 0.2 4.5-3.4 9.5-9.2C143.1 158.7 147 153.1 146.4 153.7z" class="bottle-c"/><path d="M128.6 173.8c8.8-0.2 8.8-0.2 10.7-0.6 2.4-0.5 8.9-2.4 8.9-2.4s0.6-0.7-10.2 0.4C132.8 171.9 128.6 173.8 128.6 173.8z" class="bottle-c"/><path d="M128.7 173.7c-0.1-0.1 1.8 0.7 5.2 2.6 6.3 3.6 6.7 4.5 6.3 4.4 -1.4-0.4-6.8-3.2-7.6-3.7 -0.8-0.5-3.1-2.5-4-3.3C128.4 173.6 128.8 173.8 128.7 173.7z" class="bottle-c"/><path d="M145.3 95.6c-1.5-0.9-2.9 0.4-3 1.8 -1.4 2.5-0.6 5 1.3 7.2 3.2 3.7 5.3 7.2 6.4 12 0.4 1.9 3.5 2 3.9 0C155.3 109.3 151.8 99.5 145.3 95.6z" class="bottle-d"/><path d="M138.7 38.7c-0.3-2.5-4.3-2.6-4 0 1.9 16.9 2.7 34 3.7 51 0.1 2.6 4.2 2.6 4 0C141.3 72.6 140.6 55.6 138.7 38.7z" class="bottle-d"/><path d="M153 120L153 120c-3 0-3 4 0 4l0 0C155 124 155 120 153 120z" class="bottle-d"/><g opacity="0.2"><path d="M128.6 24.7c0.1 1.8-0.1 5.6-0.1 7.8 0-4.8-5.1-2-9.5-0.8 -0.2 0-0.3 0.1-0.5 0.2l-1.9-0.1c-1.2 0-2.4-2.2-2.6-3.7 -0.3-2.4 2-3.2 2-3.3L128.6 24.7z"/><path d="M128.5 32.5c0 0 0 0.1 0 0.1l-10-0.8c0.2-0.1 0.3-0.1 0.5-0.1C123.4 30.4 128.5 27.7 128.5 32.5z"/><path d="M118.5 31.8l10 0.8c-0.1 5.1 0.2 181.3-0.3 201.1l-14.8-0.8c-8.7-0.4-14.7-6.9-14.7-14.3v-103.4c-0.2-5.9 2.3-15.4 11.8-23.2l4.4-57.4C115.4 33.5 116.7 32.4 118.5 31.8z"/></g></svg>
