<svg xmlns="http://www.w3.org/2000/svg" width="187" height="130" viewBox="0 0 186.8 130.2"><style>.burger-a{fill:#E3A02A;}.burger-b{fill:#844834;}.burger-c{fill:#FFC31A;}.burger-d{fill:#F8C66D;}.burger-e{fill:#020202;opacity:0.2;}</style><path d="M56.5 118.9c-1.3-2-3.3-3.9-5.2-5.2 -3.9-3.3-8.5-5.9-11.8-9.2 -3-2.7-4.9-6-6.4-9.6H13.4c-4.1 0-7.5 3.4-7.5 7.5 0 0.3 0 27.5 23.2 27.8h37.1C62.7 126.7 59.4 122.9 56.5 118.9z" class="burger-a"/><path d="M173.6 94.9H33.1c1.4 3.6 3.4 6.9 6.4 9.6 3.3 3.3 7.9 5.9 11.8 9.2 2 1.3 3.9 3.3 5.2 5.2 2.9 4 6.3 7.8 9.8 11.3l91 0c23.9-1 23.9-27.5 23.9-27.8C181.2 98.3 177.8 94.9 173.6 94.9z" class="burger-a"/><path d="M56.5 118.9c-1.3-2-3.3-3.9-5.2-5.2 -3.9-3.3-8.5-5.9-11.8-9.2 -3-2.7-4.9-6-6.4-9.6H13.4c-4.1 0-7.5 3.4-7.5 7.5 0 0.3 0 27.5 23.2 27.8h37.1C62.7 126.7 59.4 122.9 56.5 118.9z" class="burger-a"/><path d="M173.6 94.9H33.1c1.4 3.6 3.4 6.9 6.4 9.6 3.3 3.3 7.9 5.9 11.8 9.2 2 1.3 3.9 3.3 5.2 5.2 2.9 4 6.3 7.8 9.8 11.3l91 0c23.9-1 23.9-27.5 23.9-27.8C181.2 98.3 177.8 94.9 173.6 94.9z" class="burger-a"/><path d="M30.4 86.4H7.5C3.4 86.4 0 89.8 0 93.9v2.6c0 4.1 3.4 7.5 7.5 7.5h31.5C34.1 99.3 32.1 93 30.4 86.4z" class="burger-b"/><path d="M178.9 86.4L30.4 86.4c1.7 6.5 3.7 12.9 8.6 17.7l139.9 0c4.1 0 7.5-3.4 7.5-7.5v-2.6C186.4 89.8 183 86.4 178.9 86.4z" class="burger-b"/><path d="M30.4 86.4H7.5C3.4 86.4 0 89.8 0 93.9v2.6c0 4.1 3.4 7.5 7.5 7.5h31.5C34.1 99.3 32.1 93 30.4 86.4z" class="burger-b"/><path d="M178.9 86.4L30.4 86.4c1.7 6.5 3.7 12.9 8.6 17.7l139.9 0c4.1 0 7.5-3.4 7.5-7.5v-2.6C186.4 89.8 183 86.4 178.9 86.4z" class="burger-b"/><path d="M5.3 77.3c-2.7 0-4.9 2.2-4.9 4.9 0 2.7 2.2 4.9 4.9 4.9h25.3c-0.9-3.3-1.6-6.6-2.6-9.8H5.3z" class="burger-c"/><path d="M181.9 77.3H28c1 3.2 1.8 6.5 2.6 9.8h38.3l25.9 22.4 25.7-22.4 61.3 0c2.7 0 4.9-2.2 4.9-4.9S184.6 77.3 181.9 77.3z" class="burger-c"/><path d="M34.2 17.6c-1 0.7-2 1.5-3 2.3C14.9 33.3 6.3 52.5 6.2 75.5c1.2 0.4 8.9 0.8 21.5 1.1 0-0.1 0-0.1-0.1-0.2C21.3 56.7 26.7 36.6 34.2 17.6z" class="burger-a"/><path d="M182.1 76.9c-0.4-23.1-9.1-42.7-25.3-56.5C141.5 7.2 119.9 0 96.1 0l-0.6 0C70.9 0.1 49.8 6.2 34.2 17.6c-7.5 19-12.9 39-6.5 58.8 0 0.1 0 0.1 0.1 0.2 15.6 0.4 38.8 0.7 66.4 0.7C142 77.3 178.3 77 182.1 76.9z" class="burger-a"/><path d="M34.2 17.6c-1 0.7-2 1.5-3 2.3C14.9 33.3 6.1 51.6 6.2 77.2c2.1 0 10.1 0.2 21.9 0.5 -0.1-0.4-0.3-0.9-0.4-1.3C21.3 56.7 26.7 36.6 34.2 17.6z" class="burger-a"/><path d="M182.1 77.6c-0.4-23.1-9.1-43.3-25.3-57.2C141.5 7.2 119.9 0 96.1 0l-0.6 0C70.9 0.1 49.8 6.2 34.2 17.6c-7.5 19-12.9 39-6.5 58.8 0.1 0.4 0.3 0.9 0.4 1.3 15.6-0.1 38.7-0.4 66.1-0.4C142 77.3 178.3 77.6 182.1 77.6z" class="burger-a"/><path d="M69.2 24.6h10.5c0.5 0 1 0 1-0.5 0-0.5-0.4-0.5-1-0.5H69.2c-0.5 0-1 0-1 0.5C68.2 24.6 68.7 24.6 69.2 24.6z" class="burger-d"/><path d="M91.7 36.8l8.1 5.7c0.6 0.4 1.3 0.3 1.7-0.3 0.4-0.6 0.3-1.3-0.3-1.7l-8.1-5.7c-0.6-0.4-1.3-0.3-1.7 0.3C91 35.6 91.2 36.4 91.7 36.8z" class="burger-d"/><path d="M46.6 45.3l8.1-5.7c0.6-0.4 0.7-1.2 0.3-1.7 -0.4-0.6-1.2-0.7-1.7-0.3l-8.1 5.7c-0.6 0.4-0.7 1.2-0.3 1.7C45.3 45.6 46.1 45.7 46.6 45.3z" class="burger-d"/><path d="M120.9 22.5c0.2 0.7-0.2 1.3-0.9 1.5l-9.5 2.7c-0.7 0.2-1.3-0.2-1.5-0.9l0 0c-0.2-0.7 0.2-1.3 0.9-1.5l9.5-2.7C120.1 21.5 120.8 21.8 120.9 22.5L120.9 22.5z" class="burger-d"/><path d="M70.2 43.2l9.5-2.7c0.7-0.2 1-0.9 0.9-1.5s-0.9-1-1.5-0.9l-9.5 2.7c-0.7 0.2-1 0.9-0.9 1.5C68.9 43 69.6 43.4 70.2 43.2z" class="burger-d"/><path d="M115.5 37.4c0.4-0.6 1.1-0.8 1.7-0.4l8.4 5.1c0.6 0.4 0.8 1.1 0.4 1.7l0 0c-0.4 0.6-1.1 0.8-1.7 0.4l-8.4-5.1C115.4 38.8 115.2 38 115.5 37.4L115.5 37.4z" class="burger-d"/><path d="M43.2 29.1c0.2 0.7 0.9 1.1 1.5 0.9l9.5-2.6c0.7-0.2 1-0.9 0.9-1.5 -0.2-0.7-0.9-1-1.5-0.9l-9.5 2.6C43.4 27.7 43 28.4 43.2 29.1z" class="burger-d"/><path d="M132.9 34.8c-0.2-0.7 0.2-1.3 0.9-1.5l9.5-2.6c0.7-0.2 1.3 0.2 1.5 0.9l0 0c0.2 0.7-0.2 1.3-0.9 1.5l-9.5 2.6C133.8 35.9 133.1 35.5 132.9 34.8L132.9 34.8z" class="burger-d"/><path d="M90 14.3l9.5-2.6c0.7-0.2 1-0.9 0.9-1.5 -0.2-0.7-0.9-1.1-1.5-0.9l-9.5 2.6c-0.7 0.2-1 0.9-0.9 1.5C88.6 14.1 89.3 14.5 90 14.3z" class="burger-d"/><path d="M90.2 25.1l9 3.8c0.6 0.3 1.3 0 1.6-0.7 0.3-0.6 0-1.4-0.6-1.6l-9-3.8c-0.6-0.3-1.3 0-1.6 0.7C89.3 24.1 89.6 24.8 90.2 25.1z" class="burger-d"/><path d="M54.7 120.6c-2.8-2.2-12.4-13.3-15.7-16.6 -0.3-0.1-33.1-0.3-33.1 0 0 0.3 0.9 25.9 23.2 26.2l37.1 0C62.8 126.8 54.8 120.7 54.7 120.6z" class="burger-e"/><path d="M30.6 87.1L7.5 87.1C2.9 86.4 0.4 88.8 0 93.9v2.6c0 4.1 3.4 7.5 7.5 7.5h31.5C34.1 99.3 32.3 93.6 30.6 87.1z" class="burger-e"/><path d="M5.3 77.3c-2.7 0-4.9 2.2-4.9 4.9s2.2 4.9 4.9 4.9h25.3c-0.9-3.3-1.7-6.2-2.7-9.4L5.3 77.3z" class="burger-e"/><path d="M34.2 17.4c-1 0.8-2 1.5-3 2.3C14.9 33.1 6.1 51.5 6.2 77.2c4 0.1 21.7 0.6 21.7 0.4C25.2 65.8 26.7 36.4 34.2 17.4z" class="burger-e"/></svg>
