<svg xmlns="http://www.w3.org/2000/svg" width="253" height="253" viewBox="0 0 253.4 253.4"><style>.candy-a{fill:#F9F5A5;}.candy-b{fill:#CCA35C;}.candy-c{fill:#78A56D;}.candy-d{fill:#050505;opacity:0.2;}</style><circle cx="126.7" cy="126.7" r="126.7" fill="#F4F2DC"/><path d="M217.4 126.6c0.3 2.5 0 5-0.7 7.5 -0.7 2.3-1.9 4.3-3.2 6.3 -1.3 2-2.5 4-2.6 6.4 -0.1 0-0.3 0.1-0.2 0.3 0 0 0 0 0.1 0.1 -0.1 0.1-0.3 0-0.3-0.2 0.1-4.8 4.3-8.1 5.6-12.4 0.8-2.5 1.2-5 0.9-7.7 -0.3-2.7-0.5-5.4-0.5-8.2 0-2.8 0.1-5.7-0.7-8.4 -0.6-2-1.6-3.8-2.7-5.5 -1.2-1.9-2.4-3.6-4.1-5.1 -1.5-1.3-3-2.7-3.9-4.5 -0.1-0.1 0-0.3 0.1-0.3 0 0 0 0 0.1 0 0 0 0.1 0 0.1 0.1 1 2.1 2.8 3.4 4.5 5 1.6 1.5 2.7 3.3 3.9 5.1 1.1 1.7 2 3.5 2.5 5.4 0.6 2.5 0.7 5 0.7 7.5C216.9 121 217.1 123.8 217.4 126.6z" class="candy-a"/><path d="M69.5 160.2C56.1 159.7 48.1 147 43 133.9c0 0.2 0 0.5 0 0.7 -0.1 1.4-0.1 2.8 0.1 4.1 0.6 3.4 2.5 6.3 4.6 9 0.1 0.2-0.2 0.4-0.3 0.2 -2.1-2.8-4.2-5.9-4.6-9.5 -0.2-1.5-0.1-3.1 0-4.6 0-0.2 0.1-0.4 0.1-0.7 -0.7-1.9-1.4-3.9-2-5.8 -0.8 1.7-1.6 3.4-2.5 5 -1.1 2.3-2.1 4.8-1.2 7.4 0.9 2.5 3 4.7 4.7 6.7 3.5 4.1 7.7 7.4 11.6 11.1 2.2 2 4.3 4.1 6.8 5.7 2 1.3 4.1 2.5 5.8 4.3 3.2-2.1 5.6-5 7.9-8C72.3 160 70.8 160.3 69.5 160.2z" class="candy-a"/><path d="M84.6 135.3c-1.7 3.5-0.8 7.2 0.6 10.6 1-1.6 2-3.3 3.1-4.8 0 0 0.1-0.1 0.1-0.1 -0.1-0.1-0.2-0.3-0.3-0.4 -1.1-1.7-2.1-3.6-3.1-5.4C84.7 135.2 84.6 135.2 84.6 135.3z" class="candy-a"/><path d="M137.5 163.6c-2 0-3.9-0.1-5.8-0.3 -0.8 0.1-1.6-0.1-2.5-0.3 -1.4-0.3-2.8 0.1-4.2 0 -2.7-0.2-4.9-1.6-7.2-3 -0.2-0.1 0-0.4 0.2-0.3 2.3 1.4 4.8 3 7.6 2.9 0.5 0 1.1-0.1 1.6-0.1 -15.7-3.7-28.1-15.8-40.2-26.4 -0.4-0.2-0.9-0.5-1.4-0.7 1.2 2.1 2.3 4.2 3.7 6.2 2.7 3.7 6.1 7 9.4 10.1 1.7 1.6 3.5 3.1 5.6 4.1 2.2 1.1 4.3 2.1 6.2 3.5 1.9 1.4 3.9 2.7 5.9 3.8 1.7 1 3.6 1.9 5.5 2.4 4.6 1.1 9.4 1.6 14.1 1.2 2.6-0.2 5-0.8 7.4-1.6 0.2-0.1 0.3-0.1 0.5-0.1C141.8 164 139.6 163.5 137.5 163.6z" class="candy-a"/><path d="M217 127c-0.3-2.7-0.5-5.4-0.5-8.2 0-2.8 0.1-5.7-0.7-8.4 -0.6-2-1.6-3.8-2.7-5.5 -1.2-1.9-2.4-3.6-4.1-5.1 -1.5-1.3-3-2.7-3.9-4.5 -0.1-0.1 0-0.3 0.1-0.3 -0.1 0-0.2-0.2-0.1-0.3 1-2.1-0.5-5.1-2-6.5 -1.5-1.5-3.9-1.3-5.4-2.6v0c-0.5 2.1-0.9 4.4-2.3 6.2 -1.6 2.2-3.7 3.9-5.7 5.8 -2.2 2.1-3.9 4.5-4.9 7.4 -0.5 1.5-0.4 3.2-0.9 4.7 0.8-0.8 1.7-1.6 2.2-2.7 0.1-0.2 0.4 0 0.3 0.2 -0.6 1.2-1.5 2-2.4 2.9 -0.5 0.5-1 1.1-1.3 1.7 -0.3 0.4-0.5 0.9-0.9 1.2 0.1 0.2 0.2 0.4 0.3 0.7 0.4-0.3 0.7-0.7 1.1-1 0.2-0.2 0.4 0.1 0.3 0.3 -1.9 1.9-4 3.7-5.7 5.9 -1.6 1.9-3.7 6.6-3.3 5.5 0.6-1.3 1.9-4.5 3.4-6.3 1.2-1.4 2.6-2.7 3.9-4 0 0 0 0 0 0 -0.6-1.8-2.2-3.1-3.7-4.1 -1.6-1.1-3.4-2-5-3.2 -1.5-1.1-2.7-2.5-3.8-4.1 -1.1-1.6-2.2-3.2-3.8-4.3 -1-0.7-2.1-1.1-3.2-1.7 -1.2-0.6-2.4-1.2-3.6-1.9 -2.3-1.3-4.5-2.5-6.9-3.6 -1.2-0.6-2.4-1.2-3.7-1.8 -1.3-0.6-2.6-1-4-1.4 -2.4-0.7-4.7-1.1-7.2-1.1 -1.6 0-3.2 0.2-4.8 0.1 -1.6-0.1-3.1 0.2-4.6 0.4 -2.7 0.4-5.4 0.3-8.1 0.9 -2.4 0.5-4.7 1.4-7 2.3 -2.5 1-4.3 2.9-6.4 4.6 -2.3 1.8-4.7 3.6-6.7 5.8 -2.1 2.2-3.9 4.8-5.7 7.2 -1.7 2.3-3.3 4.7-4.8 7 -1.5 2.3-2.8 4.7-3.7 7.4 0 0 0 0.1-0.1 0.1 0.2 0.5 0.3 1.1 0.5 1.6 0.4 1 0.9 2.1 1.7 2.8 0.5 0.5 1.1 1.1 1.5 1.7 1 1.3 1.7 2.8 2.3 4.3 1.3 3.2 2.4 6.7 5.1 9 0.2 0.2-0.1 0.4-0.3 0.3 -2.5-2.1-3.6-5.2-4.8-8.2 -0.6-1.6-1.3-3.3-2.3-4.7 -1-1.5-2.5-2.5-3.2-4.2 -0.4-0.8-0.6-1.7-0.9-2.6 -0.3-0.9-0.5-1.8-1-2.6 -1-1.8-2.3-3.4-3.9-4.7 -1.6-1.3-3.4-2.3-5-3.6 -1.6-1.3-2.9-2.9-4.7-3.9 0 0-0.1-0.1-0.1-0.1 -3.3-1.9-7.4-1.3-10.9-2.9 -3.5-1.6-6.3-4.5-10-5.9 -0.6 1.5-1.6 2.8-2.2 4.4 -0.6 1.6-1 3.2-1.3 4.9 -0.7 3.4-1.2 6.7-2 10.1 -0.6 2.5-1.4 4.9-2.4 7.2 -0.3 0.6-0.5 1.2-0.8 1.9 0.6 1.9 1.3 3.9 2 5.8 0.1-1 0.4-2.1 1-3 0.1-0.2 0.5 0 0.3 0.2 -0.7 1-0.9 2.3-1 3.5 5.1 13.1 13.1 25.8 26.5 26.4 1.3 0.1 2.7-0.2 4.3-0.8 1.3-1.6 2.6-3.2 4.1-4.7 1-1.1 2.2-2 3.2-3.1 1-1.1 1.9-2.3 2.7-3.5 0.5-0.8 1-1.5 1.4-2.3 -1.4-3.4-2.3-7.1-0.6-10.6 0-0.1 0.1-0.1 0.3-0.1 -0.1-0.2-0.2-0.3-0.3-0.5 -1.2-2.1-2.7-3.8-4.5-5.4 -0.2-0.2 0.1-0.4 0.3-0.3 0.6 0.5 1.3 1.1 1.8 1.7 1.3 1.4 2.3 3 3.2 4.6 0.5 0.2 1 0.5 1.4 0.7 12.2 10.6 24.6 22.7 40.2 26.4 0.6 0 1.2-0.1 1.9 0.1 1.3 0.3 2.4 0.6 3.7 0.1 0.2-0.1 0.3 0.3 0.1 0.4 -0.4 0.2-0.8 0.2-1.2 0.3 1.9 0.2 3.8 0.3 5.8 0.3 2.2-0.1 4.3 0.4 6.4 1.3 2.5-0.8 5-1.2 7.5-1.8 2.7-0.6 5.1-1.5 7.1-3.4 1.8-1.7 3.3-3.7 4.7-5.7 0.1-0.2 0.2-0.3 0.3-0.5 -0.1-0.1-0.1-0.2 0-0.3 0.1-0.1 0.3-0.2 0.4-0.4 2.9-4.2 5.6-8.7 7.6-13.4 0.1-0.2 0.4 0 0.3 0.2 -0.3 0.6-0.5 1.2-0.8 1.8 -1.8 3.7-3.9 7.3-6.2 10.7 2.3-1.5 4.9-2.7 6.9-4.6 1.3-1.3 2.4-2.9 3.3-4.4 0.9-1.5 1.6-3.1 2.5-4.5 4-6 8.7-11.6 11.7-18.2 0.1-0.2 0.4 0 0.3 0.2 -1.5 3.4-3.5 6.6-5.7 9.7 -0.4 0.5-0.7 1.1-1.1 1.6 0.1 0 0.1 0 0.2 0.1 2.6 3.8 7.3 5.1 11.2 7.2 2.2 1.2 4.4 2.5 6.3 4.1 1.8 1.4 2.8 3.5 4.7 4.9 0.1 0.1 0.1 0.1 0.1 0.2 1.2 0.5 6.5 0.5 5.4-1.2 -0.1 0.1-0.3 0-0.3-0.2 0.1-4.8 4.3-8.1 5.6-12.4C216.9 132.1 217.3 129.6 217 127zM102.8 101.5c-1.9 1.3-3.4 2.9-4.6 4.8 -0.1 0.2-0.5 0-0.3-0.2 1.3-2 2.9-3.6 4.8-5C102.8 101 103 101.4 102.8 101.5zM142.4 89.1c-1.5 0.6-3 1.5-4.6 1.7 -1.5 0.2-2.7-0.3-3.7-1.4 -0.2-0.2 0.1-0.4 0.3-0.3 2.5 2.4 5.3 0.7 7.9-0.4C142.5 88.6 142.6 89 142.4 89.1zM171.2 109.7c-0.6-2-2.6-2.3-3.7-3.9 -0.6-0.9-0.7-1.9-1.5-2.7 -0.8-0.8-1.8-1.3-2.8-1.8 -0.2-0.1 0-0.4 0.2-0.3 1.1 0.5 2.3 1.2 3.1 2.1 0.7 0.8 0.8 1.9 1.5 2.7 1.3 1.4 3 1.9 3.6 3.9C171.7 109.8 171.3 109.9 171.2 109.7z" class="candy-a"/><path d="M211 146.9c1.9 2.4-4.8 2.4-5.9 1.8 -0.1-0.1-0.1-0.2-0.1-0.2 0 0 0 0 0.1 0.1 0.1 0.1 0.2 0 0.3-0.1 1.2 0.5 6.5 0.5 5.4-1.2 0.1 0 0.1-0.1 0.1-0.2 0-0.1 0-0.1 0-0.2C210.9 146.9 211 146.9 211 146.9z" class="candy-a"/><path d="M210.9 146.9c0 0.1 0 0.1 0 0.2 0 0.1 0 0.1-0.1 0.2 0 0 0 0-0.1-0.1C210.6 147 210.7 146.9 210.9 146.9z" class="candy-a"/><path d="M204 88.6c1.2 1.7 2.4 4.2 1.4 6.3 0 0.1-0.1 0.1-0.1 0.1 0 0 0 0-0.1 0 -0.1 0-0.2-0.2-0.1-0.3 1-2.1-0.5-5.1-2-6.5 -1.5-1.5-3.9-1.3-5.4-2.6 0-0.2-0.1-0.3-0.2-0.2 0 0 0 0-0.1-0.1 -0.2-0.2 0.1-0.4 0.3-0.3 1.1 1.1 2.7 1.2 4.1 1.7C202.6 87.1 203.4 87.8 204 88.6z" class="candy-a"/><path d="M205.3 148.2c0.1 0.1 0.1 0.1 0.1 0.2 0 0 0 0-0.1 0 -0.1-0.1-0.2 0-0.3 0.1 -1.8-1.3-2.8-3.3-4.5-4.7 -2.1-1.7-4.6-3.3-7-4.5 -3.8-1.9-8.2-3.3-10.8-7 0 0 0 0 0 0 0.1-0.1 0.1-0.1 0.2-0.2 0.1 0 0.1 0 0.2 0.1 2.6 3.8 7.3 5.1 11.2 7.2 2.2 1.2 4.4 2.5 6.3 4.1C202.4 144.7 203.5 146.8 205.3 148.2z" class="candy-a"/><path d="M205.3 148.4c0 0 0 0 0.1 0 0 0.1-0.1 0.2-0.3 0.1 0 0 0 0-0.1-0.1C205.1 148.4 205.2 148.3 205.3 148.4z" class="candy-a"/><path d="M205.3 94.9c0 0 0 0-0.1 0C205.2 94.9 205.2 94.9 205.3 94.9z"/><path d="M197.4 85.3c0.1 0 0.3 0.1 0.2 0.2C197.6 85.5 197.5 85.4 197.4 85.3z"/><path d="M197.7 85.5v0c-0.5 2.1-0.9 4.4-2.3 6.2 -1.6 2.2-3.7 3.9-5.7 5.8 -2.2 2.1-3.9 4.5-4.9 7.4 -0.5 1.5-0.4 3.2-0.9 4.7 0 0-0.1 0.1-0.1 0.1 -0.2 0.2-0.3 0.4-0.5 0.6 0 0 0-0.1 0-0.2 0.9-1.8 0.6-4 1.4-5.9 1-2.4 2.3-4.5 4.1-6.3 2-2 4.2-3.7 6-6 1.5-2 2-4.2 2.5-6.6 0-0.1 0.1-0.1 0.1-0.1C197.5 85.4 197.6 85.5 197.7 85.5z" class="candy-a"/><path d="M189.4 120.5c0.1-0.2 0.4 0 0.3 0.2 -1.5 3.4-3.5 6.6-5.7 9.7 -0.4 0.5-0.7 1.1-1.1 1.6 -0.1 0-0.2 0.1-0.2 0.2 -0.7 0.9-1.3 1.8-2 2.8 -1.1 1.5-2.3 3-3.1 4.6 -1.6 3-3.2 6.4-5.8 8.7 -2.3 2-5.2 3.2-7.6 5.1 0.2-0.3 0.4-0.6 0.6-0.9 2.3-1.5 4.9-2.7 6.9-4.6 1.3-1.3 2.4-2.9 3.3-4.4 0.9-1.5 1.6-3.1 2.5-4.5C181.7 132.7 186.4 127.1 189.4 120.5z" class="candy-a"/><path d="M186.2 106.9c0.1-0.2 0.4 0 0.3 0.2 -0.6 1.2-1.5 2-2.4 2.9 -0.5 0.5-1 1.1-1.3 1.7 -0.3 0.4-0.5 0.9-0.9 1.2 -0.1-0.1-0.1-0.2-0.2-0.3 0.4-0.4 0.6-0.9 1-1.3 0.3-0.3 0.5-0.6 0.7-0.9 0.1 0.1 0.3 0.2 0.3 0 0.1-0.2 0.2-0.5 0.3-0.7C184.8 108.8 185.7 108 186.2 106.9z" class="candy-a"/><path d="M183.8 109.8c0 0 0.1-0.1 0.1-0.1 -0.1 0.2-0.2 0.5-0.3 0.7 -0.1 0.2-0.3 0.1-0.3 0C183.5 110.2 183.6 110 183.8 109.8z" class="candy-a"/><path d="M183.2 112.5c0.2-0.2 0.4 0.1 0.3 0.3 -1.9 1.9-4 3.7-5.7 5.9 -1.6 1.9-3.7 6.6-3.3 5.5 0.6-1.3 1.9-4.5 3.4-6.3 1.2-1.4 2.6-2.7 3.9-4 0.1 0.2 0.4 0.1 0.4-0.1 0-0.1 0-0.1-0.1-0.2C182.5 113.2 182.8 112.9 183.2 112.5z" class="candy-a"/><path d="M182.9 131.9c-0.1 0.1-0.1 0.2-0.2 0.2C182.7 132.1 182.8 132 182.9 131.9z"/><path d="M182.2 113.8c0.1 0.2-0.3 0.3-0.4 0.1 0.1-0.1 0.2-0.2 0.3-0.3C182.1 113.6 182.2 113.7 182.2 113.8z" class="candy-a"/><path d="M181.8 112.9c0 0-0.1 0-0.1 0.1 -0.2 0.2-0.5-0.1-0.3-0.3 0.1 0 0.1-0.1 0.2-0.1 -1.6-2.7-5.1-4.1-7.5-5.7 -1.9-1.3-3.3-2.8-4.6-4.7 -1-1.5-2.1-3-3.6-4.1 -1-0.7-2-1.2-3.1-1.7 -1.3-0.6-2.6-1.3-3.9-2.1 -1.2-0.7-2.3-1.4-3.5-2 -1.3-0.7-2.6-1.2-3.9-1.9 -1.2-0.6-2.4-1.2-3.7-1.8 -1.2-0.5-2.5-0.9-3.7-1.2 -2.4-0.7-4.8-1.1-7.4-1 -2.9 0-5.9 0-8.8 0.5 -2.7 0.5-5.5 0.4-8.2 0.9 -2.4 0.5-4.7 1.3-7 2.3 -1.1 0.4-2.1 0.9-3 1.6 -1 0.7-1.9 1.6-2.8 2.4 -2.2 1.8-4.5 3.4-6.5 5.4 -2 1.9-3.8 4.2-5.5 6.5 -1.8 2.4-3.5 4.8-5.1 7.3 -1.5 2.3-2.9 4.5-4 6.9 -0.3 0.6-0.5 1.3-0.8 1.9 0.1 0.2 0.1 0.4 0.2 0.6 0 0 0-0.1 0.1-0.1 0.8-2.6 2.2-5.1 3.7-7.4 1.5-2.4 3.1-4.7 4.8-7 1.8-2.5 3.6-5 5.7-7.2 2-2.2 4.4-4 6.7-5.8 2.1-1.6 3.9-3.5 6.4-4.6 2.3-0.9 4.6-1.8 7-2.3 2.7-0.6 5.4-0.5 8.1-0.9 1.6-0.2 3-0.5 4.6-0.4 1.6 0.1 3.2-0.1 4.8-0.1 2.5 0 4.8 0.4 7.2 1.1 1.4 0.4 2.7 0.8 4 1.4 1.2 0.6 2.4 1.2 3.7 1.8 2.4 1.1 4.6 2.3 6.9 3.6 1.2 0.7 2.3 1.3 3.6 1.9 1.1 0.5 2.2 1 3.2 1.7 1.6 1.1 2.7 2.7 3.8 4.3 1.1 1.6 2.2 2.9 3.8 4.1 1.6 1.2 3.3 2.1 5 3.2 1.6 1 3.1 2.2 3.7 4.1 0 0 0 0 0 0 0.1-0.1 0.2-0.2 0.3-0.3C182 113.4 181.9 113.1 181.8 112.9z" class="candy-a"/><path d="M181.8 112.9c0 0-0.1 0-0.1 0.1 -0.2 0.2-0.5-0.1-0.3-0.3 0.1 0 0.1-0.1 0.2-0.1C181.7 112.7 181.8 112.8 181.8 112.9z" class="candy-a"/><path d="M171.6 139.6c0.1-0.2 0.4 0 0.3 0.2 -0.3 0.6-0.5 1.2-0.8 1.8 -1.8 3.7-3.9 7.3-6.2 10.7 -0.3 0.2-0.6 0.4-0.9 0.7C167 148.7 169.6 144.3 171.6 139.6z" class="candy-b"/><path d="M171.6 109.6c0.1 0.2-0.3 0.3-0.4 0.1 -0.6-2-2.6-2.3-3.7-3.9 -0.6-0.9-0.7-1.9-1.5-2.7 -0.8-0.8-1.8-1.3-2.8-1.8 -0.2-0.1 0-0.4 0.2-0.3 1.1 0.5 2.3 1.2 3.1 2.1 0.7 0.8 0.8 1.9 1.5 2.7C169.2 107.1 171 107.7 171.6 109.6z" class="candy-b"/><path d="M164.9 152.3c-0.2 0.3-0.4 0.6-0.6 0.9 -0.2 0.1-0.3 0.3-0.5 0.4 -0.1 0.1-0.2 0.1-0.3 0 0.2-0.2 0.3-0.4 0.4-0.6C164.3 152.7 164.6 152.5 164.9 152.3z" class="candy-a"/><path d="M163.8 153.6c0.2-0.1 0.3-0.3 0.5-0.4 -0.7 1-1.4 2-2.2 2.9 -1.4 1.8-2.7 3.5-4.5 4.9 -2.1 1.5-4.3 2.2-6.9 2.7 -2.8 0.6-5.6 1.2-8.3 2.1 -2.2 0.8-4.6 1.2-6.9 1.3 -4.6 0.3-9.3-0.2-13.9-1.3 0.2 0.1 0.3-0.3 0.1-0.4 4.6 1.1 9.4 1.6 14.1 1.2 2.6-0.2 5-0.8 7.4-1.6 2.6-0.9 5.3-1.3 8-1.9 2.7-0.6 5.1-1.5 7.1-3.4 1.8-1.7 3.3-3.7 4.7-5.7 0.1-0.2 0.2-0.3 0.3-0.5C163.6 153.6 163.7 153.7 163.8 153.6z" class="candy-a"/><path d="M163.6 153.3c0.1-0.1 0.3-0.2 0.4-0.4 -0.1 0.2-0.3 0.4-0.4 0.6C163.5 153.5 163.5 153.4 163.6 153.3z" class="candy-a"/><path d="M142.3 88.7c0.2-0.1 0.3 0.3 0.1 0.4 -1.5 0.6-3 1.5-4.6 1.7 -1.5 0.2-2.7-0.3-3.7-1.4 -0.2-0.2 0.1-0.4 0.3-0.3C136.9 91.5 139.6 89.8 142.3 88.7z" class="candy-b"/><path d="M132.7 162.7c0.2-0.1 0.3 0.3 0.1 0.4 -1.2 0.5-2.4 0.3-3.7 0 -1.4-0.3-2.8 0.1-4.2 0 -2.7-0.2-4.9-1.6-7.2-3 -0.2-0.1 0-0.4 0.2-0.3 2.3 1.4 4.8 3 7.6 2.9 1.2 0 2.3-0.3 3.5 0C130.3 162.9 131.4 163.2 132.7 162.7z" class="candy-b"/><path d="M121.8 165.5c0.2 0 0.1 0.4-0.1 0.4C121.5 165.8 121.6 165.5 121.8 165.5z" class="candy-a"/><path d="M88 140.6c0.1 0.1 0.2 0.3 0.3 0.4 0.2-0.1 0.4 0.1 0.2 0.3 0 0 0 0 0 0.1 2.4 3.4 5.4 6.4 8.3 9.2 1.5 1.5 3 3 4.8 4.2 1.9 1.3 4.1 2.1 6.1 3.3 2.1 1.2 3.9 2.7 5.9 4 1.9 1.2 3.8 2.3 5.8 3.1 0.7 0.3 1.5 0.6 2.3 0.8 -0.2-0.1-0.1-0.4 0.1-0.4 -2-0.4-3.8-1.4-5.5-2.4 -2-1.1-4-2.4-5.9-3.8 -2-1.4-4.1-2.4-6.2-3.5 -2.1-1.1-3.9-2.5-5.6-4.1 -3.3-3.2-6.7-6.4-9.4-10.1 -1.4-1.9-2.5-4.1-3.7-6.2 -0.2-0.1-0.4-0.1-0.5-0.2C86 137 86.9 138.9 88 140.6z" class="candy-a"/><path d="M80.4 129.2c-0.2-0.2-0.5 0.1-0.3 0.3 1.8 1.5 3.3 3.3 4.5 5.4 0.1 0.2 0.2 0.3 0.3 0.5 0.1 0 0.3 0.1 0.5 0.2 -0.9-1.6-1.9-3.2-3.2-4.6C81.7 130.2 81 129.7 80.4 129.2z" class="candy-a"/><path d="M102.6 101.2c0.2-0.1 0.4 0.2 0.2 0.3 -1.9 1.3-3.4 2.9-4.6 4.8 -0.1 0.2-0.5 0-0.3-0.2C99.1 104.2 100.7 102.6 102.6 101.2z" class="candy-b"/><path d="M89 129.4c1 1.4 1.7 3.1 2.3 4.7 1.2 3 2.3 6 4.8 8.2 0.2 0.2 0.4-0.1 0.3-0.3 -2.7-2.3-3.8-5.8-5.1-9 -0.6-1.5-1.3-2.9-2.3-4.3 -0.4-0.6-1-1.2-1.5-1.7 -0.8-0.8-1.3-1.8-1.7-2.8 -0.2-0.5-0.4-1.1-0.5-1.6 -0.1 0.1-0.3 0-0.3-0.1l0 0c0.3 0.9 0.5 1.8 0.9 2.6C86.5 126.8 88 127.9 89 129.4z" class="candy-b"/><path d="M88.3 141c0.1 0.1 0.1 0.2 0.2 0.3 0 0 0 0 0-0.1C88.7 141.1 88.5 141 88.3 141z" class="candy-a"/><path d="M65.8 167.4c0 0 0 0 0 0 0.1 0.1 0 0.2 0 0.3 0 0 0.1 0.1 0.2 0 3.4-2.3 5.9-5.4 8.5-8.5 -0.2 0.1-0.5 0.2-0.7 0.3C71.4 162.4 69 165.3 65.8 167.4z" class="candy-a"/><path d="M88.5 141.3c-0.1-0.1-0.1-0.2-0.2-0.3 0 0-0.1 0-0.1 0.1 -1.1 1.5-2.1 3.2-3.1 4.8 0.1 0.2 0.1 0.3 0.2 0.4C86.4 144.6 87.4 142.9 88.5 141.3z" class="candy-a"/><path d="M81.1 151.7c-1 1.1-2.2 2-3.2 3.1 -1.5 1.5-2.8 3.1-4.1 4.7 0.2-0.1 0.5-0.2 0.7-0.3 1.1-1.4 2.2-2.7 3.4-4 1-1.1 2.2-2 3.2-3.1 1-1 1.8-2.2 2.6-3.3 0.6-0.8 1.1-1.7 1.6-2.5 -0.1-0.1-0.1-0.3-0.2-0.4 -0.5 0.8-0.9 1.5-1.4 2.3C82.9 149.4 82.1 150.6 81.1 151.7z" class="candy-a"/><path d="M85.3 122.6c-0.1-0.2-0.1-0.4-0.2-0.6 0 0.1-0.1 0.2-0.1 0.4 0 0 0 0.1 0 0.1C85 122.6 85.2 122.7 85.3 122.6z"/><path d="M70.4 107.8c1.8 1 3.2 2.6 4.7 3.9 1.6 1.3 3.4 2.3 5 3.6 1.6 1.3 2.9 2.9 3.9 4.7 0.4 0.8 0.7 1.7 1 2.6l0 0c0 0 0-0.1 0-0.1 0-0.1 0.1-0.3 0.1-0.4 -0.3-1-0.6-1.9-1.1-2.8 -0.9-1.6-2.3-3-3.7-4.2 -1.5-1.3-3.4-2.3-5-3.6 -1.6-1.3-2.9-2.8-4.7-3.9 0.1 0.1-0.1 0.3-0.3 0.2 0 0-0.1 0-0.1 0C70.3 107.7 70.3 107.8 70.4 107.8z" class="candy-a"/><path d="M70.6 107.5c0.1 0.1-0.1 0.3-0.3 0.2 0 0-0.1 0-0.1 0 -0.1-0.1 0.1-0.3 0.3-0.2C70.6 107.5 70.6 107.5 70.6 107.5z" class="candy-a"/><path d="M70.6 107.5c0 0-0.1 0-0.1 0 -0.2-0.1-0.3 0.1-0.3 0.2 -3.3-1.9-7.4-1.3-10.9-2.9 -3.5-1.6-6.3-4.5-10-5.9 0 0 0-0.1 0.1-0.2 0.1-0.2-0.3-0.3-0.4-0.1 0-0.1 0.1-0.2 0.2-0.2 3.7 1.4 6.6 4.4 10.2 6 3.5 1.5 7.6 1 11 2.9C70.6 107.4 70.6 107.5 70.6 107.5z" class="candy-a"/><path d="M65.9 167.5c0.1 0.1 0 0.2 0 0.3 0 0 0 0 0 0 -0.1-0.1-0.1-0.2 0-0.3 0 0 0 0 0 0C65.8 167.4 65.9 167.5 65.9 167.5z" class="candy-a"/><path d="M39.4 129.2c-1.1 2.2-2.5 4.4-3 6.8 -0.4 2.1 0.2 4.2 1.4 6 1.3 2 3 3.9 4.6 5.6 1.7 1.9 3.5 3.7 5.4 5.3 3.1 2.7 6.1 5.7 9.2 8.4 2.7 2.4 6.1 3.8 8.6 6.4 0.1 0.1 0.2 0.1 0.2 0 -0.1-0.1-0.1-0.2 0-0.3 0 0 0 0 0 0 -1.7-1.8-3.7-3-5.8-4.3 -2.5-1.6-4.6-3.6-6.8-5.7 -3.9-3.7-8.1-7-11.6-11.1 -1.7-2-3.8-4.2-4.7-6.7 -0.9-2.5 0-5.1 1.2-7.4 0.8-1.7 1.7-3.3 2.5-5 -0.1-0.2-0.1-0.4-0.2-0.5C40.1 127.6 39.8 128.4 39.4 129.2z" class="candy-a"/><path d="M43.9 118.2c0.9-3.3 1.4-6.7 2-10.1 0.3-1.7 0.7-3.3 1.3-4.9 0.6-1.5 1.6-2.8 2.2-4.4 -0.1 0-0.1 0-0.2-0.1 -0.1 0-0.1-0.1-0.1-0.2l0 0c-0.5 1.3-1.3 2.4-1.9 3.5 -0.6 1.2-1 2.6-1.3 3.9 -0.7 2.7-1.1 5.5-1.6 8.3 -0.8 4.3-2.1 8.4-3.8 12.4 0.1 0.2 0.1 0.4 0.2 0.5 0.3-0.6 0.6-1.2 0.8-1.8C42.4 123.1 43.2 120.7 43.9 118.2z" class="candy-a"/><path d="M49.1 98.7c0.1-0.2 0.4-0.1 0.4 0.1 0 0.1 0 0.1-0.1 0.2 -0.1 0-0.1 0-0.2-0.1 -0.1 0-0.1-0.1-0.1-0.2C49.1 98.7 49.1 98.7 49.1 98.7z" class="candy-a"/><path d="M42.6 133.8c-0.2 1.5-0.2 3.1 0 4.6 0.4 3.6 2.5 6.7 4.6 9.5 0.1 0.2 0.5 0 0.3-0.2 -2.1-2.7-4-5.6-4.6-9 -0.2-1.4-0.2-2.8-0.1-4.1 0-0.2 0-0.5 0-0.7 -0.1-0.2-0.2-0.5-0.3-0.7C42.7 133.3 42.7 133.6 42.6 133.8z" class="candy-b"/><path d="M43.7 130.1c-0.6 0.9-0.8 1.9-1 3 0.1 0.3 0.2 0.5 0.3 0.7 0.1-1.2 0.3-2.5 1-3.5C44.1 130.1 43.8 129.9 43.7 130.1z" class="candy-b"/><path d="M135.3 144.1c-4.9 9.9-17.6 12.7-17.1 12 3.2-5.2 16.3-12.1 16.3-12.1s-15.1 6.9-29.9-2.6c-0.5-0.3 19.1-1.6 28.5 0.5 0.5 0.1-24.4-2.4-27.9-27.5 -0.1-0.4 4.7 4.2 17.8 12 5.6 3.3 8.9 8.6 10.3 11.3 0.5 1-11.7-21.4-2.3-48.4 0.2-0.6 5.1 11.7 7 22.2 2.4 13.1-0.9 25.9-0.8 25.6 1.7-6 8.6-15 15.9-20.6 4.7-3.6 7.1-7.8 7.1-7.4 2.6 23.2-27.7 36.2-21.4 32.4 6.3-3.8 27.7-7.1 26.7-6 -9.8 11.9-31.3 8.4-28.6 8.3 2.7-0.2 21.1 8.5 17.3 8.3 -14.7-0.9-18.3-8-18.3-8s-0.2 4.9 1.6 12.4c0.3 1.4-2.1 0-2.1 0S135.5 143.7 135.3 144.1z" fill="#55874B"/><path d="M131 89.3l4.6 53.6c0 0-7.1-13.5-8.1-27.5C126.5 101.3 131 89.3 131 89.3z" class="candy-c"/><path d="M105.3 114.5c0 0 11.2 16 30.3 28.3 0 0 0.3 0.2-0.2 0.2 -2.8-0.5-14.1-3.2-21.4-10.3C105.4 124.3 105.3 114.5 105.3 114.5z" class="candy-c"/><path d="M104.7 141.3c1.5 1.4 8.6 5.1 17.3 5.2 10.7 0.1 13.9-3.7 13.7-3.6C121.9 146.5 103.7 140.4 104.7 141.3z" class="candy-c"/><path d="M135.5 143.7c0 0-1.2 4.1-7.3 8.3 -6.1 4.3-9.9 4.1-9.9 4.1s7.5-4.3 9.5-5.7c2.7-1.9 7-5.4 7.9-7.5C135.8 142.4 135.5 143.7 135.5 143.7z" class="candy-c"/><path d="M135.4 144c0-0.2 0.2-1.6 0.2-1.3 -0.1 4.1 1.1 14.2 1.1 14.2s-0.5 0-1.3-0.5C135.3 156.3 135.6 148.4 135.4 144z" class="candy-c"/><path d="M160.1 109.1c-4.5 6.2-5.8 5.9-10.9 10.7 -4.7 4.4-11.9 12.8-13.6 22.7 0 0.3 0.1 0.1 0.1 0.3 0 0.3 6.5-5.9 13.2-15.7C155.6 117.3 160.8 108.1 160.1 109.1z" class="candy-c"/><path d="M135.6 142.9c13.6-1.7 13.6-1.6 16.5-2.5 3.7-1.1 13.4-5 13.4-5s0.9-1.2-15.7 2.2C141.7 139.3 135.6 142.9 135.6 142.9z" class="candy-c"/><path d="M135.8 142.8c-0.2-0.1 2.8 0.8 8.4 3.3 10.3 4.6 11.1 5.9 10.4 5.8 -2.2-0.5-11.1-3.9-12.3-4.5 -1.3-0.6-5.2-3.3-6.7-4.5C135.3 142.7 135.9 142.9 135.8 142.8z" class="candy-c"/><path d="M69.5 160.2c-13.4-0.6-21.4-13.2-26.5-26.4 0 0.2 0 0.5 0 0.7 -0.1 1.4-0.1 2.8 0.1 4.1 0.6 3.4 2.5 6.3 4.6 9 0.1 0.2-0.2 0.4-0.3 0.2 -2.1-2.8-4.2-5.9-4.6-9.5 -0.2-1.5-0.1-3.1 0-4.6 0-0.2 0.1-0.5 0.1-0.7 -0.7-1.9-1.5-4.6-2.1-6.5 -0.8 1.7-1.7 3.5-2.5 5.2 -1.1 2.3-2.5 4.3-1.4 7.9 0.8 2.6 3 4.9 4.8 6.9 3.5 4.1 7.6 7.4 11.5 11.1 2.2 2 4.4 4.2 6.9 5.8 2 1.3 4.3 3 5.9 4.3 2.8-1.5 6.2-5.5 8.4-8.3C72.7 160 70.8 160.3 69.5 160.2z" opacity="0.2"/><path d="M84.6 135.8c-1.7 3.5-0.7 7.3 0.6 10.7 1-1.6 3.3-5.1 3.3-5.2 -0.1-0.1-2.2-3.6-3.2-5.6C85.1 135.7 84.6 135.7 84.6 135.8z" class="candy-d"/><path d="M137.3 163.9c-2 0-3.9-0.1-5.8-0.3 -0.8 0.1-1.6-0.1-2.5-0.3 -1.4-0.3-30.1-16.3-42.3-26.9 -0.4-0.2-0.9-0.5-1.4-0.7 1.2 2.1 2.3 4.3 3.7 6.3 2.7 3.7 6.1 6.9 9.4 10.1 1.8 1.8 3.5 3.1 5.6 4.1 2.2 1.1 4.3 2 6.3 3.5 1.9 1.4 3.8 2.7 5.9 3.8 1.7 1 3.6 2 5.6 2.4 8 1.8 12.9 1.4 13.7 1.3 1-0.1 4.6-0.3 8.8-1.9C142.1 164.3 139.4 163.8 137.3 163.9z" class="candy-d"/></svg>
