<svg xmlns="http://www.w3.org/2000/svg" width="253" height="253" viewBox="0 0 253.4 253.4"><style>.cookie-a{fill:#3F2F15;}.cookie-b{fill:#FCFCFC;opacity:0.2;}.cookie-c{opacity:0.2;}.cookie-d{fill:#020202;}</style><circle cx="126.7" cy="126.9" r="126.7" fill="#F4F2DC"/><path d="M214.7 125.5c0 17.4-3.2 37.3-16 47.1 -16.4 12.6 11.9 8.7-41.4 35 -15.4 7.6-24 6.3-40.1 5 -19.9-1.6-32.7-8.2-46.4-22.7 -10.1-10.6-17.4-21.1-23-34.3 -5.9-14-4.7-16.1-4.2-31.4 0.5-15.7 4.2-32.7 7.9-36.2 3.9-3.6 3.4-9.6 6.6-13.7 4.1-5.2 10.7-7.1 14.3-12.7 12.9-20.3 26.8-20.3 47.2-23.2 24.3-3.4 50.7 9.5 54.1 18.7 2.3 6.2 10.6 4.3 14.8 9.5 3.4 4.3 15 9 17.2 15.3 2.1 6.1 4.5 13.5 7.4 20.6C215.8 109.5 214.7 117.7 214.7 125.5z" fill="#BC8031"/><path d="M183.2 122.9c0 4.4-4.4 7.9-9.8 7.9s-9.8-3.5-9.8-7.9c0-4.4 5.9-4.2 9.8-7.9C180.5 108.1 183.2 118.5 183.2 122.9z" class="cookie-a"/><path d="M113.5 185.4c0 3.9-2.1 11.3-9 7.1 -4.2-2.6-9-3.2-9-7.1 0-3.9 4.9-4.3 9-7.1C113.5 171.9 113.5 181.5 113.5 185.4z" class="cookie-a"/><path d="M66 154.3c-3.6 5.8 6.3 15-3.4 12.4 -1.8-0.5-1.2-5.9-3.4-12.4 -3.2-9.2-1.4-12.9 0.5-12.9S72.3 144 66 154.3z" class="cookie-a"/><path d="M75 131.3c0 2.5-1.7 2.6-8.4 2.6s-12.1-2-12.1-4.5 7.7-4.8 12.7-9.2C77.1 111.2 75 128.8 75 131.3z" class="cookie-a"/><path d="M143.6 96.7c0 3.6-5.1 6.6-11.3 6.6s-11.3-3-11.3-6.6c0-3.6 8.5-10.8 14.8-10.8S143.6 93.1 143.6 96.7z" class="cookie-a"/><path d="M129.3 150.3c2.5 3.2-4 7.4-9 7.4s-4.9-7.1-9-7.4c-6.3-0.5 4-7.4 9-7.4C125.3 142.9 123.5 142.9 129.3 150.3z" class="cookie-a"/><path d="M175.7 72.5c-4.4-8.5-11.1-10.4 0-13.7 10.8-3.2 6.8-1.9 11.2 6.7s2.4 15.4-3 18.2C178.5 86.6 180.2 81.1 175.7 72.5z" class="cookie-a"/><path d="M212.7 94.1c1.6 7.1-4.7 10.3-10.6 10.3 -5.8 0-13-12-10.6-10.3 8.4 6.1 4.7-10.3 10.6-10.3C208 83.8 211.1 87 212.7 94.1z" class="cookie-a"/><path d="M202.7 169c-4.8 4-4.8 7.7-10.8 7.7 -6 0-13.5 2.6-10.8-7.7 1.1-4.1 5.9-4.3 10.8-7.7C202.7 154 205.9 166.3 202.7 169z" class="cookie-a"/><path d="M86 67.2c0-3.1-1.3-8.7-8.4-8.7 -7.1 0-17.4 5.6-17.4 8.7 0 3.1 4.5 12.4 11.6 12.4C78.9 79.6 86 70.2 86 67.2z" class="cookie-a"/><path d="M170.5 155.1c-2.7 3.5-1.9 9.5-7.4 9.5s-10-3.5-10-7.9c0-4.4 2.5-9.8 7.9-11.1C174.7 142.4 177.4 146.1 170.5 155.1z" class="cookie-a"/><path d="M153.2 209.4c-19.8 8.7-55 3.6-72.8-10.3 -9.6-7.4-34.4-35.2-36.8-60.2 -0.9-9 0-24.2 2.4-34.4 5.5-24.1 6.1-11.1 9.1-21.8 3.6-12.7 5.5-8.4 7.3-11.6 0.6-1 1.6 52.3 25.3 86.6C111.4 192 156.7 207.9 153.2 209.4z" style="fill:#30302D;opacity:0.2"/><path d="M183.8 63.7c-0.5-1.8-1.3-4.1-3.1-4.6 -0.1 0-0.3 0-0.4 0 -0.2 0-0.4 0-0.6 0.1 -0.6 0.4-1.1 0.7-1.7 1.1 -0.2 0-0.4 0-0.6 0 -0.3 0-0.4 0.2-0.5 0.4 -0.3 0.1-0.7 0.2-1 0.4 0 0 0 0 0 0s0 0 0 0c0 0-0.1 0-0.2 0.1 -0.8 0.4-0.2 1.7 0.6 1.4 1.4-0.4 2.6 0.1 3.6 1 0.1 0.2 0.2 0.4 0.3 0.6 0.1 0.3 0.3 0.4 0.5 0.4 2.2 3.2 3.1 9.2 3.7 11.7 0.2 0.8 1.5 0.7 1.7 0C187.2 73.2 186 67.4 183.8 63.7z" class="cookie-b"/><path d="M206.7 87.2c-0.7-0.5-1.4 0.4-1.1 1.1 -0.1 0.2-0.2 0.4-0.1 0.6 1.1 3.9 0.6 7.7-0.8 11.5 -0.2 0.6 0.4 1 1 1C212.1 100.5 210.8 90 206.7 87.2z" class="cookie-b"/><path d="M201.9 91.9c-0.1-0.5-0.6-0.9-1.1-0.8 -0.3-0.1-0.6 0-0.8 0.4 -0.7 1.4-1.1 3-2 4.4 -0.1 0.1-0.1 0.3-0.1 0.4 -0.4 0.1-0.9 0.1-1.4 0 -1-0.2-1.4 1.3-0.4 1.5C199.9 98.6 202.3 95.4 201.9 91.9z" class="cookie-b"/><path d="M134.6 87.9c-0.9-0.1-1 1.1-0.4 1.5 0 0.1 0 0.2 0 0.3 0.4 3.2 2.1 6.6-0.2 9.5 -0.4 0.5-0.2 1.4 0.6 1.4 3.6-0.1 6.4-2.4 6.3-6.2C140.8 90.9 138 88.2 134.6 87.9z" class="cookie-b"/><path d="M125.9 98.3c-0.5-0.3-1-0.4-0.8-1.1 0.3-1-1.3-1.4-1.5-0.4 -0.4 1.4 0.3 2.3 1.6 2.9C126 100.1 126.8 98.8 125.9 98.3z" class="cookie-b"/><path d="M128.5 99.4h-0.7c-1 0-1 1.6 0 1.6h0.7C129.6 101 129.6 99.4 128.5 99.4z" class="cookie-b"/><path d="M74.8 60.6c-0.9 0-1 1.2-0.4 1.5 0 0.1 0 0.2 0 0.3 1.3 4.5 0.6 8.1-1.9 12.1 -0.3 0.4 0 1 0.5 1.2C80.9 77.8 86.3 60.1 74.8 60.6z" class="cookie-b"/><path d="M73.2 122.9c-0.2-0.7-1.3-0.8-1.5 0 -0.8 3.3-1.7 6.6-5.4 7.8 -0.9 0.3-0.7 1.5 0.2 1.6 0.2 0 0.3 0 0.5 0 0.1 0.2 0.2 0.3 0.5 0.4 2.3 0.6 4.7 0.3 5.9-2.1C74.6 128.2 74 125.2 73.2 122.9z" class="cookie-b"/><path d="M120.1 144.5c-0.8 0.2-0.7 1.1-0.2 1.4 -0.1 0.3 0 0.6 0.4 0.8 2.4 1.3 3.8 3.5 5.3 5.7 0.3 0.4 0.9 0.5 1.2 0.2C130.6 149.1 123.7 143.8 120.1 144.5z" class="cookie-b"/><path d="M176.4 115.2c-0.8 0.2-0.7 1.1-0.2 1.4 0 0 0 0.1 0 0.1 0.1 3 1.1 5.9 1.6 8.9 0.1 0.7 0.9 0.7 1.3 0.3C182.2 123.6 181.7 114 176.4 115.2z" class="cookie-b"/><path d="M168.5 147.3c-2.2-1.9-6-0.9-8.4 0 -0.8 0.3-0.6 1.4-0.1 1.5 0.1 0.2 0.3 0.4 0.7 0.4 2.8 0.1 5.1 1.8 5.1 4.8 0 0.6 0.9 1.1 1.4 0.6C168.7 152.7 171 149.3 168.5 147.3z" class="cookie-b"/><path d="M165.5 158c0 0.1 0 0.3 0 0.4 -0.3 0-0.5 0.1-0.7 0.4 -0.4 0.8-0.8 1.6-1.2 2.3 -0.3 0.6-0.5 1-0.5 1.6 0 0.6 0.7 1 1.2 0.7 2-1.3 2.7-3.1 2.8-5.4C167.1 156.9 165.5 156.9 165.5 158z" class="cookie-b"/><path d="M197.9 161.6c-4 0.5-7.1 3.2-11 3.9 -0.4 0.1-0.8 0.4-0.9 0.7 -0.2 0-0.3 0.1-0.5 0.1 -0.8 0.2-0.7 1.3 0 1.5 0.5 0.2 1 0.3 1.4 0.4 0.1 0.3 0.4 0.5 0.8 0.4 1.7-0.2 3.1-0.9 4.6-1.7 0 0 0 0 0.1-0.1 1-0.5 2.1-0.9 3.1-1 1.4 0.1 1.8 1.7 2.1 3 0.2 0.7 1.1 0.7 1.5 0.2 0.3 0 0.6-0.1 0.8-0.4C201.4 165.8 202.9 160.9 197.9 161.6z" class="cookie-b"/><path d="M110.7 181.9c-1.4-2.5-4.4-2.1-6.6-0.9 -0.8 0.4-0.3 1.5 0.4 1.5 -0.1 0.4 0.1 0.7 0.5 0.8 3.1 0.4 4.1 2.7 3.8 5.6 -0.1 0.8 1.1 1.1 1.5 0.4C111.5 187 111.9 184.2 110.7 181.9z" class="cookie-b"/><path d="M64.8 144.1c-0.1-0.3-0.4-0.4-0.6-0.4 -0.3-0.1-0.7-0.1-0.9 0C63.2 143.7 63 143.7 63 143.7v0.1c0 0 0.4 0 0.3 0 -0.1-1-0.2-0.2-0.2-0.3 -0.6-0.6-1.5 0-1.3 0.8 0 0.2 0.1 0.4 0.1 0.5 -0.1 0.2-0.2 0.4-0.1 0.6l1.2 4.7c0 0 0 0 0 0 0 0.3 0 0.6 0 1 0 0.1 0 0.2 0 0.2 -0.2 0.8 1 1.3 1.5 0.5C65.8 149.5 66 146.7 64.8 144.1z" class="cookie-b"/><g class="cookie-c"><path d="M74.2 132.4c1.3 3.3 2.6 6.9 2.1 10.5 0 0.3 0.4 0.3 0.4 0 0.5-3.6-0.8-7.3-2.1-10.6C74.5 132.1 74.2 132.2 74.2 132.4L74.2 132.4z" class="cookie-d"/></g><g class="cookie-c"><path d="M76.4 142.7c-2 1.1-3.8 3.1-3.3 5.5 0.1 0.3 0.4 0.1 0.4-0.1 -0.5-2.3 1.2-4.1 3.1-5.1C76.9 143 76.7 142.6 76.4 142.7L76.4 142.7z" class="cookie-d"/></g><g class="cookie-c"><path d="M67.5 147.3c1.2 0.5 2.5 0.6 3.8 0.6 0.3 0 0.3-0.4 0-0.4 -1.2 0-2.5 0-3.6-0.5C67.4 146.9 67.2 147.2 67.5 147.3L67.5 147.3z" class="cookie-d"/></g><g class="cookie-c"><path d="M63.7 167.8c0.5 2.3 0.5 4.6 1.1 6.9 0.1 0.2 0.4 0.1 0.4-0.1 -0.5-2.3-0.5-4.6-1.1-6.9C64 167.4 63.6 167.5 63.7 167.8L63.7 167.8z" class="cookie-d"/></g><g class="cookie-c"><path d="M66.3 168.9c0.4 0.8 0.5 1.6 0.5 2.5 0 0.3 0.4 0.3 0.4 0 0-1-0.1-1.8-0.6-2.7C66.6 168.5 66.2 168.7 66.3 168.9L66.3 168.9z" class="cookie-d"/></g><g class="cookie-c"><path d="M71.6 183.1c0.4 2.3 0.5 4.6 1.1 6.9 0.1 0.2 0.4 0.1 0.4-0.1 -0.5-2.3-0.6-4.6-1.1-6.9C71.9 182.7 71.6 182.8 71.6 183.1L71.6 183.1z" class="cookie-d"/></g><g class="cookie-c"><path d="M75.3 189.9c0.5 1.4 0.9 2.9 1.6 4.3 0.1 0.2 0.5 0 0.3-0.2 -0.6-1.3-1.1-2.8-1.6-4.2C75.6 189.6 75.2 189.7 75.3 189.9L75.3 189.9z" class="cookie-d"/></g><g class="cookie-c"><path d="M79 195.3c0.5 0.5 1.1 1.1 1.6 1.6 0.2 0.2 0.5-0.1 0.3-0.3 -0.5-0.5-1.1-1.1-1.6-1.6C79.1 194.9 78.9 195.1 79 195.3L79 195.3z" class="cookie-d"/></g><g class="cookie-c"><path d="M157.8 128.9c3.6 1 7.4 0.2 11.1 1.1 4.2 1 7.8 2.2 11 5.2 0.2 0.2 0.5-0.1 0.3-0.3 -2.8-2.6-6.1-4.2-9.8-5.1 -4.1-0.9-8.5-0.2-12.5-1.3C157.6 128.4 157.5 128.8 157.8 128.9L157.8 128.9z" class="cookie-d"/></g><g class="cookie-c"><path d="M196.9 103c4.5 0.1 6.7 3.6 8.3 7.3 0.1 0.2 0.4 0 0.3-0.2 -1.7-3.9-4-7.4-8.6-7.5C196.6 102.6 196.6 103 196.9 103L196.9 103z" class="cookie-d"/></g><g class="cookie-c"><path d="M191.5 89.3c1.6 1.1 2.6 2.7 3.1 4.6 0.1 0.2 0.4 0.1 0.4-0.1 -0.5-2-1.5-3.7-3.3-4.9C191.5 88.8 191.3 89.1 191.5 89.3L191.5 89.3z" class="cookie-d"/></g><g class="cookie-c"><path d="M169.9 73.4c2.1 1 4.4 1.4 6.3 2.6 0.2 0.1 0.4-0.2 0.2-0.3 -1.9-1.2-4.3-1.7-6.3-2.6C169.8 73 169.6 73.3 169.9 73.4L169.9 73.4z" class="cookie-d"/></g><g class="cookie-c"><path d="M174.2 80.8c1.5 0 2.9-0.1 4.3-0.5 0.2-0.1 0.1-0.5-0.1-0.4 -1.4 0.4-2.8 0.5-4.2 0.5C173.9 80.4 173.9 80.8 174.2 80.8L174.2 80.8z" class="cookie-d"/></g><g class="cookie-c"><path d="M180.4 85c0.3 0.7 0.6 1.7 0 2.4 -0.2 0.2 0.1 0.5 0.3 0.3 0.7-0.8 0.5-2 0-2.9C180.6 84.5 180.2 84.7 180.4 85L180.4 85z" class="cookie-d"/></g><g class="cookie-c"><path d="M170.4 80.2c3.3 3.3 6.3 6.5 10.6 8.5 0.2 0.1 0.4-0.2 0.2-0.3 -4.3-2-7.3-5.1-10.5-8.4C170.5 79.8 170.2 80.1 170.4 80.2L170.4 80.2z" class="cookie-d"/></g><g class="cookie-c"><path d="M184.6 88.7c0.4 0.4 0.5 0.9 0.5 1.4 0 0.3 0.4 0.3 0.4 0 0-0.7-0.1-1.2-0.6-1.7C184.7 88.2 184.4 88.5 184.6 88.7L184.6 88.7z" class="cookie-d"/></g><g class="cookie-c"><path d="M157.1 112.9c1.6 3.1 4.3 4.8 7.5 5.9 0.2 0.1 0.3-0.3 0.1-0.4 -3.1-1.1-5.7-2.7-7.3-5.7C157.4 112.5 157 112.7 157.1 112.9L157.1 112.9z" class="cookie-d"/></g><g class="cookie-c"><path d="M115.5 94c1.5 1 3.1 2 4.8 2.7 0.2 0.1 0.3-0.3 0.1-0.4 -1.7-0.6-3.2-1.6-4.7-2.6C115.5 93.5 115.3 93.9 115.5 94L115.5 94z" class="cookie-d"/></g><g class="cookie-c"><path d="M108.4 93.9c2.9-5.3 6.1-10.1 11-13.7 0.2-0.1 0-0.5-0.2-0.3 -5 3.6-8.2 8.4-11.2 13.8C107.9 94 108.3 94.2 108.4 93.9L108.4 93.9z" class="cookie-d"/></g><g class="cookie-c"><path d="M136.7 80.3c0.7 0 1.4 0 2 0.5 0.2 0.2 0.5-0.1 0.3-0.3 -0.6-0.5-1.5-0.6-2.3-0.6C136.5 79.9 136.5 80.3 136.7 80.3L136.7 80.3z" class="cookie-d"/></g><g class="cookie-c"><path d="M150.8 91.3c0.5 1.1 1 2.4 1 3.6 0 0.3 0.4 0.3 0.4 0 0-1.3-0.5-2.6-1.1-3.8C151 90.9 150.7 91.1 150.8 91.3L150.8 91.3z" class="cookie-d"/></g><g class="cookie-c"><path d="M114.4 119.8c2 3 4.2 5.8 7.5 7.5 0.2 0.1 0.4-0.2 0.2-0.3 -3.2-1.7-5.3-4.4-7.3-7.3C114.6 119.4 114.2 119.6 114.4 119.8L114.4 119.8z" class="cookie-d"/></g><g class="cookie-c"><path d="M137.1 142c0.5 0.5 1 1.3 1 2 0 0.3 0.4 0.3 0.4 0 0-0.8-0.6-1.7-1.1-2.2C137.2 141.5 136.9 141.8 137.1 142L137.1 142z" class="cookie-d"/></g><g class="cookie-c"><path d="M146.6 165.7c1.7 3.3 4.1 6.2 7.5 8 0.2 0.1 0.4-0.2 0.2-0.3 -3.3-1.7-5.6-4.6-7.3-7.8C146.8 165.3 146.5 165.5 146.6 165.7L146.6 165.7z" class="cookie-d"/></g><g class="cookie-c"><path d="M108.7 162.1c3.5-0.2 6.3-2.4 9.6-3.4 4.4-1.4 9.9 1.7 14.1 2.9 0.2 0.1 0.4-0.3 0.1-0.4 -4.2-1.1-8.3-3-12.7-3.2 -3.9-0.1-7.2 3.5-11.1 3.7C108.5 161.7 108.5 162.1 108.7 162.1L108.7 162.1z" class="cookie-d"/></g><g class="cookie-c"><path d="M130.7 153.5c0 0.5 0 1.1 0 1.6 0 0.3 0.4 0.3 0.4 0 0-0.5 0-1.1 0-1.6C131.1 153.2 130.7 153.2 130.7 153.5L130.7 153.5z" class="cookie-d"/></g><g class="cookie-c"><path d="M63.2 86.9c-1.2 1.7 1.7-0.8 2-1.1 1.3-1.1 2.6-2.2 3.9-3.2 2.5-1.9 5.3-3.3 8.5-3.4 0.3 0 0.3-0.4 0-0.4 -3.6 0.1-6.6 1.7-9.3 3.9 -1.7 1.3-3.3 2.7-5 4 -0.2 0.2-0.8 0.7-0.7 1 0 0.1 0.2 0.2 0.3 0.1 0.2-0.3 0.4-0.5 0.6-0.9C63.7 86.9 63.3 86.7 63.2 86.9L63.2 86.9z" class="cookie-d"/></g><g class="cookie-c"><path d="M84.7 74.3c0.1-6.8 3.7-12.5 8.4-17.3 0.2-0.2-0.1-0.5-0.3-0.3 -4.7 4.8-8.4 10.6-8.5 17.6C84.3 74.6 84.7 74.6 84.7 74.3L84.7 74.3z" class="cookie-d"/></g><g class="cookie-c"><path d="M94.4 75c0.5 0.6 0.7 1.4 1 2.1 0.1 0.2 0.5 0 0.3-0.2 -0.3-0.7-0.5-1.6-1.1-2.2C94.5 74.5 94.2 74.8 94.4 75L94.4 75z" class="cookie-d"/></g><g class="cookie-c"><path d="M70 100.8c0.5 0.9 0.9 1.9 1.6 2.7 0.2 0.2 0.5-0.1 0.3-0.3 -0.7-0.7-1.1-1.7-1.6-2.6C70.3 100.4 69.9 100.6 70 100.8L70 100.8z" class="cookie-d"/></g><g class="cookie-c"><path d="M77.4 103.3c0 0.6 0.2 0.7 0.7 0.7 0.3 0 0.3-0.4 0-0.4 -0.3 0-0.3 0-0.3-0.3C77.8 103.1 77.4 103.1 77.4 103.3L77.4 103.3z" class="cookie-d"/></g><g class="cookie-c"><path d="M51 106c0 1.3 0 2.6 0.6 3.8 0.1 0.2 0.4 0 0.3-0.2 -0.5-1.1-0.5-2.4-0.5-3.6C51.4 105.7 51 105.7 51 106L51 106z" class="cookie-d"/></g><g class="cookie-c"><path d="M47.3 114c0.5 1 1 2 1 3.1 0 0.3 0.4 0.3 0.4 0 0-1.2-0.6-2.2-1.1-3.3C47.6 113.6 47.2 113.8 47.3 114L47.3 114z" class="cookie-d"/></g><g class="cookie-c"><path d="M46.8 124.5c0.1 0.2 0.3 0.5 0.5 0.7 0.2 0.2 0.4 0 0.4-0.3 0-0.3-0.4-0.3-0.4 0 0.1 0 0.1 0 0.2 0 0 0-0.1-0.1-0.1-0.1 0-0.1-0.1-0.1-0.1-0.2 0-0.1-0.1-0.2-0.1-0.3C47 124.1 46.7 124.3 46.8 124.5L46.8 124.5z" class="cookie-d"/></g><g class="cookie-c"><path d="M208.8 140.8c0 2.2-0.6 4.3-1.6 6.2 -0.1 0.2 0.2 0.4 0.3 0.2 1-2 1.6-4.2 1.6-6.4C209.2 140.5 208.8 140.6 208.8 140.8L208.8 140.8z" class="cookie-d"/></g><g class="cookie-c"><path d="M208.3 150.8c0 0.3-0.2 0.6-0.2 0.9 0 0.1 0.1 0.3 0.2 0.2 0.2-0.1 0.3-0.4 0.4-0.5 0.1-0.2-0.2-0.4-0.3-0.2 0 0.1-0.1 0.2-0.1 0.3 -0.1 0.1-0.1 0.1 0 0.1 0.1 0.1 0.2 0.2 0.2 0.2 0.1-0.3 0.2-0.7 0.2-1C208.7 150.6 208.3 150.6 208.3 150.8L208.3 150.8z" class="cookie-d"/></g><g class="cookie-c"><path d="M111.8 208.5c1.1 0.6 2 1.5 3.2 2.1 0.2 0.1 0.4-0.2 0.2-0.3 -1.1-0.6-2-1.5-3.2-2.1C111.8 208.1 111.6 208.4 111.8 208.5L111.8 208.5z" class="cookie-d"/></g><g class="cookie-c"><path d="M172.4 193.6c0 1.4-0.4 2.8-1 4.1 -0.1 0.2 0.2 0.4 0.3 0.2 0.7-1.4 1.1-2.8 1.1-4.3C172.8 193.3 172.4 193.3 172.4 193.6L172.4 193.6z" class="cookie-d"/></g><g class="cookie-c"><path d="M177.7 192c0 0.3 0 0.6 0 0.9 0 0.3 0.4 0.3 0.4 0 0-0.1 0-0.2 0-0.4 0-0.3-0.4-0.3-0.4 0 0 0.1 0 0.2 0 0.4 0 0.3 0.4 0.3 0.4 0 0-0.3 0-0.6 0-0.9C178.1 191.7 177.7 191.7 177.7 192L177.7 192z" class="cookie-d"/></g><g class="cookie-c"><path d="M96.2 198.5c8.9-3.9 17.6-7.4 27.3-8.4 0.3 0 0.3-0.4 0-0.4 -9.8 1-18.6 4.5-27.5 8.5C95.7 198.3 95.9 198.6 96.2 198.5L96.2 198.5z" class="cookie-d"/></g><g class="cookie-c"><path d="M111 196.3c1-6 2.8-11.6 6.8-16.3 0.2-0.2-0.1-0.5-0.3-0.3 -4.1 4.7-5.9 10.4-6.9 16.4C110.6 196.4 111 196.5 111 196.3L111 196.3z" class="cookie-d"/></g><g class="cookie-c"><path d="M160.6 166.3c2.8-1.7 5.8-3.1 8.9-4.2 0.2-0.1 0.1-0.5-0.1-0.4 -3.2 1.1-6.1 2.5-9 4.2C160.2 166.1 160.4 166.4 160.6 166.3L160.6 166.3z" class="cookie-d"/></g><g class="cookie-c"><path d="M149.4 160c1.5 0 2.9-0.6 4.3-1.1 0.2-0.1 0.1-0.5-0.1-0.4 -1.4 0.5-2.7 1-4.2 1C149.1 159.6 149.1 160 149.4 160L149.4 160z" class="cookie-d"/></g><g class="cookie-c"><path d="M152.9 150.4c0.2 0.2 0.3 0.4 0.5 0.6 0.1 0.1 0.1 0.2 0.2 0.3 0.1 0.2 0.4 0.1 0.2-0.1 -0.2-0.2-0.5 0.1-0.3 0.3 0.1 0.1 0.2 0.2 0.3 0.2 0.1 0 0.1 0 0.2-0.1 0.2-0.4-0.5-1.2-0.8-1.4C153 150 152.8 150.3 152.9 150.4L152.9 150.4z" class="cookie-d"/></g><g class="cookie-c"><path d="M173.5 156.3c0.2 0.2 0.4 0.4 0.5 0.5 0.2 0.2 0.5-0.1 0.3-0.3 -0.2-0.2-0.4-0.4-0.5-0.5C173.6 155.8 173.3 156.1 173.5 156.3L173.5 156.3z" class="cookie-d"/></g><g class="cookie-c"><path d="M185.1 158.9c1 1 1.6 2.2 2.1 3.6 0.1 0.2 0.5 0.1 0.4-0.1 -0.5-1.4-1.1-2.7-2.2-3.8C185.2 158.4 185 158.7 185.1 158.9L185.1 158.9z" class="cookie-d"/></g><g class="cookie-c"><path d="M194.1 159.3c0 0.5 0.3 0.9 0.6 1.2 0.2 0.2 0.5-0.1 0.3-0.3 -0.2-0.2-0.4-0.6-0.5-0.9C194.4 159 194 159 194.1 159.3L194.1 159.3z" class="cookie-d"/></g></svg>
