<svg xmlns="http://www.w3.org/2000/svg" width="393" height="294" viewBox="0 0 393 293.7"><style>.copy-a{fill:#FF4A81;}</style><path d="M55.9 1.4c2.3 0 3.6 0.1 3.9 0.3 0.3 0.2 2.3 5.8 6.1 17s6.3 18.3 7.7 21.5h2.7c0.2 0.6 0.4 1.2 0.4 1.8 0 0.5-0.1 0.9-0.3 1.1s-0.6 0.3-1.1 0.3H62.6c-0.3-0.7-0.4-1.3-0.4-1.9 0-0.4 0.1-0.7 0.3-0.9s0.6-0.3 1-0.3h1.6c-0.4-1.8-1.4-5.3-2.9-10.4H48.6c-1.4 5.1-2.3 8.5-2.6 10.4h2.8c0.2 0.6 0.4 1.2 0.4 1.8 0 0.5-0.1 0.9-0.3 1.1 -0.2 0.2-0.6 0.3-1.1 0.3H36.7c-0.2-0.7-0.4-1.3-0.4-1.9 0-0.4 0.1-0.7 0.3-0.9 0.2-0.2 0.6-0.3 1-0.3h1.8c1.3-3.7 3.6-10.3 6.7-20 3.1-9.6 5-15.2 5.7-16.6C52.6 2.1 54 1.4 55.9 1.4zM49.7 25.8h11.4C57.5 14.1 55.5 8.3 55.2 8.3 54.9 8.3 53.1 14.1 49.7 25.8z" class="copy-a"/><path d="M83.2 25.9c0-8.6 0-14-0.1-16.4C83 7.2 82.9 5.7 82.6 5c-0.2-0.7-0.6-1.2-1-1.4 -0.5-0.2-1.1-0.3-1.9-0.3 -0.3-0.6-0.4-1.2-0.4-1.9 0-0.6 0.3-1 0.8-1.2C80.6 0.1 82.2 0 85.1 0c1.6 0 2.7 0.1 3.3 0.2 0.6 0.2 0.9 0.4 1 0.9 0.1 0.4 0.1 1.1 0.1 2.1v25.4c0 4.9 0.1 8.7 0.2 11.5h3.4c0.2 0.5 0.4 1.1 0.4 1.7 0 0.5-0.1 0.9-0.3 1.1 -0.2 0.2-0.6 0.3-1.3 0.3H79.7c-0.3-0.6-0.4-1.3-0.4-1.8 0-0.4 0.1-0.8 0.3-1 0.2-0.2 0.6-0.3 1.1-0.3h2.2C83.1 37.3 83.2 32.6 83.2 25.9z" class="copy-a"/><path d="M101.5 25.9c0-8.6 0-14-0.1-16.4 -0.1-2.3-0.2-3.9-0.4-4.6 -0.2-0.7-0.6-1.2-1-1.4C99.5 3.4 98.8 3.3 98 3.3c-0.3-0.6-0.4-1.2-0.4-1.9 0-0.6 0.3-1 0.8-1.2C98.9 0.1 100.6 0 103.4 0c1.6 0 2.7 0.1 3.3 0.2 0.6 0.2 0.9 0.4 1 0.9 0.1 0.4 0.1 1.1 0.1 2.1v25.4c0 4.9 0.1 8.7 0.2 11.5h3.4c0.2 0.5 0.4 1.1 0.4 1.7 0 0.5-0.1 0.9-0.3 1.1 -0.2 0.2-0.6 0.3-1.3 0.3H98c-0.3-0.6-0.4-1.3-0.4-1.8 0-0.4 0.1-0.8 0.3-1 0.2-0.2 0.6-0.3 1.1-0.3h2.2C101.5 37.3 101.5 32.6 101.5 25.9z" class="copy-a"/><path d="M129.3 43.9c-4.4 0-7.6-1.2-9.7-3.5 -2.1-2.3-3.1-5.8-3.1-10.5 0-5.4 1.3-9.6 3.8-12.6 2.5-3 6.1-4.5 10.8-4.5 4.4 0 7.6 1.2 9.7 3.5 2.1 2.3 3.1 5.9 3.1 10.6 0 5.4-1.2 9.6-3.7 12.6S134 43.9 129.3 43.9zM130.5 39.8c2.3 0 4-0.9 5-2.6 1-1.7 1.6-4.4 1.6-8 0-4.2-0.5-7.3-1.6-9.3 -1.1-2-2.9-3-5.5-3 -2.3 0-4 0.9-5 2.6 -1 1.7-1.5 4.4-1.5 8.1 0 4.1 0.5 7.2 1.6 9.3C126 38.8 127.9 39.8 130.5 39.8z" class="copy-a"/><path d="M191.9 16.9c-0.7 2-2.1 6.6-4.3 13.7 -2.2 7.1-3.7 11.1-4.4 11.9 -0.7 0.8-1.8 1.3-3.1 1.3 -2 0-3.1-0.1-3.3-0.3 -0.2-0.2-1.1-4.2-2.8-11.9 -1.7-7.7-2.6-11.6-2.8-11.6 -0.2 0-1.1 3.5-2.7 10.6 -1.6 7.1-2.8 11.1-3.6 11.9 -0.7 0.8-1.7 1.3-3 1.3 -2.5 0-3.9-0.1-4.1-0.3 -0.2-0.2-1.1-3.8-2.8-10.7 -1.6-6.9-2.7-11-3.1-12.4 -0.4-1.3-0.8-2.3-1.2-2.8 -0.4-0.5-0.7-0.9-1.1-1 -0.4-0.1-0.9-0.2-1.6-0.2 -0.3-0.6-0.4-1.2-0.4-1.8 0-0.7 0.3-1.1 0.9-1.2 0.6-0.2 2.1-0.2 4.6-0.2 1.5 0 2.5 0.1 3 0.3 0.6 0.2 1 0.6 1.2 1.1 0.2 0.5 0.5 1.7 0.8 3.6 0.3 1.9 1.1 5.7 2.3 11.6 1.2 5.9 1.9 8.8 2.1 8.8s1-3.3 2.6-10c1.5-6.7 2.6-11.7 3.2-15.1 3.7-0.1 5.8-0.1 6.4 0.1 0.6 0.2 1 0.5 1.2 1 0.3 0.5 0.5 1.7 0.9 3.6 0.3 1.9 1.1 5.8 2.4 11.7 1.3 5.9 2 8.9 2.2 8.9s1-3.1 2.6-9.3c1.5-6.2 2.4-10.3 2.6-12.3h-1.7c-0.3-0.6-0.4-1.2-0.4-1.8s0.1-1 0.3-1.3c0.2-0.2 0.6-0.4 1.2-0.4h7.9c0.3 0.6 0.4 1.2 0.4 1.8 0 0.6-0.1 1.1-0.4 1.3 -0.3 0.2-0.7 0.3-1.4 0.3H191.9z" class="copy-a"/><path d="M240.6 31.1c0 4.1 0.2 6.6 0.5 7.5 0.3 0.9 1 1.3 1.9 1.2 0.2 0.5 0.4 1 0.4 1.4 0 0.7-0.6 1.3-1.7 1.7 -1.2 0.4-2.3 0.6-3.4 0.6 -0.7 0-1.2-0.1-1.5-0.4s-0.8-1.1-1.5-2.3c-1.6 0.9-3.3 1.7-5 2.2 -1.7 0.5-3.5 0.8-5.5 0.8 -2.5 0-4.5-0.7-5.8-2.1 -1.4-1.4-2.1-3.9-2.1-7.6 0-7.2 0-11.6-0.1-13.2 -0.1-1.5-0.2-2.6-0.5-3.2s-0.6-1-1-1.1c-0.4-0.1-0.9-0.2-1.4-0.2 -0.3-0.4-0.4-0.9-0.4-1.4 0-0.7 0.5-1.2 1.5-1.5 1-0.3 2.4-0.4 4.1-0.4 1.4 0 2.4 0.1 2.9 0.3 0.5 0.2 0.8 0.5 1 0.9 0.1 0.4 0.2 1.7 0.2 4V29.8c0 4.2 0.5 6.9 1.4 8.1 0.9 1.3 2.2 1.9 3.8 1.9 1.2 0 2.3-0.2 3.4-0.7 1.1-0.5 1.8-1.2 2.2-2 0.4-0.9 0.6-2.6 0.6-5 0-5.8 0-9.4-0.1-10.9 -0.1-1.5-0.2-2.6-0.4-3.2 -0.2-0.6-0.5-1-0.9-1.2 -0.4-0.1-0.9-0.2-1.5-0.2 -0.3-0.4-0.4-0.9-0.4-1.4 0-0.7 0.5-1.2 1.6-1.5 1-0.3 2.3-0.4 3.9-0.4 1.4 0 2.4 0.1 2.9 0.3 0.5 0.2 0.8 0.5 1 0.9 0.1 0.4 0.2 1.8 0.2 4.1V31.1z" class="copy-a"/><path d="M256.4 13.2c0.1 0.9 0.1 1.7 0 2.7 1.5-0.9 3.1-1.7 4.8-2.3 1.7-0.6 3.7-0.9 5.8-0.9 3.7 0 6.4 1 8.2 3 1.8 2 2.7 5.4 2.7 10.1 0 6.1-1.2 10.6-3.7 13.6 -2.4 2.9-6 4.4-10.8 4.4 -1.3 0-2.4-0.1-3.3-0.2 -0.9-0.1-1.6-0.3-2.2-0.5 0 3.9 0.1 7.3 0.2 10.3h4c0.2 0.5 0.4 1.1 0.4 1.7 0 0.5-0.1 0.9-0.3 1.1 -0.2 0.2-0.6 0.3-1.3 0.3H248.4c-0.3-0.6-0.4-1.3-0.4-1.8 0-0.4 0.1-0.8 0.3-1 0.2-0.2 0.6-0.3 1.1-0.3h2.1c0.2-3 0.2-7.1 0.2-12.3V28.3c0-6-0.2-9.4-0.7-10.4 -0.5-1-1.4-1.4-2.7-1.4 -0.3-0.6-0.4-1.2-0.4-1.8 0-0.5 0.2-0.9 0.6-1C249.1 13.5 251.7 13.4 256.4 13.2zM258 38.1c0.7 0.5 1.6 0.9 2.6 1.2 1 0.3 2.1 0.5 3.4 0.5 2.7 0 4.6-0.8 5.6-2.5 1-1.6 1.6-4.5 1.6-8.5 0-4.4-0.5-7.5-1.6-9.3s-2.8-2.7-5.2-2.7c-1.2 0-2.3 0.2-3.3 0.7 -1 0.5-1.7 1.3-2.2 2.4 -0.5 1.1-0.8 2.6-0.8 4.6V38.1z" class="copy-a"/><path d="M300.7 13.5h2.1l2.5-8.6c0.9 0.3 1.6 0.6 2.2 0.9 0.6 0.4 1 0.8 1.3 1.3 0.3 0.5 0.4 2.2 0.4 5.1v1.2h10c0.2 0.7 0.4 1.4 0.4 2.1 0 0.6-0.1 1-0.3 1.2 -0.2 0.2-0.7 0.3-1.3 0.3h-8.7V31.5c0 3.4 0.3 5.7 0.9 6.8s1.6 1.7 2.8 1.7c1.3 0.1 2.8-0.4 4.7-1.2 0.4 0.7 0.7 1.4 0.7 2.2 0 1.1-0.6 1.8-1.8 2.2 -1.2 0.4-3.1 0.5-5.6 0.5 -2.8 0-4.8-0.6-6.1-1.7 -1.3-1.1-1.9-3.2-1.9-6.3v-7.1c0-3.9-0.1-7.7-0.3-11.3h-3c-0.2-0.7-0.4-1.4-0.4-2.1 0-0.5 0.1-0.9 0.3-1.1C299.8 13.6 300.1 13.5 300.7 13.5z" class="copy-a"/><path d="M336.6 43.9c-4.4 0-7.6-1.2-9.7-3.5 -2.1-2.3-3.1-5.8-3.1-10.5 0-5.4 1.3-9.6 3.8-12.6 2.5-3 6.1-4.5 10.8-4.5 4.4 0 7.6 1.2 9.7 3.5 2.1 2.3 3.1 5.9 3.1 10.6 0 5.4-1.2 9.6-3.7 12.6S341.3 43.9 336.6 43.9zM337.7 39.8c2.3 0 4-0.9 5-2.6 1-1.7 1.6-4.4 1.6-8 0-4.2-0.5-7.3-1.6-9.3 -1.1-2-2.9-3-5.5-3 -2.3 0-4 0.9-5 2.6 -1 1.7-1.5 4.4-1.5 8.1 0 4.1 0.5 7.2 1.6 9.3C333.3 38.8 335.1 39.8 337.7 39.8z" class="copy-a"/><path d="M26.9 150.1c0.2-5.8 0.3-22.7 0.3-50.7 0-5.4-0.1-9.1-0.2-11.2 -0.2-2.1-0.5-3.7-1.1-4.8s-1.4-1.8-2.6-2.2c-1.2-0.4-3.4-0.6-6.5-0.6h-6c-0.8-1.5-1.2-2.9-1.2-4.4 0-3.4 4-5.9 12-7.6 8-1.7 14-2.6 17.9-2.6 2.6 0 4.5 0.3 5.6 0.8 1.1 0.5 1.9 1.5 2.4 2.8 0.5 1.3 0.7 3.4 0.7 6.1v28.5c0 24.7 0.1 40 0.3 45.8h16.6c0.8 1.5 1.2 3.2 1.2 5.1 0 1.6-0.3 2.7-1 3.4 -0.7 0.6-2 1-3.9 1h-50.8c-0.8-1.9-1.2-3.7-1.2-5.4 0-1.4 0.3-2.4 1-3 0.6-0.6 1.7-0.9 3.1-0.9H26.9z" class="copy-a"/><path d="M154.2 66.1c0.8 2 1.2 4.2 1.2 6.6 0 1.8-0.4 3-1.2 3.8 -0.8 0.7-2.1 1.1-4.1 1.1h-35.3l-2.1 25.9c6-1.2 11.5-1.8 16.6-1.8 8.9 0 15.9 2 21.1 5.9s7.7 10.4 7.7 19.4c0 10.1-3.9 18.3-11.7 24.6 -7.8 6.3-19.6 9.4-35.4 9.4 -8.9 0-14.7-0.6-17.3-1.9 -2.6-1.3-3.9-3.6-3.9-6.8 0-3.1 1.2-6.2 3.6-9.4 8.5 4.1 15.9 6.1 22.1 6.1 6.6 0 11.4-1.4 14.4-4.3 3-2.9 4.5-7 4.5-12.4 0-6.3-1.5-10.8-4.4-13.5 -2.9-2.7-6.8-4.1-11.5-4.1 -3.9 0-8.1 0.8-12.5 2.3H95.4c-1.6-1.9-2.2-4.8-2-8.6l2.2-34.2c0.1-3 0.7-5 1.8-6.2 1.1-1.2 2.8-1.8 5.1-1.8H154.2z" class="copy-a"/><path d="M178.7 116h35.7c0.8 2 1.2 4.6 1.2 7.9 0 2.2-0.4 3.8-1.2 4.8 -0.8 0.9-2.2 1.4-4.1 1.4h-35c-0.8-2.5-1.2-5.1-1.2-7.9 0-2.5 0.4-4.1 1.2-4.9C176.2 116.4 177.3 116 178.7 116z" class="copy-a"/><path d="M258.4 123.4c-11.5 0-19.6-2.2-24.4-6.5 -4.8-4.3-7.2-10.5-7.2-18.6 0-9.9 3.5-18 10.5-24.2 7-6.3 16.6-9.4 28.8-9.4 12.6 0 21.6 3 27.1 9.1 5.5 6.1 8.2 16 8.2 29.9 0 19.6-4.3 34-12.9 43.3 -8.6 9.3-22.6 13.9-42.1 13.9 -8.6 0-13.8-0.5-15.5-1.6 -1.8-1-2.7-2.9-2.7-5.6 0-3.3 1.1-6.5 3.4-9.6 5.8 2.4 11.8 3.6 17.9 3.6 9.6 0 16.7-2.4 21.4-7.3 3.2-3.4 5.3-10.1 6.3-20.1C271.1 122.3 264.8 123.4 258.4 123.4zM277.9 105.8c0-9.2-1.3-16.2-3.8-20.9 -2.6-4.7-6.6-7.1-12.2-7.1 -4.2 0-7.2 1.2-8.9 3.6 -1.7 2.4-2.5 5.9-2.5 10.5 0 7.3 2 12.3 5.9 15.1 3.9 2.8 11.1 3.8 21.5 2.8C277.9 108.6 277.9 107.3 277.9 105.8z" class="copy-a"/><path d="M349.5 160.9c-11.4 0-20.2-2.9-26.5-8.7 -6.3-5.8-9.4-16.9-9.4-33.3 0-18.6 3.7-32.3 11.1-41 7.4-8.7 18.2-13.1 32.5-13.1 11.4 0 20.2 2.9 26.5 8.7 6.3 5.8 9.4 17.1 9.4 33.8 0 18.3-3.7 31.8-11.1 40.6C374.5 156.5 363.7 160.9 349.5 160.9zM352.6 77.8c-4.8 0-8.6 2.1-11.3 6.4 -2.7 4.3-4.1 12.8-4.1 25.4 0 15.7 1.4 25.9 4.3 30.8 2.9 4.9 7.1 7.3 12.6 7.3 5.2 0 9-2.1 11.5-6.4 2.5-4.3 3.8-12.6 3.8-25 0-15.5-1.5-25.8-4.4-30.8C362 80.4 357.8 77.8 352.6 77.8z" class="copy-a"/><path d="M50.4 214.9c0 12 0.1 20 0.3 24.1h5.5c0.6 1.1 0.9 2.4 0.9 3.8 0 1.2-0.2 2-0.7 2.5 -0.5 0.5-1.4 0.7-2.9 0.7H32.5c-0.6-1.4-0.9-2.8-0.9-4 0-1 0.2-1.8 0.7-2.3 0.5-0.5 1.2-0.7 2.3-0.7h1.3c0.2-5.9 0.3-11.8 0.3-17.6 0-6.9-0.6-11.5-1.9-13.9 -1.3-2.4-3.3-3.5-6.2-3.5 -1.7 0-3.3 0.7-4.7 2.1s-2.1 4.3-2.1 8.8v10.2c0 4.3 0.1 8.9 0.3 13.9h3.7c0.6 1.1 0.9 2.4 0.9 3.8 0 1.2-0.2 2-0.7 2.5 -0.5 0.5-1.4 0.7-2.9 0.7H0.9C0.3 244.5 0 243.1 0 241.9c0-1 0.2-1.8 0.7-2.3 0.5-0.5 1.2-0.7 2.3-0.7h3.7c0.2-5.6 0.3-11.4 0.3-17.3 0-9.5-0.4-15.1-1.3-16.8 -0.9-1.7-2.5-2.6-4.7-2.6C0.3 200.9 0 199.5 0 198.2c0-1.2 0.4-2 1.3-2.4 0.9-0.4 6.5-0.7 16.8-1 0.2 1.4 0.2 3.4 0 5.8 3.7-2.3 7.2-3.9 10.4-4.9 3.2-1 6.1-1.4 8.5-1.4 3.4 0 5.9 0.5 7.7 1.5 1.8 1 3.1 2.4 3.8 4.1 3-1.9 6.1-3.3 9.3-4.2 3.2-0.9 5.9-1.4 8.2-1.4 4.4 0 7.8 1.1 10.1 3.1 2.3 2.1 3.5 6.3 3.5 12.7 0 16.7 0.3 25.6 0.9 26.9 0.6 1.3 1.9 1.9 4 1.9 0.5 1.2 0.8 2.5 0.8 3.8 0 1.2-0.4 2-1.2 2.5 -0.8 0.4-2.3 0.7-4.5 0.7 -5.5 0-9-0.1-10.4-0.3 -1.5-0.2-2.5-0.7-3-1.6 -0.5-0.9-0.8-2.5-0.8-4.7v-17.9c0-6.9-0.6-11.5-1.9-13.9 -1.3-2.4-3.3-3.5-6.2-3.5 -1.7 0-3.3 0.7-4.7 2.1C51.1 207.5 50.4 210.4 50.4 214.9z" class="copy-a"/><path d="M113.1 238.9h6c0.6 1.1 0.9 2.4 0.9 3.8 0 1.2-0.2 2-0.7 2.5 -0.5 0.5-1.4 0.7-2.9 0.7H91.9c-0.6-1.4-0.9-2.8-0.9-4 0-1 0.2-1.8 0.7-2.3 0.5-0.5 1.2-0.7 2.3-0.7h4.2c0.2-4.3 0.3-9 0.3-13.9 0-7.5-0.1-12.5-0.2-14.9 -0.1-2.5-0.4-4.2-0.8-5.4 -0.4-1.1-1-1.8-1.9-2.1 -0.8-0.3-2.1-0.4-3.7-0.4 -0.6-0.9-0.9-2-0.9-3.3 0-1.9 0.8-3.1 2.3-3.5 1.6-0.4 4.7-0.7 9.5-0.7 3.6 0 6 0.1 7.3 0.4 1.3 0.3 2 0.8 2.2 1.6 0.2 0.8 0.3 1.9 0.3 3.3v25C112.8 230 112.9 234.6 113.1 238.9zM103.8 188.2c-3 0-5.2-0.6-6.6-1.8 -1.4-1.2-2-2.8-2-5 0-2.2 0.9-4.1 2.6-5.5 1.7-1.4 4.2-2.2 7.4-2.2 3.3 0 5.6 0.6 6.9 1.9 1.4 1.2 2 2.9 2 4.9 0 2.2-0.8 4-2.4 5.5C110 187.4 107.4 188.2 103.8 188.2z" class="copy-a"/><path d="M143.6 200.6c3.7-2.3 7.2-3.9 10.6-4.9s6.3-1.4 8.6-1.4c4.8 0 8.3 1.1 10.6 3.1 2.3 2.1 3.5 6.3 3.5 12.7 0 16.7 0.3 25.6 0.9 26.9 0.6 1.3 1.9 1.9 4 1.9 0.5 1.2 0.8 2.5 0.8 3.8 0 1.2-0.4 2-1.2 2.5 -0.8 0.4-2.3 0.7-4.5 0.7 -5.5 0-9-0.1-10.4-0.3 -1.5-0.2-2.5-0.7-3-1.6 -0.5-0.9-0.8-2.5-0.8-4.7v-17.9c0-6.9-0.6-11.5-1.9-13.9 -1.3-2.4-3.3-3.5-6.2-3.5 -2.4 0-4.3 0.7-5.7 2.1s-2.1 4.3-2.1 8.8v10.2c0 4.3 0.1 8.9 0.3 13.9h6c0.6 1.1 0.9 2.4 0.9 3.8 0 1.2-0.2 2-0.7 2.5 -0.5 0.5-1.4 0.7-2.9 0.7H126.4c-0.6-1.4-0.9-2.8-0.9-4 0-1 0.2-1.8 0.7-2.3 0.5-0.5 1.2-0.7 2.3-0.7h3.7c0.2-5.6 0.3-11.4 0.3-17.3 0-9.5-0.4-15.1-1.3-16.8 -0.9-1.7-2.5-2.6-4.7-2.6 -0.6-1.4-0.9-2.7-0.9-4.1 0-1.2 0.4-2 1.3-2.4 0.9-0.4 6.5-0.7 16.8-1C143.8 196.2 143.8 198.1 143.6 200.6z" class="copy-a"/><path d="M237.1 223.5c0 6.7 0.2 10.9 0.7 12.5 0.5 1.6 1.7 2.3 3.7 2.2 0.5 1.1 0.7 2.2 0.7 3.2 0 1.7-1.2 2.9-3.7 3.8 -2.5 0.9-4.7 1.3-6.8 1.3 -1.6 0-2.7-0.2-3.4-0.7 -0.6-0.5-1.6-1.7-3-3.7 -3.1 1.6-6.2 2.8-9.1 3.7s-6 1.3-9.3 1.3c-4.3 0-7.7-1.1-10.2-3.4 -2.5-2.3-3.7-6.9-3.7-13.9 0-10.5-0.1-16.9-0.2-19.4 -0.1-2.5-0.4-4.2-0.8-5.4 -0.4-1.1-0.9-1.8-1.6-2.1 -0.7-0.3-1.7-0.4-2.9-0.4 -0.6-0.9-0.9-2-0.9-3.3 0-1.6 0.9-2.6 2.8-3.3s4.9-0.9 9-0.9c2.9 0 5 0.2 6.2 0.5 1.2 0.4 2 0.9 2.3 1.6 0.3 0.7 0.4 3.1 0.4 7.2v18.1c0 6.6 0.6 10.9 1.9 13 1.3 2 3 3 5.3 3 1.7 0 3.3-0.4 4.8-1.1 1.5-0.8 2.4-1.8 2.7-3 0.4-1.2 0.6-3.5 0.6-6.7 0-9 0-14.7-0.1-17.1 0-2.4-0.2-4.2-0.6-5.4 -0.3-1.1-0.8-1.9-1.3-2.2 -0.5-0.3-1.4-0.4-2.7-0.4 -0.6-0.9-0.9-2-0.9-3.3 0-1.6 1-2.6 2.9-3.3s4.6-0.9 8.1-0.9c2.9 0 5 0.2 6.2 0.5 1.2 0.4 2 1 2.3 1.8 0.3 0.9 0.4 3.3 0.4 7.4V223.5z" class="copy-a"/><path d="M251.5 195.7h3.6l5-15.3c1.7 0.5 3.3 1.2 4.8 2 1.5 0.8 2.6 1.7 3.4 2.8 0.8 1.1 1.1 3.6 1.1 7.8v2.7h17.2c0.6 1.4 0.9 2.8 0.9 4.3 0 1.3-0.2 2.2-0.7 2.6 -0.5 0.4-1.4 0.7-2.7 0.7h-14.6v20.1c0 5.8 0.5 9.8 1.5 11.9 1 2.1 2.6 3.2 4.9 3.3 2.3 0.1 5.1-0.7 8.4-2.4 1 1.3 1.5 2.8 1.5 4.5 0 2.3-1.2 3.9-3.6 4.6s-6.2 1.2-11.3 1.2c-5.6 0-9.6-1.1-12-3.4 -2.4-2.2-3.6-6.6-3.6-13v-8.8c0-5.6-0.2-11.6-0.5-18h-5.2c-0.6-1.5-0.9-2.9-0.9-4.4 0-1.2 0.2-2 0.7-2.4C249.7 195.9 250.5 195.7 251.5 195.7z" class="copy-a"/><path d="M318.8 194.2c7 0 12.2 1.6 15.3 4.8 3.2 3.2 4.8 8.3 4.8 15.2 0 3.4-0.7 5.9-2 7.3s-4.3 2.2-8.9 2.2h-18.9c0.1 4.4 1.1 7.9 3 10.4 1.9 2.5 5.2 3.8 10 3.8 4.7 0 9.5-1.4 14.4-4.1 1.8 1.7 2.6 3.6 2.6 5.6 0 2.7-2 4.6-6 5.7 -4 1.1-8.6 1.6-14 1.6 -9.2 0-15.9-1.9-20.1-5.6 -4.2-3.7-6.2-9.9-6.2-18.4 0-8.9 2.3-15.9 7-20.9C304.6 196.7 310.9 194.2 318.8 194.2zM316.8 203c-2.5 0-4.4 1-5.7 3 -1.3 2-2 5.6-2 10.6h2.7c3.8 0 6.6-0.1 8.6-0.3 2-0.2 3.1-0.6 3.5-1.1 0.3-0.5 0.5-1.4 0.5-2.6 0-3-0.7-5.4-2-7.1C321 203.8 319.1 203 316.8 203z" class="copy-a"/><path d="M371.7 194.2c5.1 0 9.1 0.5 11.8 1.4 2.8 1 4.2 2.6 4.2 4.9 0 2.4-1 4.8-2.9 7.3 -7.3-3.2-12.9-4.8-16.8-4.8 -2.1 0-3.6 0.4-4.6 1.2 -1 0.8-1.5 1.9-1.5 3.4 0 1.5 0.7 2.8 2 4 1.3 1.1 4.4 2.5 9.3 4.3 5.7 1.9 9.7 4 12.1 6.4 2.4 2.3 3.6 5.3 3.6 9.1 0 5.1-2.1 9-6.2 11.7 -4.1 2.7-9.8 4.1-16.8 4.1 -6.5 0-11.2-0.4-14-1.3 -2.8-0.9-4.2-2.7-4.2-5.6 0-2.1 0.8-4.2 2.5-6.2 6.7 2.9 12.7 4.3 17.9 4.3 2.1 0 3.8-0.4 5-1.1 1.2-0.7 1.8-1.9 1.8-3.6 0-1.9-1-3.5-3.1-4.6 -2.1-1.2-5.4-2.6-10-4.4 -4.9-1.9-8.5-3.9-10.6-6.1 -2.1-2.2-3.2-5-3.2-8.4 0-4.8 2.1-8.6 6.3-11.5C358.3 195.6 364.2 194.2 371.7 194.2z" class="copy-a"/><text transform="matrix(1 0 0 1 25.7788 286.8926)" font-family="'Gotham-Book'" font-size="28" class="copy-a">  for edibles to take effect</text></svg>
