<svg xmlns="http://www.w3.org/2000/svg" width="121" height="134" viewBox="0 0 120.9 134.2"><style>.leaf{fill:#78A56D;}</style><path d="M59.9 108.5c-11.6 18.4-37 21.5-36 20.3 7.3-9.6 34.2-20.7 34.2-20.7s-30.9 10.6-58.2-10.9c-0.9-0.7 37.8 0.5 55.9 6.5 0.9 0.3-47.4-9.4-49.4-59.4 0-0.7 8.3 9.2 32.7 27 10.4 7.6 15.7 18.6 18 24.1 0.9 2.1-18.9-44.2 4.8-95.4 0.5-1.1 7.8 24 9.5 44.9 2.1 26.2-6.8 50.7-6.6 50.1 4.5-11.4 19.8-27.9 35.2-37.4 9.9-6.1 15.4-13.9 15.4-13.2 0.5 46.1-61.4 65.7-48.2 59.5 13.2-6.2 55.7-8.6 53.6-6.6 -21.5 21.5-63.1 10.5-57.7 10.7 5.4 0.2 39.8 20.8 32.4 19.6 -28.6-4.7-34.4-19.2-34.4-19.2s-1.3 9.5 0.7 24.6c0.4 2.8-4.1-0.4-4.1-0.4S60.4 107.8 59.9 108.5z" fill="#55874B"/><path d="M62 0.1l-1.3 106.1c0 0-11.4-27.8-10.6-55.6C50.8 22.8 62 0.1 62 0.1z" class="leaf"/><path d="M6.6 44.6c0 0 18.9 33.6 54 61.3 0.1 0.1 0.5 0.5-0.5 0.3 -5.4-1.4-27.1-9.1-40.1-24.4C5 63.9 6.6 44.6 6.6 44.6z" class="leaf"/><path d="M0.3 97.1c2.7 3 15.8 11.6 33 13.5 21 2.3 28-4.6 27.6-4.5C33.1 110.7-1.5 95.2 0.3 97.1z" class="leaf"/><path d="M60.3 107.7c0 0-3.2 7.7-16 15 -12.8 7.2-20.3 6.2-20.3 6.2s15.5-7 19.7-9.5c5.6-3.2 14.7-9.3 17-13.2C61.1 105.3 60.3 107.7 60.3 107.7z" class="leaf"/><path d="M60.1 108.4c0-0.3 0.7-3.2 0.6-2.6 -1 8-0.6 28.1-0.6 28.1s-0.9-0.2-2.4-1.3C57.6 132.5 59.5 117 60.1 108.4z" class="leaf"/><path d="M115.2 44.5C105.1 55.8 102.8 55 91.7 63.5c-10 7.6-25.9 22.9-31.1 42 -0.1 0.5 0.2 0.1 0.1 0.6 -0.1 0.6 13.9-10.3 29-28.3C104.9 59.9 116.9 42.7 115.2 44.5z" class="leaf"/><path d="M60.6 106.2c27-0.7 26.9-0.6 32.9-1.7 7.4-1.4 27.3-7.2 27.3-7.2s1.9-2.2-31.2 1.4C73.4 100.3 60.6 106.2 60.6 106.2z" class="leaf"/><path d="M61 106.1c-0.3-0.3 5.4 2.1 15.9 8 19.4 11 20.6 13.8 19.4 13.4 -4.2-1.4-21-9.9-23.4-11.3 -2.4-1.4-9.6-7.5-12.3-10.1C60.1 105.7 61.2 106.4 61 106.1z" class="leaf"/></svg>
