<svg xmlns="http://www.w3.org/2000/svg" width="319" height="319" viewBox="0 0 318.6 318.6"><style>.no-children-a{fill:#FEFEFE;}.no-children-b{fill:#F00;}</style><circle cx="159.3" cy="156.5" r="152.2" fill="#C5C6C4"/><path d="M213.4 46.9c2.5 3.9 2.4 9.8-0.4 16.1 -4.9 11-25.8 67.6-26.1 68.4l0 0.1 -0.1 68.7c0.6 22.5 1.4 65.9 0 68.7 -1.3 2.8-2.9 5.1-4.7 6.6 -1.8 1.5-3.7 2.3-5.8 2.3 -4.5 0-9-4.1-10.1-8.9 -0.8-3.5 0-67.6 0-68.2l0-0.3h-13.9v0.3c0.1 22.9 0.3 66.6 0 68.1 -1.7 8.1-8.2 8.8-10.2 8.8 -4.9 0-10.2-3.3-10.3-8.7 -0.1-2.6 0-68.1 0-68.8v-36.1l-0.6 1.4c-0.1 0.3-13.8 31-16.4 37.5 -1 2.5-5.6 5.4-10.1 5.4 -0.5 0-0.9 0-1.4-0.1l-0.3 0 -4.9 18.2 0 0.1c0.1 0.3 11.3 29.9 11.9 31.4 0.3 1 0 1.7-0.3 2.1 -0.5 0.7-1.4 1.2-2.4 1.2 -1 0-1.9-0.5-2.3-1.4 -0.5-1.1-4.4-8.8-4.4-8.8l-1.1-2.2 0.5 2.4c0 0.2 3 15.8 3.3 17.3 0.2 1.1 0 2-0.6 2.6 -0.5 0.6-1.2 0.9-2 0.9 -1 0-2.2-0.6-2.6-2.2 -0.2-0.8-5.6-21.6-5.6-21.8l-2.7-7 -0.3 0.9c0 0.1-3.9 11.1-4.1 11.7 -0.7 2-2.5 3.1-3.7 3.1 -0.4 0-1-0.1-1.5-0.7 -0.6-0.8-0.6-2.3 0-4.2 0.1-0.3 4.4-12.1 6.7-18.3l0.2-0.5 -0.4 0c-2.4-0.1-4.6-1.3-6-3.2l-0.1-0.2 -0.2 0.1c-0.4 0.1-0.8 0.2-1.2 0.2 -2.2 0-4.1-1.8-4.1-4.1 0-2.5 2.3-4.5 4.8-4l0.2 0 0.1-0.2c1.2-2.1 3.4-3.6 5.8-3.8l0.3 0 0-0.4c0-0.1 0-0.1 0-0.2 0-2.2 1.8-4.1 4.1-4.1 1.7 0 3.2 1.1 3.8 2.6l0.4 1 2.9-11 -0.2-0.1c-3.6-2.1-4.4-6.1-2.3-10.9 6.3-13.8 35.2-69.7 36.8-73.3l40.7-11.6 0.1-0.1c0.2-0.6 12.7-37.2 20.1-54.9 4.5-10.7 11.4-11.5 13.5-11.5C209 42.9 211.7 44.3 213.4 46.9z" fill="#FFF"/><path d="M147.7 53.8c15.1 0 27.5 12.3 27.5 27.5 0 15.1-12.3 27.5-27.5 27.5 -15.1 0-27.5-12.3-27.5-27.5C120.2 66.2 132.6 53.8 147.7 53.8z" class="no-children-a"/><path d="M153 201.1c0 5.6 0.4 66.1 0 67.9 -1.4 6.8-6.5 9.3-10.8 9.3 -5.3 0-10.8-3.5-11-9.3 -0.1-2.6 0-68.2 0-68.8v-33c-2.7 6.1-13.5 30.4-15.8 36 -1.1 2.7-5.8 5.8-10.7 5.8 -0.4 0-0.8 0-1.2-0.1l-4.7 17.4c0.8 2.2 11.3 29.8 11.8 31.3 0.3 1 0.2 1.9-0.3 2.7 -0.6 0.9-1.8 1.4-2.9 1.4 -1.3 0-2.4-0.7-2.9-1.8 -0.4-0.7-2.1-4.3-3.3-6.6 0.9 4.5 2.6 13.8 2.8 14.9 0.2 1.6-0.3 2.6-0.7 3.2 -0.6 0.7-1.5 1.1-2.5 1.1 -1.5 0-2.8-1-3.2-2.7 -0.2-0.8-5.6-21.6-5.6-21.8l-2-5.3c-0.9 2.6-3.6 10.4-3.8 10.8 -0.9 2.3-2.8 3.5-4.4 3.5 -0.8 0-1.5-0.3-2-1 -0.5-0.7-1-2.1-0.1-4.8 0.1-0.4 5.7-15.6 6.6-18 -2.4-0.2-4.5-1.4-5.9-3.3 -0.4 0.1-0.7 0.1-1.1 0.1 -2.6 0-4.7-2.1-4.7-4.7 0-2.8 2.5-5.1 5.4-4.7 1.3-2.1 3.4-3.5 5.9-3.9 0-2.6 2.1-4.7 4.7-4.7 1.6 0 3.2 0.9 4 2.3l2.3-8.7c-3.7-2.3-4.6-6.6-2.3-11.6 6.5-14.1 36.5-72.7 36.8-73.4l0.1-0.1 0.1 0 40.5-11.5c1.4-3.3 12.8-37.4 20-54.7 4.6-11.1 11.9-11.9 14.1-11.9 3.3 0 6.2 1.6 8 4.3 2.7 4.1 2.5 10.2-0.4 16.7 -4.8 10.9-25 65.7-26.1 68.3l-0.1 68.5c0.1 2.7 1.7 65.4 0 69.1 -2.8 5.9-6.7 9.3-11.1 9.3 -2.4 0-4.8-1.1-6.7-2.8 -1.9-1.7-3.4-4-4-6.6 -0.8-3.5-0.1-62.5 0-68H153zM79.9 221.3c-2.6-0.5-4.8 1.5-4.8 4 0 2.3 1.8 4.1 4.1 4.1 0.4 0 0.8-0.1 1.2-0.2l0.2-0.1 0.1 0.2c1.4 2 3.6 3.1 6 3.2l0.5 0 -0.2 0.5c-2.3 6.2-6.6 18-6.7 18.3 -0.6 1.9-0.6 3.4 0 4.2 0.4 0.6 1 0.7 1.5 0.7 1.3 0 3-1.1 3.7-3.1 0.2-0.5 4-11.6 4.1-11.7l0.3-0.9 2.7 7c0.1 0.2 5.4 21 5.6 21.8 0.4 1.6 1.6 2.2 2.6 2.2 0.8 0 1.5-0.3 2-0.9 0.6-0.7 0.8-1.6 0.6-2.6 -0.2-1.5-3.2-17.1-3.3-17.3l-0.5-2.4 1.1 2.2c0 0 3.9 7.7 4.4 8.8 0.5 0.9 1.3 1.4 2.3 1.4 0.9 0 1.9-0.5 2.4-1.2 0.3-0.4 0.6-1.1 0.3-2.1 -0.5-1.6-11.7-31.1-11.9-31.4l0-0.1 5-18.2 0.3 0c0.4 0.1 0.9 0.1 1.4 0.1 4.5 0 9.1-2.8 10.1-5.4 2.6-6.5 16.3-37.1 16.4-37.5l0.6-1.4v36.1c0 0.7-0.1 66.2 0 68.8 0.2 5.4 5.4 8.7 10.3 8.7 2 0 8.5-0.6 10.2-8.8 0.3-1.4 0.1-45.2 0-68.1v-0.3h13.9l0 0.3c0 0.6-0.8 64.7 0 68.2 1.1 4.8 5.6 8.9 10.1 8.9 2.1 0 4-0.8 5.8-2.3 1.8-1.5 3.4-3.8 4.7-6.6 1.4-2.9 0.6-46.2 0-68.7l0.1-68.7 0-0.1c0.3-0.8 21.2-57.4 26.1-68.4 2.8-6.3 3-12.2 0.4-16.1 -1.7-2.6-4.4-4-7.4-4 -2 0-9 0.8-13.5 11.5 -7.4 17.7-19.8 54.3-20.1 54.9l-0.1 0.1 -40.7 11.6c-1.5 3.6-30.4 59.5-36.8 73.3 -2.2 4.7-1.3 8.8 2.3 10.9l0.2 0.1 -2.9 11 -0.4-1c-0.6-1.6-2.1-2.6-3.8-2.6 -2.2 0-4.1 1.8-4.1 4.1 0 0.1 0 0.1 0 0.2l0 0.4 -0.3 0c-2.4 0.3-4.6 1.7-5.8 3.8l-0.1 0.2L79.9 221.3z" class="no-children-a"/><path d="M21.1 167.4c1.8 31.1 14.2 61.1 35.1 84.4 21.2 23.7 50.1 39.5 81.5 44.5 39.1 6.2 79-4.6 109.7-29.7l0.3-0.2L54.2 69.7l-0.3-0.3 -0.2 0.3c-16.4 19.3-27.1 42.7-31.1 67.8 -1.6 9.9-2.1 19.9-1.5 29.9L21.1 167.4zM252.5 287.6c-34.3 24.9-76.2 34.9-118.1 28.2 -35.9-5.7-69.1-23.8-93.3-50.9 -23.9-26.7-38.1-61-40.1-96.6 -0.6-11.3-0.1-22.8 1.7-34.1 6.7-41.8 29.2-78.6 63.5-103.4 34.3-24.9 76.2-34.9 118.1-28.2 35.9 5.7 69.1 23.8 93.3 50.9 23.9 26.7 38.1 61 40.1 96.5 0.6 11.3 0.1 22.8-1.7 34.2C309.3 226 286.8 262.7 252.5 287.6zM265.8 247.9l0.3 0.3 0.2-0.3c15.8-19.1 26.3-42.1 30.2-66.7 1.6-9.9 2.1-19.9 1.5-29.9 -1.8-31.1-14.2-61.1-35.1-84.4 -21.1-23.7-50.1-39.5-81.5-44.5 -38.5-6.1-78 4.3-108.5 28.7l-0.3 0.2L265.8 247.9z" class="no-children-b"/><path d="M54 70.4c-16.2 19.1-26.8 42.4-30.7 67.2 -1.6 9.9-2.1 19.8-1.5 29.7l0 0c1.8 30.9 14.1 60.8 34.9 84 21 23.6 49.9 39.3 81.1 44.3 38.7 6.2 78.4-4.5 108.9-29.3L54 70.4zM247.4 266.7c-30.6 25.1-70.6 35.9-109.7 29.7 -31.4-5-60.4-20.8-81.5-44.5 -20.9-23.3-33.3-53.3-35.1-84.4l0 0c-0.6-9.9-0.1-20 1.5-29.9 4-25.1 14.8-48.6 31.1-67.8l0.2-0.3 0.3 0.3 193.4 196.7L247.4 266.7z" class="no-children-b"/><path d="M262.9 66.9c20.9 23.4 33.3 53.3 35.1 84.4 0.6 9.9 0.1 20-1.5 29.9 -3.9 24.6-14.4 47.6-30.2 66.7l-0.2 0.3 -0.3-0.3L72.6 51.4l0.3-0.2c30.5-24.4 70-34.8 108.5-28.7C212.8 27.4 241.8 43.3 262.9 66.9zM297.3 151.4c-1.8-30.9-14.2-60.8-34.9-84 -21.1-23.6-49.9-39.3-81.1-44.3 -38.2-6.1-77.4 4.2-107.7 28.3l192.4 195.7c15.6-18.9 25.9-41.7 29.8-66.1C297.4 171.3 297.9 161.3 297.3 151.4z" class="no-children-b"/><path d="M278.1 53c24 26.8 38.3 61.3 40.3 97 0.7 11.4 0.1 22.9-1.8 34.3 -6.7 42-29.4 78.9-63.8 103.9 -34.4 25-76.6 35-118.6 28.3 -36.1-5.7-69.4-23.9-93.7-51.1 -24-26.8-38.3-61.3-40.3-97 -0.6-11.4 0-22.9 1.8-34.3 6.7-42 29.4-78.9 63.8-103.9 34.4-25 76.5-35 118.6-28.3C220.6 7.6 253.8 25.8 278.1 53zM2.8 134.2c-1.8 11.3-2.4 22.8-1.7 34.1 2 35.6 16.3 69.8 40.1 96.6 24.2 27.1 57.3 45.2 93.3 50.9 41.8 6.7 83.8-3.4 118.1-28.2 34.3-24.9 56.9-61.6 63.5-103.4 1.8-11.3 2.4-22.8 1.7-34.2 -2-35.5-16.3-69.8-40.1-96.5 -24.2-27.1-57.3-45.2-93.3-50.9 -41.8-6.7-83.8 3.4-118.1 28.2C32 55.6 9.4 92.4 2.8 134.2z" class="no-children-b"/></svg>
