<svg xmlns="http://www.w3.org/2000/svg" width="319" height="319" viewBox="0 0 318.6 318.6"><style>.no-driving-a{fill:#FFF;}.no-driving-b{fill:#F00;}</style><circle cx="156.5" cy="159.3" r="152.2" fill="#C5C6C4"/><path d="M228.4 132.1c0.6 0.9 0.5 1.6 0.3 2.1 -2.3 5.2-42.4 7.6-59.5 8.3l-0.8 0 4-22.8 0.5 0c1.3 0 2.6-0.1 4-0.1C198.8 119.7 225 126.8 228.4 132.1zM169.9 141.3c33.7-1.6 56.4-4.5 57.7-7.6 0.1-0.2 0.1-0.4-0.2-0.9 -3.1-4.7-30.3-12.6-53.9-11.8L169.9 141.3z" class="no-driving-a"/><path d="M172.4 119.8l-4 22.8 0.8 0c17.1-0.8 57.3-3.2 59.5-8.3 0.2-0.4 0.3-1.2-0.3-2.1 -3.5-5.3-29.6-12.4-51.5-12.4 -1.3 0-2.7 0-4 0.1L172.4 119.8zM167.1 142.6l4-22.7 -0.8 0c-14.8 1.6-58 15.2-58.9 20.5 -0.1 0.4 0 1 1 1.5 2.1 1 12.8 1 21.5 1 9.6 0 21.3 0 32.7-0.5L167.1 142.6zM265.6 151.6c2.8 10.2 5.5 22.5 2.5 27.3 -0.7 1.1-1.7 1.7-2.9 2 -2 0.4-10.1 0.7-24.1 1h-0.4l-0.1 0.4c-2 5.6-7.3 9.3-13.2 9.3 -5.8 0-10.9-3.5-13-8.8l-0.2-0.4 -0.4 0c-47.4 0.7-111 0.9-111.7 0.9l-2 0 -0.2 0.4c-2.3 4.8-7.3 8-12.6 8 -5.6 0-10.6-3.3-12.8-8.4l-0.1-0.4 -0.4 0c-21.4-0.5-24.8-1.1-25.2-1.3 -2.2-1.1-3.9-4.4-4.5-8.8 -0.6-4.9 0.3-12.1 4.9-16 3.2-2.7 28.4-14.9 48.2-17.1 0.6-0.1 1.9-0.8 5.1-2.6 11-6.2 40.3-22.8 72.2-22.8l1 0c21.3 0.2 42.2 5.5 60.6 10.1 10.5 2.6 20.3 5.1 28.8 6.2 0 0.2-0.1 0.5-0.1 0.8C264.6 134.7 263.4 143.3 265.6 151.6z" class="no-driving-a"/><path d="M171.1 119.8l-4 22.8 -0.5-0.2c-11.5 0.5-23.1 0.5-32.7 0.5 -8.7 0-19.5 0.1-21.5-1 -1-0.5-1-1.1-1-1.5 0.9-5.3 44.1-18.9 58.9-20.5L171.1 119.8zM112.9 140.8c0.5 0.3 3.6 0.8 21 0.8 0.5 0 0.9 0 1.4 0 9.2 0 20 0 30.8-0.5l3.6-19.9c-16.6 2.1-56.3 15.6-57 19.5C112.6 140.8 112.7 140.7 112.9 140.8z" class="no-driving-a"/><path d="M266.2 129.8c0.2 0.3 0.2 0.5 0 1.9 -0.4 3.1-1.6 11.5 0.6 19.6 3 11.1 5.6 23.1 2.4 28.3 -0.9 1.4-2.1 2.2-3.8 2.5 -2.1 0.4-9.9 0.7-23.9 1 -2.2 5.8-7.9 9.7-14.2 9.7 -6.1 0-11.6-3.6-14-9.2 -47.3 0.7-110.6 0.9-111.3 0.9h-1.3c-2.6 5-7.8 8.3-13.5 8.3 -5.9 0-11.3-3.4-13.8-8.8 -23.7-0.6-24.9-1.2-25.3-1.4 -2.6-1.2-4.6-4.9-5.2-9.7 -0.7-5.2 0.3-12.8 5.4-17.1 3.2-2.8 28.8-15.1 48.8-17.4 0.4 0 2.4-1.2 4.7-2.4 11.1-6.3 40.6-22.9 72.8-22.9h1c21.4 0.2 42.4 5.5 60.9 10.1 10.6 2.7 20.7 5.2 29.2 6.3l0.3 0L266.2 129.8zM49.2 156.8c-4.7 3.9-5.6 11.1-4.9 16 0.6 4.3 2.3 7.7 4.5 8.8 0.4 0.2 3.8 0.7 25.2 1.3l0.4 0 0.1 0.4c2.2 5.1 7.2 8.4 12.8 8.4 5.3 0 10.3-3.1 12.6-8l0.2-0.4 2 0c0.6 0 64.3-0.3 111.7-0.9l0.4 0 0.2 0.4c2.1 5.4 7.2 8.8 13 8.8 5.9 0 11.2-3.7 13.2-9.3l0.1-0.4h0.4c14-0.3 22.1-0.7 24.1-1 1.3-0.2 2.2-0.9 2.9-2 3-4.8 0.3-17.1-2.5-27.3 -2.2-8.3-1.1-16.9-0.6-20.1 0-0.3 0.1-0.6 0.1-0.8 -8.4-1.1-18.3-3.6-28.8-6.2 -18.4-4.6-39.4-9.9-60.6-10.1l-1 0c-31.9 0-61.2 16.5-72.2 22.8 -3.2 1.8-4.5 2.5-5.1 2.6C77.6 142 52.4 154.1 49.2 156.8z" class="no-driving-a"/><path d="M21 167.5c1.8 31.1 14.2 61.1 35.1 84.4 21.2 23.7 50.1 39.5 81.5 44.5 39.1 6.2 79-4.6 109.7-29.7l0.3-0.2L54.2 69.8l-0.3-0.3 -0.2 0.3c-16.4 19.3-27.1 42.7-31.1 67.8 -1.6 9.9-2.1 19.9-1.5 29.9L21 167.5zM252.4 287.7c-34.3 24.9-76.2 34.9-118.1 28.2 -35.9-5.7-69.1-23.8-93.3-50.9 -23.9-26.7-38.1-61-40.1-96.5 -0.6-11.3-0.1-22.8 1.7-34.1C9.4 92.5 31.9 55.8 66.2 30.9 100.5 6 142.4-4 184.3 2.7c35.9 5.7 69.1 23.8 93.3 50.9 23.9 26.7 38.1 61 40.1 96.5 0.6 11.3 0.1 22.8-1.7 34.1C309.3 226.1 286.7 262.9 252.4 287.7zM265.7 248.1l0.3 0.3 0.2-0.3c15.8-19.1 26.3-42.1 30.2-66.7 1.6-9.9 2.1-19.9 1.5-29.9 -1.8-31.1-14.2-61.1-35.1-84.4 -21.1-23.7-50.1-39.5-81.5-44.5 -38.5-6.1-78 4.3-108.5 28.7l-0.3 0.2L265.7 248.1z" class="no-driving-b"/><path d="M53.9 69.5l0.3 0.3 193.4 196.7 -0.3 0.2c-30.6 25.1-70.6 35.9-109.7 29.7 -31.4-5-60.4-20.8-81.5-44.5 -20.9-23.3-33.3-53.3-35.1-84.4l0 0c-0.6-9.9-0.1-20 1.5-29.9 4-25.1 14.8-48.6 31.1-67.8L53.9 69.5zM53.9 70.6c-16.2 19.1-26.8 42.4-30.7 67.2 -1.6 9.8-2.1 19.8-1.5 29.7v0c1.8 30.9 14.1 60.8 34.9 84 21 23.6 49.9 39.3 81.1 44.3 38.7 6.2 78.4-4.5 108.8-29.3L53.9 70.6z" class="no-driving-b"/><path d="M181.2 23.2c-38.2-6.1-77.4 4.2-107.7 28.3l192.4 195.7c15.6-18.9 25.9-41.7 29.8-66.1 1.6-9.8 2.1-19.8 1.5-29.7 -1.8-30.9-14.2-60.8-34.9-84C241.3 44 212.4 28.2 181.2 23.2zM262.8 67.1c20.9 23.4 33.3 53.3 35.1 84.4 0.6 9.9 0.1 20-1.5 29.9 -3.9 24.6-14.4 47.6-30.2 66.7l-0.2 0.3 -0.3-0.3L72.5 51.5l0.3-0.2c30.5-24.4 70-34.8 108.5-28.7C212.7 27.6 241.7 43.4 262.8 67.1z" class="no-driving-b"/><path d="M315.9 184.3c1.8-11.3 2.4-22.8 1.7-34.1 -2-35.5-16.3-69.8-40.1-96.5C253.3 26.5 220.2 8.4 184.3 2.7 142.4-4 100.5 6 66.2 30.9 31.9 55.8 9.4 92.5 2.7 134.3c-1.8 11.3-2.4 22.8-1.7 34.1 2 35.5 16.3 69.8 40.1 96.5 24.2 27.1 57.3 45.2 93.3 50.9 41.8 6.7 83.8-3.4 118.1-28.2C286.7 262.9 309.3 226.1 315.9 184.3zM0.3 168.5c-0.6-11.4-0.1-22.9 1.8-34.3C8.7 92.2 31.4 55.3 65.8 30.4 100.3 5.4 142.4-4.7 184.4 2c36.1 5.8 69.4 23.9 93.7 51.1 24 26.8 38.3 61.3 40.3 97 0.6 11.4 0.1 22.9-1.8 34.3 -6.7 42-29.4 78.9-63.8 103.9s-76.6 35-118.6 28.3c-36.1-5.8-69.4-23.9-93.7-51.1C16.6 238.7 2.3 204.2 0.3 168.5z" class="no-driving-b"/></svg>
