<svg xmlns="http://www.w3.org/2000/svg" width="253" height="253" viewBox="0 0 253.4 253.4"><style>.pretzel-a{fill:#C67132;}.pretzel-b{fill:#050505;opacity:0.2;}.pretzel-c{fill:#FFF;}</style><circle cx="127.4" cy="126.7" r="126.7" fill="#F4F2DC"/><path d="M193.2 169.3c0.3 0.7 0.5 1.4 0.7 2.1 -0.4 0.8-1.6 0-1.3-0.8C192.8 170.2 193 169.8 193.2 169.3z" class="pretzel-a"/><path d="M191.5 169.2c-0.4-0.9 0.9-1.6 1.3-0.7 0.1 0.3 0.3 0.6 0.4 0.9 -0.2 0.4-0.4 0.8-0.5 1.2 -0.4 0.9 0.8 1.6 1.3 0.8 1.8 6 0.8 12.5-3.5 17.5 -3.2 3.7-6.7 3.9-10.6 3.6 0.4-0.6-0.5-1.4-1.2-0.9 -0.3 0.2-0.6 0.5-0.9 0.7 -1-0.1-2-0.2-3.1-0.3 -1-0.1-1-1.6 0-1.5 4.7 0.3 10.4 2.3 14-1.9C193.5 183.1 194.6 176 191.5 169.2z" class="pretzel-a"/><path d="M178.6 191.6c0.7-0.5 1.6 0.3 1.2 0.9 -0.7-0.1-1.4-0.1-2.1-0.2C178 192.1 178.3 191.9 178.6 191.6z" class="pretzel-a"/><path d="M173.3 150.9c0 0 0.1-0.1 0.2-0.2 0.1 0.1 0.1 0.1 0.2 0.2 0.8 0.5 0 1.8-0.8 1.3 0 0 0 0 0 0 0 0 0 0 0 0C172.7 151.8 172.7 151.1 173.3 150.9z" class="pretzel-a"/><path d="M177.2 148.1c-0.7 1.2-2 3.7-3.5 4.2 -0.3 0.1-0.6 0-0.7-0.2 0 0 0 0 0 0 0.8 0.5 1.6-0.8 0.8-1.3 -0.1 0-0.1-0.1-0.2-0.2 0.5-0.6 1.6-2.1 2-2.6 1.8-2.7 3.2-5.7 4.4-8.7 5.3-14.3 6.3-31.5 2.6-46.4 -1.6-6.4-4.1-13.3-9.1-17.8 -6.2-5.7-15.3-6.2-22.4-1.9 -10.4 6.2-15 18.7-11.1 30.2 2 6 5.9 11.2 9.4 16.4 4.1 6.1 8.3 12.1 12.7 17.9 3.4 4.4 6.9 9.7 11.6 12.9 -0.1 0.1-0.2 0.2-0.2 0.2 -0.6 0.2-0.6 0.9-0.4 1.2 -7-4.7-12.3-13.3-17.1-20.1 -5.3-7.5-11.5-15.2-15.5-23.5 -7.5-15.6-0.7-37.1 18.3-39.4 13.1-1.6 21 9 24.4 20.4 4.2 14.1 3.9 30.1 0.2 44.2C181.8 138.8 180 143.8 177.2 148.1z" class="pretzel-a"/><path d="M205.4 79.5c12.4 29.4 0.7 64.5-11.5 91.8 0 0 0 0 0 0.1 -0.2-0.7-0.4-1.4-0.7-2.1 7.7-17.4 14.1-36 15.5-55.1 0.9-12.1-0.1-24.7-5.4-35.8 -2.2-4.7-5.1-8.7-8.5-12.6 -5.9-6.8-12.6-14.1-21.3-17.1 -17.5-6.1-39.3 4.1-49.1 19.1 -0.3 0.4-0.7 0.4-1 0.3 0.3-0.3 0.5-0.8 0.1-1.2 -0.1-0.1-0.1-0.1-0.2-0.2 2.6-3.9 5.8-7.4 9.6-10.3 13.2-10.1 32.8-15.5 47.7-5.8 7.1 4.6 13 11 18.2 17.6C201.5 71.7 203.7 75.4 205.4 79.5z" class="pretzel-a"/><path d="M123.1 67.1c0.1-0.1 0.1-0.2 0.2-0.3 0.1 0.1 0.1 0.1 0.2 0.2 0.4 0.4 0.2 0.9-0.1 1.2 0 0 0 0 0 0C123 67.9 122.8 67.5 123.1 67.1z" class="pretzel-a"/><path d="M104.3 179c0.2-0.5 1.2-0.7 1.4 0.1v0c0 0.1 0 0.1-0.1 0.2 -0.3 0.7-1.2 0.4-1.3-0.3C104.3 179 104.3 179 104.3 179z" class="pretzel-a"/><path d="M154.1 184.4c-5.3 5-12.2 6.6-19.4 6.8 -9.7 0.3-26.9-0.2-30.4-11.7 0-0.2 0-0.3 0-0.4 0.1 0.6 1 0.9 1.3 0.3 0-0.1 0.1-0.1 0.1-0.2 3.3 10.6 20.1 11 29 10.6 7.2-0.3 14-1.7 19.1-7.2 3.5-3.8 5.1-9.2 1.8-13.7 -2.4-3.3-5-6.5-7.5-9.7 -3.4-4.4-6.1-8.7-8.9-13.4 -1.4-2.4-2.8-5-5-6.9 -3.2-2.8-6.1-0.7-8.2 2.4 -3.9 5.7-8.2 11.4-11.3 17.6 -3.3 6.6-5.9 13.6-9 20.3v0c-0.2-0.7-1.2-0.6-1.4-0.1 0-0.1 0-0.3 0.1-0.5 4.6-9.8 8.1-19.7 14.1-28.8 2.2-3.4 4.5-6.9 6.9-10.1 1.2-1.6 3.1-3.8 5.4-3.9 5 0 8.2 6.2 10.3 10 4 7.3 9.3 13.5 14.3 20.1C160 172.2 160.1 178.8 154.1 184.4z" class="pretzel-a"/><path d="M154.5 208.1c8.2-4.5 15.9-10 23.2-15.8 0.7 0.1 1.4 0.2 2.1 0.2 0 0.1-0.1 0.1-0.2 0.2 -8.1 6.4-16.7 13.2-26.2 17.6 -6.6 3-13.4 3.5-20.5 3.9 -8.2 0.4-16.1 0.4-23.6-3.5 -7.3-3.8-13.4-9.3-20.2-13.9l0 0c0.6-0.2 1.2-0.4 1.7-0.6 5.9 4.1 11.3 8.9 17.6 12.3 7.8 4.3 15.7 4.6 24.5 4.2C140.4 212.3 147.8 211.8 154.5 208.1z" class="pretzel-a"/><path d="M89.9 195.5c0.3 0.2 0.6 0.4 0.9 0.7 -0.5 0.2-1.1 0.4-1.7 0.6C88.4 196.2 89.1 195 89.9 195.5z" class="pretzel-a"/><path d="M89.7 157.8c0.3 0.3 0.4 0.6 0.3 0.9 0 0-0.1 0.1-0.1 0.1 -0.7 0.7-1.7-0.4-1-1 0.1-0.1 0.3-0.3 0.4-0.4C89.3 157.6 89.5 157.7 89.7 157.8z" class="pretzel-a"/><path d="M74 180.8c0.1-0.3 0.1-0.7 0.2-1 0 0 0 0 0 0C74.5 180.2 74.3 180.6 74 180.8z"/><path d="M74 180.8c-0.3 0.2-0.8 0.2-1.1-0.2 -0.1-0.1-0.2-0.3-0.3-0.4 0.1-0.7 0.3-1.5 0.4-2.2 0.4 0.6 0.8 1.2 1.1 1.8 -0.1 0.3-0.1 0.6-0.2 1V180.8z" class="pretzel-a"/><path d="M73.2 176.9c0.1-1 1.6-0.6 1.4 0.4 -0.1 0.8-0.3 1.6-0.5 2.5 -0.4-0.6-0.8-1.2-1.1-1.8C73.1 177.6 73.2 177.2 73.2 176.9z" class="pretzel-a"/><path d="M208.7 114.2c-1.4 19.1-7.8 37.7-15.5 55.1 -0.1-0.3-0.2-0.6-0.4-0.9 -0.4-0.9-1.7-0.1-1.3 0.7 3.1 6.8 2 13.8-2.9 19.4 -3.7 4.2-9.3 2.2-14 1.9 -1-0.1-1 1.4 0 1.5 1.1 0.1 2.1 0.2 3.1 0.3 -7.4 5.8-15 11.3-23.2 15.8 -6.7 3.7-14 4.2-21.5 4.6 -8.7 0.4-16.7 0.1-24.5-4.2 -6.3-3.4-11.7-8.3-17.6-12.3 0 0 0.1 0 0.1 0 0.9-0.4 0.5-1.8-0.4-1.4 -4.7 1.9-14.3 3.7-16.7-2.4 -1.3-3.4-0.6-7.7 0.1-11.5v0c0.3-0.2 0.5-0.6 0.2-0.9 0 0 0 0 0 0 0.2-0.9 0.3-1.7 0.5-2.5 0.2-0.9-1.3-1.3-1.4-0.4 -0.1 0.3-0.1 0.7-0.2 1.1 -9.3-14.8-19.8-28.9-25.7-45.5 -6.5-18.4-4.5-39.3 3.5-57C55.7 64.7 63.9 55.7 75 51.6c3.7-1.4 7.6-2.1 11.5-2.2 6.1-0.2 11.6 2.1 16.9 4.8 6.9 3.6 13.6 8.1 18.9 13.8 0.3 0.3 0.6 0.3 0.9 0.1 0 0 0 0 0 0 0.3 0.2 0.7 0.1 1-0.3 9.8-14.9 31.6-25.2 49.1-19.1 8.7 3 15.4 10.3 21.3 17.1 3.4 3.9 6.3 7.9 8.5 12.6C208.6 89.5 209.6 102.2 208.7 114.2zM183.2 133.7c3.8-14.1 4-30.1-0.1-44.2 -3.4-11.4-11.3-22.1-24.4-20.4 -19 2.3-25.8 23.8-18.3 39.4 4 8.3 10.2 16.1 15.5 23.5 4.8 6.8 10 15.4 17.1 20.1 0 0 0 0 0 0 0.2 0.2 0.4 0.3 0.7 0.2 1.5-0.5 2.8-3 3.5-4.2C180 143.8 181.8 138.8 183.2 133.7zM154.1 184.4c6-5.6 5.9-12.2 1.2-18.6 -5-6.6-10.3-12.8-14.3-20.1 -2.1-3.7-5.3-10-10.3-10 -2.2 0-4.2 2.2-5.4 3.9 -2.4 3.3-4.6 6.7-6.9 10.1 -5.9 9-9.5 19-14.1 28.8 -0.1 0.2-0.1 0.3-0.1 0.5 0 0 0 0 0 0 -0.1 0.1-0.1 0.3 0 0.4 3.5 11.5 20.7 12 30.4 11.7C141.9 191 148.8 189.5 154.1 184.4zM112.8 105.9c0.2-7.2-1.2-15.4-4.6-21.8 -2.7-5.1-7.4-8.1-12.9-9.5 -4.8-1.2-10.4-1.3-15 0.7 -7.4 3.4-10.9 10.7-13.2 18.1 -5.4 17.3-0.6 36.6 8.9 51.5 3.4 5.4 7.8 10.3 12.9 14.2 0.4 0.3 0.9 0 1-0.4 6.6-6.7 10.9-15.4 14.8-23.9C108.9 125.8 112.6 116.1 112.8 105.9z" class="pretzel-a"/><path d="M73.2 194.2c-2.2-4.2-1.4-9.4-0.5-14.1 0.1 0.1 0.2 0.3 0.3 0.4 0.3 0.4 0.7 0.4 1.1 0.2 -0.7 3.8-1.4 8.1-0.1 11.5 2.4 6.2 12 4.4 16.7 2.4 0.9-0.4 1.3 1.1 0.4 1.4 0 0-0.1 0-0.1 0 -0.3-0.2-0.6-0.4-0.9-0.7 -0.8-0.5-1.5 0.7-0.8 1.3C84.1 198.4 75.8 199.3 73.2 194.2z" class="pretzel-a"/><path d="M90 75.3c-19.3-0.8-24.6 22.7-23.3 38.1 1.5 16.4 9.3 33.7 22.5 44 -0.1 0.1-0.3 0.3-0.4 0.4 -0.7 0.7 0.4 1.7 1 1 0 0 0.1-0.1 0.1-0.1 -0.1 0.4-0.6 0.7-1 0.4 -5.1-3.9-9.4-8.8-12.9-14.2 -9.5-14.9-14.2-34.2-8.9-51.5 2.3-7.4 5.7-14.7 13.2-18.1 4.6-2.1 10.1-1.9 15-0.7 5.5 1.4 10.2 4.3 12.9 9.5 3.4 6.5 4.8 14.6 4.6 21.8 -0.2 10.2-3.9 19.8-8.1 29 -3.9 8.5-8.2 17.1-14.8 23.9 0.1-0.3 0.1-0.7-0.3-0.9 -0.2-0.1-0.3-0.3-0.5-0.4 6.3-6.6 10.5-15 14.2-23.3 4.4-9.5 8.7-20.1 7.8-30.8 -0.6-7.4-1.5-16.4-6.8-22.1C100.8 77.3 95.3 75.5 90 75.3z" class="pretzel-a"/><path d="M123.3 66.7c-0.1 0.1-0.2 0.2-0.2 0.3 -0.3 0.4-0.1 0.8 0.3 1 -0.3 0.2-0.6 0.2-0.9-0.1 -5.3-5.7-12-10.3-18.9-13.8 -5.4-2.7-10.8-5-16.9-4.8 -3.9 0.1-7.8 0.9-11.5 2.2C63.9 55.7 55.7 64.7 50.8 75.4c-8 17.7-10 38.6-3.5 57 5.9 16.7 16.4 30.7 25.7 45.5 -0.1 0.7-0.3 1.4-0.4 2.2 -7.9-12.8-17-24.9-23.2-38.6 -3.7-8.1-6.5-16.8-7.3-25.8 -0.8-9.4 0.5-19.1 2.9-28.2 3.2-12.2 9.1-24.4 19.5-32 6.6-4.8 14.6-7.7 22.8-7.7 5.3 0 10.3 1.7 15 4.1C110 55.7 117.4 60.5 123.3 66.7z" class="pretzel-a"/><g opacity="0.2"><path d="M88.9 196.6l0.2 0.1c-0.1 0-0.3 0.1-0.5 0.1C88.9 196.8 89 196.7 88.9 196.6z"/><path d="M79.5 197.9c3 0.4 6.5-0.2 9.1-1C87.6 197.5 83.4 198.6 79.5 197.9z"/><path d="M139.8 212.4c3.7-0.5-17.2 6-29.9-1.9l-20.7-13.7c0.7-0.2 1.3-0.4 1.9-0.7 0.9-0.4 0.5-1.8-0.4-1.4 -4.7 1.9-14.3 3.7-16.7-2.4 -1.8-4.5 0-10.4 0.8-15 0.1-0.6-0.4-0.9-0.8-0.9l2.1-1.9c1 1 1.9 1.9 2.9 2.8 1.2 1.1-11.9 25.1 15.7 12 0.7-0.3 9.4 8.5 20.6 15.7C124.7 211 138.4 212.6 139.8 212.4z"/><path d="M72.7 180c-2.9-4.5-17.6-26-23.2-38.6 -3.7-8.1-6.3-16.8-7.3-25.8 -3.3-29.8 14-51.8 13.1-49.3 -15.4 42.1 0.6 87.7 20.7 108l-2 1.9c-0.3 0-0.6 0.2-0.6 0.6C73.1 177.9 72.9 178.9 72.7 180z"/><path d="M88.9 196.6c0 0.1-0.1 0.1-0.3 0.3 -2.7 0.8-6.1 1.4-9.1 1 0 0-0.1 0-0.1 0 -5-0.9-9.5-4.9-6.2-17 0-0.1-0.2-0.4-0.5-0.9 0.2-1.1 0.4-2.1 0.6-3.1 0.1-0.4 0.3-0.6 0.6-0.6 0.4 0 0.9 0.4 0.8 0.9 -0.8 4.6-2.5 10.5-0.8 15 2.4 6.2 12 4.4 16.7 2.4 0.9-0.4 1.3 1.1 0.4 1.4 -0.5 0.2-1.2 0.4-1.9 0.7L88.9 196.6z"/><path d="M73.2 194.2c-2.2-4.2-1.4-9.5-0.5-14.2 0.3 0.5 0.5 0.9 0.5 0.9 -3.3 12 1.2 16 6.2 17C76.7 197.6 74.4 196.5 73.2 194.2z"/></g><path d="M150 156.9c-4.9-6.6-7.9-15.1-14.2-20.5 -0.8-0.7-6.7 0.8-3.8 1.2 0.8 0.1 2.3 1.2 2.8 1.7 4 4.3 6.4 10.8 11.1 17 3.3 4.2 8.1 10.1 10.4 13.6 1.3 1.9 1.1 4.2 1.2 5.3 0 0.8-0.6 2.2-0.4 2.1 0.7-0.2 3.1-1.7 3.1-2.8C159.7 167.4 154 162.3 150 156.9z" class="pretzel-b"/><path d="M96 76.2c13.7 4 14.4 18.5 15.2 25.7 1.4 12.4-5.2 26.7-6.4 29.1 -0.6 1.3-5.4 13-11.7 21.7 -0.6 0.9-3 3.9-4 4.7 -1.2 0.9 8.2-4.8 9.3-6.2 3.5-4.4 13.7-28.9 14.8-34.2 0.6-2.8 1.9-12.2 1.7-17 -0.4-7.1-1.7-10-2.8-13 -0.9-2.7-2-4.5-3.8-6.5 -1.4-1.6-3.7-3.1-6.5-3.9C99.7 75.9 95.3 76 96 76.2z" class="pretzel-b"/><path d="M160 70.4c16.2-0.2 19.7 14.2 21.7 20 4 11.8 2.7 27.4 2.5 30.1 -0.4 4.2-1.9 14.5-6.4 23.8 -0.5 1-2.6 4.6-4.2 6.3 -1 1.1 7.1-5.9 8.7-9.2 2.4-4.9 6.5-28.2 5.4-36.9 -0.4-2.9-1.3-12.5-2.9-17.1 -2.3-6.7-4.6-8.8-6.4-11.4 -1.7-2.4-3.2-3.8-5.4-5.2 -1.8-1.1-4.4-1.9-7.4-2C163.3 68.8 159.2 70.4 160 70.4z" class="pretzel-b"/><path d="M104.7 67.7c0.1 0.2-0.1 0.4-0.3 0.5l-3.6 1c-0.2 0.1-0.4-0.1-0.5-0.3l-0.2-0.7c-0.1-0.2 0.1-0.4 0.3-0.5l3.6-1c0.2-0.1 0.4 0.1 0.5 0.3L104.7 67.7z" class="pretzel-c"/><path d="M170.6 157.3c-0.1 0.2-0.3 0.3-0.5 0.2l-3.5-1.2c-0.2-0.1-0.3-0.3-0.2-0.5l0.2-0.7c0.1-0.2 0.3-0.3 0.5-0.2l3.5 1.2c0.2 0.1 0.3 0.3 0.2 0.5L170.6 157.3z" class="pretzel-c"/><path d="M108.5 146c0 0.2-0.2 0.4-0.4 0.4h-3.2c-0.2 0-0.4-0.2-0.4-0.4v-0.3c0-0.2 0.2-0.4 0.4-0.4h3.3c0.2 0 0.4 0.2 0.4 0.4V146z" class="pretzel-c"/><path d="M97.5 161c0 0.2-0.2 0.4-0.4 0.4h-3.3c-0.2 0-0.4-0.2-0.4-0.4v-0.3c0-0.2 0.2-0.4 0.4-0.4h3.3c0.2 0 0.4 0.2 0.4 0.4V161z" class="pretzel-c"/><path d="M61.5 70c0 0.2-0.2 0.4-0.4 0.4h-3.3c-0.2 0-0.4-0.2-0.4-0.4v-0.2c0-0.2 0.2-0.4 0.4-0.4h3.3c0.2 0 0.4 0.2 0.4 0.4V70z" class="pretzel-c"/><path d="M190.5 174.5c-0.1 0.2-0.4 0.2-0.5 0.1l-2.9-2.4c-0.2-0.1-0.2-0.4-0.1-0.5l0.5-0.6c0.1-0.2 0.4-0.2 0.5 0l2.9 2.4c0.2 0.1 0.2 0.4 0.1 0.5L190.5 174.5z" class="pretzel-c"/><path d="M183.3 180.2c-0.1 0.2-0.3 0.3-0.5 0.2l-3.5-1.4c-0.2-0.1-0.3-0.3-0.2-0.5l0.3-0.7c0.1-0.2 0.3-0.3 0.5-0.2l3.5 1.4c0.2 0.1 0.3 0.3 0.2 0.5L183.3 180.2z" class="pretzel-c"/><path d="M196.5 152c0 0.2-0.2 0.4-0.4 0.4h-3.3c-0.2 0-0.4-0.2-0.4-0.4v-0.3c0-0.2 0.2-0.4 0.4-0.4h3.3c0.2 0 0.4 0.2 0.4 0.4V152z" class="pretzel-c"/><path d="M188.5 86c0 0.2-0.2 0.4-0.4 0.4h-3.3c-0.2 0-0.4-0.2-0.4-0.4v-0.3c0-0.2 0.2-0.4 0.4-0.4h3.3c0.2 0 0.4 0.2 0.4 0.4V86z" class="pretzel-c"/><path d="M122.5 91c0 0.2-0.2 0.4-0.4 0.4h-3.2c-0.2 0-0.4-0.2-0.4-0.4v-0.3c0-0.2 0.2-0.4 0.4-0.4h3.3c0.2 0 0.4 0.2 0.4 0.4V91z" class="pretzel-c"/><path d="M91.9 60.3c0.1 0.2-0.1 0.4-0.3 0.5l-3.6 1c-0.2 0.1-0.4-0.1-0.5-0.3l-0.2-0.7c-0.1-0.2 0.1-0.4 0.3-0.5l3.6-1c0.2-0.1 0.4 0.1 0.5 0.3L91.9 60.3z" class="pretzel-c"/><path d="M157.5 59c0 0.2-0.2 0.4-0.4 0.4h-3.3c-0.2 0-0.4-0.2-0.4-0.4v-0.3c0-0.2 0.2-0.4 0.4-0.4h3.3c0.2 0 0.4 0.2 0.4 0.4V59z" class="pretzel-c"/><path d="M139.5 64c0 0.2-0.2 0.4-0.4 0.4h-3.3c-0.2 0-0.4-0.2-0.4-0.4v-0.3c0-0.2 0.2-0.4 0.4-0.4h3.3c0.2 0 0.4 0.2 0.4 0.4V64z" class="pretzel-c"/><path d="M118.5 76c0 0.2-0.2 0.4-0.4 0.4h-3.3c-0.2 0-0.4-0.2-0.4-0.4v-0.3c0-0.2 0.2-0.4 0.4-0.4h3.3c0.2 0 0.4 0.2 0.4 0.4V76z" class="pretzel-c"/><path d="M55.5 121c0 0.2-0.2 0.4-0.4 0.4h-3.3c-0.2 0-0.4-0.2-0.4-0.4v-0.3c0-0.2 0.2-0.4 0.4-0.4h3.3c0.2 0 0.4 0.2 0.4 0.4V121z" class="pretzel-c"/><path d="M76.5 158.6c0.1 0.2 0 0.4-0.2 0.5l-3.4 1.6c-0.2 0.1-0.4 0-0.5-0.2l-0.3-0.7c-0.1-0.2 0-0.4 0.2-0.5l3.4-1.6c0.2-0.1 0.4 0 0.5 0.2L76.5 158.6z" class="pretzel-c"/><path d="M158 157.7c-0.1 0.2-0.3 0.2-0.5 0.1l-3.2-1.9c-0.2-0.1-0.2-0.3-0.1-0.5l0.4-0.6c0.1-0.2 0.3-0.2 0.5-0.1l3.2 1.9c0.2 0.1 0.2 0.3 0.1 0.5L158 157.7z" class="pretzel-c"/><path d="M52.3 98.1c0.1 0.2 0.1 0.4 0 0.5l-2.8 2.5c-0.2 0.1-0.4 0.1-0.5 0l-0.5-0.6c-0.1-0.2-0.1-0.4 0-0.5l2.8-2.5c0.2-0.1 0.4-0.1 0.5 0L52.3 98.1z" class="pretzel-c"/><path d="M165.9 195.1c-0.1 0.2-0.3 0.2-0.5 0.1l-3.3-1.8c-0.2-0.1-0.2-0.3-0.1-0.5l0.4-0.7c0.1-0.2 0.3-0.2 0.5-0.1l3.3 1.8c0.2 0.1 0.2 0.3 0.1 0.5L165.9 195.1z" class="pretzel-c"/><path d="M188.6 140.8c-0.1 0.2-0.3 0.3-0.5 0.2l-3.6-1.1c-0.2-0.1-0.3-0.3-0.2-0.5l0.2-0.7c0.1-0.2 0.3-0.3 0.5-0.2l3.6 1.1c0.2 0.1 0.3 0.3 0.2 0.5L188.6 140.8z" class="pretzel-c"/><path d="M117.6 118.1c-0.2 0-0.4-0.1-0.4-0.4l-0.4-3.8c0-0.2 0.1-0.4 0.3-0.4l0.8-0.1c0.2 0 0.4 0.1 0.4 0.4l0.4 3.8c0 0.2-0.1 0.4-0.3 0.4L117.6 118.1z" class="pretzel-c"/><path d="M134.7 75.7c0.2 0.1 0.2 0.4 0.1 0.5l-2.2 3.1c-0.1 0.2-0.4 0.2-0.5 0.1l-0.6-0.4c-0.2-0.1-0.2-0.4-0.1-0.5l2.2-3.1c0.1-0.2 0.4-0.2 0.5-0.1L134.7 75.7z" class="pretzel-c"/><path d="M164.5 162c0 0.2-0.2 0.4-0.4 0.4h-3.3c-0.2 0-0.4-0.2-0.4-0.4v-0.3c0-0.2 0.2-0.4 0.4-0.4h3.3c0.2 0 0.4 0.2 0.4 0.4V162z" class="pretzel-c"/><path d="M179.3 67.9c-0.1 0.2-0.3 0.2-0.5 0.1l-3.2-1.9c-0.2-0.1-0.2-0.3-0.1-0.5l0.4-0.6c0.1-0.2 0.3-0.2 0.5-0.1l3.2 1.9c0.2 0.1 0.2 0.3 0.1 0.5L179.3 67.9z" class="pretzel-c"/><path d="M124.7 114.1c-0.2-0.1-0.3-0.3-0.2-0.5l1.7-3.3c0.1-0.2 0.3-0.3 0.5-0.2l0.7 0.3c0.2 0.1 0.3 0.3 0.2 0.5l-1.7 3.3c-0.1 0.2-0.3 0.3-0.5 0.2L124.7 114.1z" class="pretzel-c"/><path d="M141.5 140.9c-0.2-0.1-0.3-0.3-0.2-0.5l1.7-3.3c0.1-0.2 0.3-0.3 0.5-0.2l0.7 0.3c0.2 0.1 0.3 0.3 0.2 0.5l-1.7 3.4c-0.1 0.2-0.3 0.3-0.5 0.2L141.5 140.9z" class="pretzel-c"/><path d="M140.1 116.8c-0.2-0.1-0.3-0.3-0.2-0.5l1.7-3.3c0.1-0.2 0.3-0.3 0.5-0.2l0.7 0.3c0.2 0.1 0.3 0.3 0.2 0.5l-1.7 3.3c-0.1 0.2-0.3 0.3-0.5 0.2L140.1 116.8z" class="pretzel-c"/><path d="M133 131.3c-0.2 0.1-0.4 0-0.5-0.2l-1.8-3.3c-0.1-0.2 0-0.4 0.2-0.5l0.7-0.4c0.2-0.1 0.4 0 0.5 0.2l1.8 3.3c0.1 0.2 0 0.4-0.2 0.5L133 131.3z" class="pretzel-c"/><path d="M119.2 211.7c-0.1 0.2-0.3 0.2-0.5 0.1l-3.3-1.8c-0.2-0.1-0.2-0.3-0.1-0.5l0.4-0.7c0.1-0.2 0.3-0.2 0.5-0.1l3.3 1.8c0.2 0.1 0.2 0.3 0.1 0.5L119.2 211.7z" class="pretzel-c"/><path d="M146.7 196.2c-0.1 0.2-0.3 0.2-0.5 0.1l-3.3-1.8c-0.2-0.1-0.2-0.3-0.1-0.5l0.4-0.7c0.1-0.2 0.3-0.2 0.5-0.1l3.3 1.8c0.2 0.1 0.2 0.3 0.1 0.5L146.7 196.2z" class="pretzel-c"/><path d="M122.6 196.5c-0.1 0.2-0.3 0.2-0.5 0.1l-3.3-1.8c-0.2-0.1-0.2-0.3-0.1-0.5l0.4-0.7c0.1-0.2 0.3-0.2 0.5-0.1l3.3 1.8c0.2 0.1 0.2 0.3 0.1 0.5L122.6 196.5z" class="pretzel-c"/><path d="M136.8 204.2c0.1 0.2 0 0.4-0.2 0.5l-3.4 1.6c-0.2 0.1-0.4 0-0.5-0.2l-0.3-0.7c-0.1-0.2 0-0.4 0.2-0.5l3.4-1.6c0.2-0.1 0.4 0 0.5 0.2L136.8 204.2z" class="pretzel-c"/><path d="M76.8 189.6c-0.2 0.1-0.4 0-0.5-0.2l-1.5-3.4c-0.1-0.2 0-0.4 0.2-0.5l0.7-0.3c0.2-0.1 0.4 0 0.5 0.2l1.5 3.4c0.1 0.2 0 0.4-0.2 0.5L76.8 189.6z" class="pretzel-c"/><path d="M108.2 193.6c-0.2 0.1-0.4 0-0.5-0.2l-1.5-3.4c-0.1-0.2 0-0.4 0.2-0.5l0.7-0.3c0.2-0.1 0.4 0 0.5 0.2l1.5 3.4c0.1 0.2 0 0.4-0.2 0.5L108.2 193.6z" class="pretzel-c"/><path d="M88.7 179.4c-0.2 0.1-0.4 0-0.5-0.2l-1.5-3.4c-0.1-0.2 0-0.4 0.2-0.5l0.7-0.3c0.2-0.1 0.4 0 0.5 0.2l1.5 3.4c0.1 0.2 0 0.4-0.2 0.5L88.7 179.4z" class="pretzel-c"/><path d="M95.8 194.2c0 0.2-0.7 0.9-0.9 0.8l-3.7-0.7c-0.2 0-0.3-0.5-0.2-0.7l0.1-0.6c0-0.2 0.2-0.2 0.4-0.1l3.7 0.7c0.2 0 0.8-0.3 0.8-0.1L95.8 194.2z" class="pretzel-c"/><path d="M62.9 128.9c-0.1 0.2-0.3 0.3-0.5 0.2l-3.5-1.2c-0.2-0.1-0.3-0.3-0.2-0.5l0.2-0.7c0.1-0.2 0.3-0.3 0.5-0.2l3.5 1.2c0.2 0.1 0.3 0.3 0.2 0.5L62.9 128.9z" class="pretzel-c"/><path d="M54.8 133.7c-0.1 0.2-0.3 0.2-0.5 0.1L51 132c-0.2-0.1-0.2-0.3-0.1-0.5l0.4-0.6c0.1-0.2 0.3-0.2 0.5-0.1l3.2 1.9c0.2 0.1 0.2 0.3 0.1 0.5L54.8 133.7z" class="pretzel-c"/><path d="M70.5 146c0 0.2-0.2 0.4-0.4 0.4h-3.3c-0.2 0-0.4-0.2-0.4-0.4v-0.3c0-0.2 0.2-0.4 0.4-0.4h3.3c0.2 0 0.4 0.2 0.4 0.4V146z" class="pretzel-c"/><path d="M68.8 82.5c-0.1 0.2-0.3 0.3-0.5 0.2l-3.5-1.2c-0.2-0.1-0.3-0.3-0.2-0.5l0.2-0.7c0.1-0.2 0.3-0.3 0.5-0.2l3.5 1.2c0.2 0.1 0.3 0.3 0.2 0.5L68.8 82.5z" class="pretzel-c"/><path d="M56.3 82.9c-0.1 0.2-0.3 0.2-0.5 0.1l-3.2-1.9c-0.2-0.1-0.2-0.3-0.1-0.5l0.4-0.6c0.1-0.2 0.3-0.2 0.5-0.1l3.2 1.9c0.2 0.1 0.2 0.3 0.1 0.5L56.3 82.9z" class="pretzel-c"/><path d="M63.5 88c0 0.2-0.2 0.4-0.4 0.4h-3.2c-0.2 0-0.4-0.2-0.4-0.4v-0.3c0-0.2 0.2-0.4 0.4-0.4h3.3c0.2 0 0.4 0.2 0.4 0.4V88z" class="pretzel-c"/><path d="M200.5 100c0 0.2-0.2 0.4-0.4 0.4h-3.2c-0.2 0-0.4-0.2-0.4-0.4v-0.2c0-0.2 0.2-0.4 0.4-0.4h3.3c0.2 0 0.4 0.2 0.4 0.4V100z" class="pretzel-c"/><path d="M191.5 128.1c0.1 0.2 0.1 0.4 0 0.5l-2.8 2.5c-0.2 0.1-0.4 0.1-0.5 0l-0.5-0.6c-0.1-0.2-0.1-0.4 0-0.5l2.8-2.5c0.2-0.1 0.4-0.1 0.5 0L191.5 128.1z" class="pretzel-c"/><path d="M208 112.4c-0.1 0.2-0.3 0.3-0.5 0.2l-3.5-1.2c-0.2-0.1-0.3-0.3-0.2-0.5l0.2-0.7c0.1-0.2 0.3-0.3 0.5-0.2l3.5 1.2c0.2 0.1 0.3 0.3 0.2 0.5L208 112.4z" class="pretzel-c"/><path d="M195.4 112.8c-0.1 0.2-0.3 0.2-0.5 0.1l-3.2-1.9c-0.2-0.1-0.2-0.3-0.1-0.5l0.4-0.6c0.1-0.2 0.3-0.2 0.5-0.1l3.2 1.9c0.2 0.1 0.2 0.3 0.1 0.5L195.4 112.8z" class="pretzel-c"/><path d="M202.5 118c0 0.2-0.2 0.4-0.4 0.4h-3.3c-0.2 0-0.4-0.2-0.4-0.4v-0.3c0-0.2 0.2-0.4 0.4-0.4h3.3c0.2 0 0.4 0.2 0.4 0.4V118z" class="pretzel-c"/><path d="M66.5 155c0 0.2-0.2 0.4-0.4 0.4h-3.3c-0.2 0-0.4-0.2-0.4-0.4v-0.2c0-0.2 0.2-0.4 0.4-0.4h3.3c0.2 0 0.4 0.2 0.4 0.4V155z" class="pretzel-c"/><path d="M169 183.4c0.1 0.2 0.1 0.4 0 0.5l-2.8 2.5c-0.2 0.1-0.4 0.1-0.5 0l-0.5-0.6c-0.1-0.2-0.1-0.4 0-0.5l2.8-2.5c0.2-0.1 0.4-0.1 0.5 0L169 183.4z" class="pretzel-c"/><path d="M173 168.2c-0.1 0.2-0.3 0.2-0.5 0.1l-3.2-1.9c-0.2-0.1-0.2-0.3-0.1-0.5l0.4-0.6c0.1-0.2 0.3-0.2 0.5-0.1l3.2 1.9c0.2 0.1 0.2 0.3 0.1 0.5L173 168.2z" class="pretzel-c"/></svg>
