<svg xmlns="http://www.w3.org/2000/svg" width="165" height="288" viewBox="0 0 164.8 287.9"><style>.read-label-a{fill:#ECEAE8;}.read-label-b{fill:#EF9F2B;}.read-label-c{fill:#FFF;opacity:0.2;}</style><path d="M137.7 9.2c4.2 4 3 15.3-3.2 31.8 -0.1 0.2-0.1 0.4-0.2 0.5 -3.1-0.4-6.2-0.7-9.3-1 -1-0.1-1.9-0.2-2.9-0.3 -14.7-1.4-29.5-2.1-44.2-2.1 -1.5 0-3 0-4.5 0 -0.1 0-0.2 0-0.2 0 -2.5 0-5 0-7.5 0 -0.8 0-1.6 0-2.5 0 -0.7 0-1.5 0-2.2 0 -0.9 0-1.8 0-2.7 0 -0.9 0-1.7 0-2.6 0C38.2 38.5 23 39.4 11.4 40.9c-0.1 0-0.1 0-0.2 0.1 -1.2 0.1-2.3 0.3-3.5 0.4 -0.1-0.2-0.2-0.4-0.3-0.7C3.3 30.7-2.6 13.4 3.2 9.3c3.8-2.8 35.1-8.3 66.3-8.3h1.1c1.5 0 3.1 0 4.6 0C106.1 0.9 134.5 5.9 137.7 9.2z" class="read-label-a"/><path d="M130.1 69.5c-6.3-3.5-94.8-5.8-118.3-2.1 -0.1-14.1-0.1-23.6 0.1-25.5 9.6-1.1 19.4-1.8 29.1-2.3 0 0 0.1 0 0.1 0 7.6-0.3 15.9-0.5 24.6-0.5 33.6 0 61.8 2.1 64.4 3.1 0.2 1.4 0.3 11.7 0.3 27.3H130.1z" class="read-label-b"/><path d="M15.2 236.5l-0.4 0.9 -0.3 0c-1.2-47.6-2.5-127.5-2.7-169 25-4.1 112.3-1.1 117.8 2l0.5-0.9h0.3c0 41.1-0.7 119-1.5 166.5h-0.1l-0.7-0.7C121.9 240.9 50.1 250.4 15.2 236.5z" class="read-label-a"/><path d="M78 38.2c14.7 0 29.5 0.7 44.2 2.1 -10.4-0.9-28.9-1.9-48.7-2C74.9 38.2 76.4 38.2 78 38.2z" class="read-label-a"/><path d="M65.7 38.2c2.5 0 5 0 7.5 0 -0.8 0-1.5 0-2.3 0 -2.6 0-5.1-0.1-7.7-0.1C64.1 38.2 64.9 38.2 65.7 38.2z" class="read-label-a"/><path d="M61 38.2c-0.9 0-1.8 0-2.7 0C59.2 38.2 60.1 38.2 61 38.2z" class="read-label-a"/><path d="M129.6 70.4c-5.5-3.1-92.8-6-117.8-2 0-0.3 0-0.7 0-1 23.5-3.7 112-1.4 118.3 2.1L129.6 70.4z" class="read-label-a"/><path d="M15.2 236.5c34.9 13.8 106.8 4.4 113-1.2l0.7 0.7c-3.6 3.3-24.5 7-46.4 8.2 -4.6 0.3-10.3 0.5-16.6 0.5 -16.2 0-36.3-1.4-51-7.3L15.2 236.5z" class="read-label-a"/><path d="M11.9 41.9c8.1-1.1 17.9-1.8 29.1-2.3 -9.7 0.5-19.5 1.2-29.1 2.3V41.9z" class="read-label-a"/><path d="M82.4 244.2c22-1.2 42.8-4.9 46.4-8.2h0.1c-0.4 22.2-0.7 37.7-1 39.8 -9.5 6.5-31.6 10.9-55.3 10.9 -22.7 0-42.9-3.9-56.8-10.9 -0.3-1.7-0.8-16.7-1.4-38.3l0.3 0c14.7 5.8 34.8 7.3 51 7.3C72.1 244.7 77.8 244.5 82.4 244.2z" class="read-label-b"/><path d="M11.4 40.9C23 39.4 38.2 38.5 55.7 38.2c-14.9 0.2-29.8 1.2-44.5 2.8C11.3 41 11.4 40.9 11.4 40.9z" class="read-label-a"/><path d="M11.2 41c14.7-1.6 29.6-2.6 44.5-2.8 0.9 0 1.7 0 2.6 0 0.9 0 1.8 0 2.7 0 0.7 0 1.5 0 2.2 0 2.6 0 5.1 0 7.7 0.1 0.8 0 1.5 0 2.3 0 0.1 0 0.1 0 0.2 0 19.8 0.2 38.3 1.1 48.7 2.1 1 0.1 1.9 0.2 2.9 0.3 3.3 0.3 5.3 0.7 5.7 1 0.1 0.1 0.2 0.1 0.2 0.6 -19.9-2.2-40.1-3.2-60.1-2.9 -2.6 0-5.1-0.1-7.7-0.1 -7.3 0-14.7 0.2-22.1 0.5 0 0-0.1 0-0.1 0C29.8 40 20 40.8 11.9 41.9v0c-0.3 0-0.7 0.1-1 0.1 0-0.2 0-0.4 0-0.5C11 41.2 11.1 41.1 11.2 41z" class="read-label-a"/><path d="M11.8 67.4c0 0.3 0 0.7 0 1 -0.1 0-0.2 0-0.3 0.1l-0.2-1C11.4 67.5 11.6 67.4 11.8 67.4z" class="read-label-b"/><path d="M130.1 42.3c-2.5-1-30.8-3.1-64.4-3.1 -8.7 0-17 0.2-24.6 0.5 7.4-0.3 14.8-0.5 22.1-0.5 2.6 0 5.1 0 7.7 0.1 20-0.3 40.2 0.7 60.1 2.9 0.3 1.4 0.5 6.6 0.5 27.1 0 33.5-0.5 87.3-1 126.4 -1 80.4-1.5 80.7-1.8 80.9 -9.5 6.7-32 11.2-56 11.2 -23 0-43.4-4-57.4-11.1 -0.4-0.2-0.8-0.4-1.7-36.6 -0.5-20.3-1-48.4-1.5-79.2 -0.9-53.6-1.5-112-1-118.7 0.3 0 0.7-0.1 1-0.1 -0.2 1.9-0.2 11.4-0.1 25.5 -0.2 0-0.3 0.1-0.5 0.1l0.2 1c0.1 0 0.2 0 0.3-0.1 0.3 41.5 1.6 121.4 2.7 169 0.5 21.6 1 36.6 1.4 38.3 13.9 7.1 34 10.9 56.8 10.9 23.6 0 45.8-4.4 55.3-10.9 0.3-2 0.7-17.6 1-39.8 0.8-47.5 1.4-125.3 1.5-166.5C130.4 54 130.3 43.7 130.1 42.3z" class="read-label-b"/><path d="M75.2 0.9c-1.5 0-3.1 0-4.6 0h-1.1c-31.2 0-62.5 5.6-66.3 8.3 -5.9 4.1 0.1 21.5 4.2 31.4 0.1 0.3 0.2 0.5 0.3 0.7 1.2-0.1 2.3-0.3 3.5-0.4 -0.1 0.1-0.2 0.2-0.2 0.4 0 0.1 0 0.3 0 0.5 -1.2 0.1-2.3 0.3-3.5 0.4L6.9 41.9c-0.1-0.2-0.2-0.4-0.3-0.8 -7.3-17.9-8.7-29.2-3.9-32.5 3.9-2.8 35.5-8.5 66.8-8.5h1.1c1.5 0 3.1 0 4.6 0 28.9 0 59.4 4.8 63.2 8.6 5.7 5.5 1.5 20.9-3 32.8 -0.1 0.3-0.2 0.5-0.2 0.6l-0.6 0.5c-1.2-0.1-2.4-0.3-3.5-0.4 -0.1-0.5-0.2-0.5-0.2-0.6 -0.4-0.3-2.5-0.6-5.7-1 3.1 0.3 6.2 0.6 9.3 1 0-0.1 0.1-0.3 0.2-0.5 6.3-16.5 7.4-27.8 3.2-31.8C134.5 5.9 106.1 0.9 75.2 0.9z" class="read-label-a"/><g opacity="0.2"><path d="M131 42.1c0.1 1.2 0.4 4.7 0.2 4.6 -6.6-1.7-17.5-2.1-29.7-3.2 -17.2-1.5-33.6-0.8-33.6-0.3 0.6 47.8 3.8 228 3.8 244.5 0 0.5-34.7 0.2-56.9-11.3 -0.4-0.2-0.2-0.9-1.5-37.2 -0.7-20.3-1.1-48.2-1.6-79 -0.8-52-1.4-108.7-1-118.1 19.3-2.1 38.7-2.8 58.2-2.9 0.4 0 0.8 0 1.2 0 0.1 0 40.7 0.9 60.7 2.9C131 42.1 131 42.1 131 42.1z"/><path d="M70.3 34.9c2.5 0 21.6 0.3 38.3 1.4 14.8 1 27.5 3 27.5 3 -0.1 0.4-1 2.6-1 2.6 -0.2 0.2-0.5 0.5-0.6 0.5 -1-0.1-2.3-0.3-3.5-0.4 -0.6-5.6-53.6-3.2-61.9-3.2 -0.7 0-1.1 0-1.1-0.1 0-2.3-0.5-4.1-1.4-5.5l0.5-0.3C67.8 34.2 68.9 34.9 70.3 34.9z"/><path d="M70.3 39.2c-0.4 0-0.8 0-1.2 0v-0.3c8.3 0 61.3-2.4 61.9 3.2 0 0 0 0 0 0C111 40.1 70.4 39.2 70.3 39.2z"/><path d="M69.1 39.2c-19.5 0-38.8 0.8-58.2 2.9 0-0.6 0.1-1 0.1-1.2 0.1-0.4-0.4-0.4-0.2-0.4 12.2-1.6 48.2-19 55.8-7 0.9 1.4 1.4 3.2 1.4 5.5 0 0 0.4 0.1 1.1 0.1V39.2z"/><path d="M11 40.8c0 0.2-0.1 0.6-0.1 1.2 -1.2 0.1-2.3 0.3-3.5 0.4 -0.1-0.2-0.4-0.1-0.5-0.4C2.9 32-3.7 13.4 2.6 8.7 6.7 5.5 37.4 0 68.6 0c0 0-6.2 25.7-1.5 33l-0.5 0.3c-7.6-12-43.5 5.4-55.8 7.1C10.6 40.4 11.1 40.4 11 40.8z"/></g><path d="M164.3 175c0.6 0.4 0.7 1.2 0.3 2.3 -1.2 3.6-7 9.1-9.5 9.1 -0.3 0-0.5-0.1-0.6-0.2 -1.8-1.6-39.1-34.9-39.5-35.3l-0.2-0.2 -0.2 0.2c-5.6 4.5-12.7 7-19.9 7 -17.5 0-31.7-14.2-31.7-31.7 0-17.5 14.2-31.7 31.7-31.7 17.5 0 31.7 14.2 31.7 31.7 0 5.5-1.4 10.9-4.1 15.6l-0.2 0.3 0.3 0.2C122.6 142.7 162 173.2 164.3 175zM121.8 126.1c0-15.2-12.4-27.6-27.6-27.6 -15.2 0-27.6 12.4-27.6 27.6 0 15.2 12.4 27.6 27.6 27.6C109.4 153.7 121.8 141.3 121.8 126.1z"/><path d="M94.2 99.2c14.8 0 26.9 12.1 26.9 26.9 0 14.8-12.1 26.9-26.9 26.9 -14.8 0-26.9-12.1-26.9-26.9C67.3 111.3 79.4 99.2 94.2 99.2z" fill="#ADD8D8"/><path d="M121.1 126.1c0-14.8-12.1-26.9-26.9-26.9 -14.8 0-26.9 12.1-26.9 26.9 0 14.8 12.1 26.9 26.9 26.9C109.1 153 121.1 141 121.1 126.1zM94.2 98.6c15.2 0 27.6 12.4 27.6 27.6 0 15.2-12.4 27.6-27.6 27.6 -15.2 0-27.6-12.4-27.6-27.6C66.7 110.9 79 98.6 94.2 98.6z"/><path d="M154.4 186.2c0.1 0.1 0.4 0.2 0.6 0.2 2.5 0 8.3-5.6 9.5-9.1 0.4-1.1 0.3-1.9-0.3-2.3 -2.3-1.7-41.6-32.3-42-32.6l-0.3-0.2 0.2-0.3c2.7-4.7 4.1-10.1 4.1-15.6 0-17.5-14.2-31.7-31.7-31.7 -17.5 0-31.7 14.2-31.7 31.7 0 17.5 14.2 31.7 31.7 31.7 7.2 0 14.3-2.5 19.9-7l0.2-0.2 0.2 0.2C115.3 151.3 152.7 184.6 154.4 186.2zM127 126.3c0 5.5-1.4 10.9-4.1 15.7 3.4 2.7 39.6 30.7 41.8 32.4 0.6 0.4 1.2 1.3 0.5 3.1 -1.3 4-7.4 9.6-10.2 9.6 -0.4 0-0.8-0.1-1.1-0.4 -1.7-1.5-36-32.2-39.3-35 -5.7 4.5-12.8 7-20.1 7 -17.9 0-32.4-14.6-32.4-32.4 0-17.9 14.6-32.4 32.4-32.4S127 108.4 127 126.3z"/><path d="M118.4 46.9l5.2 16.3c2 3 4.7 3 4.7 0V50.3C128.3 48.7 123.8 47.5 118.4 46.9z" class="read-label-c"/><path d="M122.4 241.5l-7 36.3c0 3 11.8-0.8 11.8-3.8v-32.6C127.3 238.5 122.4 238.5 122.4 241.5z" class="read-label-c"/><path d="M101.8 103.5c-1.9-0.5-4.1-0.3-5.8 0.7 -0.5 0.3-0.8 0.7-1 1.1 -0.5 0.7-0.6 1.6 0 2.9 0.9 1.8 2.6 2.7 4.4 3.6 3.7 1.9 7.4 3.8 11.1 5.7 1 0.5 2.6-0.3 2.9-1.3C115.2 109.5 107.9 103.9 101.8 103.5z" style="fill:#FFF;opacity:0.4"/></svg>
