<svg xmlns="http://www.w3.org/2000/svg" width="253" height="253" viewBox="0 0 253.4 253.4"><style>.tea-a{fill:#FBFBFB;}.tea-b{fill:#DBDBD9;}.tea-c{fill:#FFF;}.tea-d{fill:#5B4627;}.tea-e{fill:#78A56D;}</style><circle cx="126.7" cy="126.7" r="126.7" fill="#F4F2DC"/><path d="M215.1 89.3c0.5 2.5 0.7 5.1 0.6 7.7 -0.1 5.1-1.8 9.9-4.6 14.1 -2.2 3.3-5.1 5.9-8.2 8.2 -2.7 2.1-5.6 4-8.5 5.9 0 0 0 0 0 0l-0.1 0.1c-3.9 2.5-8 4.8-12 7.1 -3.5 2-7.1 3.9-10.4 6.2 -2.4 1.7-4.8 3.5-7.2 5.2 -1.5 1.1-3 2.3-4.7 3.2 1-1.1 2-2.2 2.9-3.3 3.3-3.9 6.8-8.9 10-15.1 4.7-0.7 9.1-2.6 13.3-4.8 3.8-2 7.5-4.3 10.9-6.9 6.7-5 13.7-12.2 13.2-21.2 -0.3-4.9-3.3-10.2-7.9-12.1 -0.9-0.4-1.9-0.6-3-0.7 -2.9-0.2-6 1-8.6 2.2 -2.5 1.2-5 2.9-6.7 5.2 0.3-2.8 0.6-5.7 0.8-8.8 5.5-4.3 13.4-5.8 20-3.8 1.7 0.5 3.3 1.3 4.7 2.3 1.4 1 2.5 2.2 3.5 3.7C214.1 85.4 214.7 87.3 215.1 89.3z" class="tea-a"/><path d="M207.5 88.4c2.8 4.2 3.1 9.4 1.4 14 -1.7 4.6-5.2 8.3-8.9 11.5 -3.5 3.1-7.4 5.7-11.5 8.1 -4.8 2.7-9.9 5.2-15.4 6.1 0.7-1.4 1.4-2.8 2.1-4.4 0 0 0 0 0 0 3.3-1.1 6.6-2.4 9.8-4.1 1.3-0.7 2.6-1.4 3.9-2.2 4-2.5 7.5-5.9 10.5-9.5 3-3.6 5.9-7.5 6.5-12.2 0.3-2.2-0.1-4.4-0.7-6.5 -0.5-1.8-1.2-3.6-2.3-5C204.8 85.1 206.3 86.7 207.5 88.4z" class="tea-b"/><path d="M209.6 80c-1.1-0.9-2.3-1.7-3.5-2.3 1.3 0.5 2.5 1.2 3.7 2 0 0 0.1 0.1 0.1 0.1C210.1 79.8 209.8 80.1 209.6 80z" class="tea-b"/><path d="M207.9 153.5c-0.2 1-0.5 2-0.9 3.1 0.3-1 0.5-2.1 0.6-3.1L207.9 153.5z" class="tea-b"/><path d="M206.1 77.6c-6.8-2.6-15.5-0.9-21.2 3.4 0.1-1.7 0.2-3.5 0.2-5.3 0-0.2 0-0.3 0-0.5 0 0 0 0 0.1 0 3.9-1.8 8.4-1.6 12.5-0.7C200.7 75.1 203.5 76.1 206.1 77.6z" class="tea-b"/><path d="M202.2 83.8c-0.1-0.2 0.1-0.3 0.2-0.3 0 0 0 0 0.1 0 0.2 0.2 0.3 0.4 0.4 0.5C202.7 84.1 202.4 83.9 202.2 83.8z" class="tea-b"/><path d="M199.2 122.5c-1.5 1-3 2-4.5 2.9 -0.1-0.1-0.2-0.1-0.3-0.2 2.9-1.8 5.8-3.8 8.5-5.9 3.1-2.4 6-5 8.2-8.2 2.8-4.2 4.4-9.1 4.6-14.1 0.1-2.6-0.2-5.1-0.6-7.7 -0.4-2-1-3.9-2-5.6 -0.9-1.5-2.1-2.7-3.4-3.7l0 0c0.2 0.2 0.5-0.1 0.3-0.3 0.5 0.3 0.9 0.7 1.3 1.1 2.8 2.7 3.9 6.1 4.5 9.8 0.7 4.6 0.6 9.4-0.9 13.9 -1.4 4.1-3.7 8-6.9 11C205.3 118.2 202.2 120.4 199.2 122.5z" class="tea-b"/><path d="M194.4 125.2c0.1 0.1 0.2 0.1 0.3 0.2 -0.1 0.1-0.2 0.1-0.3 0.2 -0.1-0.1-0.1-0.1-0.2-0.2l0.1-0.2C194.3 125.2 194.4 125.2 194.4 125.2z" class="tea-b"/><path d="M194.4 125.2c0 0-0.1 0.1-0.1 0.1l0.1-0.1C194.4 125.2 194.4 125.2 194.4 125.2z" class="tea-b"/><path d="M205 77.7c-6.7-2-14.5-0.5-20 3.8 0-0.2 0-0.3 0-0.5 5.6-4.3 14.4-6 21.2-3.4 1.2 0.7 2.4 1.5 3.5 2.4l0 0C208.2 79 206.6 78.2 205 77.7z" class="tea-b"/><path d="M185.2 119.3c0 0-0.1 0-0.1 0 1.2-0.6 2.3-1.2 3.4-1.9 3.8-2.4 7.2-5.5 10.2-8.9 2.9-3.4 6.2-7.5 6.9-12.1 0.6-4.1-0.5-9.2-3.3-12.4 0 0 0 0 0 0 0.3 0.1 0.5 0.2 0.7 0.3 1.1 1.5 1.9 3.2 2.3 5 0.6 2.1 0.9 4.3 0.7 6.5 -0.5 4.7-3.5 8.7-6.5 12.2 -3 3.6-6.5 7-10.5 9.5 -1.3 0.8-2.6 1.5-3.9 2.2l0-0.1L185.2 119.3z" class="tea-b"/><path d="M185.2 74.8c3.9-1.8 8.6-1.6 12.7-0.7 4.3 1 8.5 2.7 11.9 5.5 -1.1-0.8-2.4-1.5-3.7-2 -2.6-1.5-5.5-2.5-8.3-3.1 -4.1-0.9-8.6-1.1-12.5 0.7 0 0 0 0-0.1 0C185.2 75.1 185.2 75 185.2 74.8z" class="tea-b"/><path d="M185.1 74.9c0 0 0.1 0 0.1-0.1 0 0.1 0 0.3 0 0.4C185 75.2 184.9 75 185.1 74.9z" class="tea-b"/><path d="M185.2 119.3l-0.2 0.3c-0.1-0.1-0.2-0.1-0.3-0.2 0.1-0.1 0.3-0.1 0.4-0.2C185.1 119.3 185.2 119.3 185.2 119.3z" class="tea-b"/><path d="M184.8 77.4c0-0.7 0-1.4 0-2.1l0.3 0c0 0.1 0 0.2 0 0.3C185.1 76.3 185 76.9 184.8 77.4z" class="tea-b"/><path d="M185.1 119.2c-0.1 0.1-0.3 0.1-0.4 0.2 -2-1.1-4.2-2.1-6.5-3.1 0-0.1 0.1-0.2 0.1-0.4C180.7 117 183 118.1 185.1 119.2z" class="tea-b"/><path d="M185.2 75.7c0 1.8-0.1 3.6-0.2 5.3 -0.1 0.1-0.2 0.2-0.3 0.2 0 0-0.1 0.1-0.1 0.1 0.1-1.3 0.1-2.5 0.2-3.8C185 76.9 185.1 76.3 185.2 75.7z" class="tea-b"/><path d="M184.9 81.5c-0.1 0.1-0.3 0-0.3-0.1 0 0 0 0 0 0 0 0 0-0.1 0.1-0.1 0.1-0.1 0.2-0.2 0.3-0.2 0 0.2 0 0.3 0 0.5C184.9 81.4 184.9 81.5 184.9 81.5z" class="tea-b"/><path d="M184.2 90.2c0 0.3-0.1 0.5-0.1 0.8 -0.1 0.1-0.3 0-0.3-0.1 0 0 0-0.1 0-0.1C183.9 90.6 184.1 90.4 184.2 90.2z" class="tea-b"/><path d="M195.5 83.7c-4.2 1.1-9 3.5-11.4 7.3 0 0 0 0 0 0 0-0.3 0.1-0.5 0.1-0.8 1.7-2.3 4.2-4 6.7-5.2 2.6-1.2 5.6-2.5 8.6-2.2 1.1 0.1 2.1 0.3 3 0.7l0 0c-0.1-0.1-0.3 0.1-0.2 0.3 0 0 0 0-0.1 0C200 83 197.8 83.1 195.5 83.7z" class="tea-b"/><path d="M184.9 81.4c-0.2 3-0.4 6-0.8 8.8 -0.1 0.2-0.3 0.4-0.4 0.6 0 0 0 0.1 0 0.1 0.4-3.1 0.7-6.3 0.8-9.6 0 0.1 0.2 0.2 0.3 0.1C184.9 81.5 184.9 81.4 184.9 81.4z" class="tea-b"/><path d="M183.8 90.9c0 0.1 0.2 0.2 0.3 0.1 -1.2 9.5-3.2 17.8-5.7 25 -0.1 0-0.2-0.1-0.3-0.1C180.6 108.7 182.6 100.4 183.8 90.9z" class="tea-b"/><path d="M184.7 119.5c-3 1.5-6.1 2.8-9.2 3.8 1-2.2 1.9-4.5 2.8-6.9C180.5 117.3 182.7 118.4 184.7 119.5z" class="tea-a"/><path d="M165.9 58.3c10.5 4.5 17 10.3 17 15.2 0 2.6-1.7 5.4-4.9 8.2 -0.8-2.2-3.8-5-8.6-7.8 -5.2-3.1-12.1-6-19.4-8.1 -9.6-2.8-24.6-5.7-41.6-3.7 -16.8 2-31.5 8.3-43.6 18.9 -2.6-2.7-4-5.5-3.9-8.3 0.1-4.9 6.5-10.4 17.2-14.7 12-4.8 27.6-7.5 44-7.5C138.3 50.3 153.9 53.2 165.9 58.3z" class="tea-b"/><path d="M185 119.7c-3.1 1.6-6.4 2.9-9.8 4.1 0 0 0 0 0 0 0.1-0.2 0.1-0.3 0.2-0.5 3.1-1.1 6.3-2.3 9.2-3.8 0.1 0.1 0.2 0.1 0.3 0.2L185 119.7z" class="tea-b"/><path d="M173.2 128.1c5.5-0.9 10.6-3.3 15.4-6.1 4-2.3 8-5 11.5-8.1 3.6-3.2 7.2-6.9 8.9-11.5 1.7-4.6 1.4-9.9-1.4-14 -1.2-1.7-2.7-3.3-4.6-4.3 -0.1-0.2-0.3-0.4-0.4-0.5 0 0 0 0-0.1 0l0 0c4.6 1.9 7.6 7.2 7.9 12.1 0.6 9-6.5 16.2-13.2 21.2 -3.4 2.6-7.1 4.9-10.9 6.9 -4.2 2.2-8.6 4-13.3 4.8C173 128.4 173.1 128.2 173.2 128.1z" class="tea-b"/><path d="M183.2 73.4c0-5-6.1-10.6-16.4-15.1 11.3 4.7 18.1 10.8 18.1 16.5 0 0.2 0 0.4 0 0.6 -0.8 11.6-27.7 24.3-63.4 24.5 -12.3 0-24-1.3-34-4.1 0.2-1 0.4-2 0.7-2.9 1.8 0.5 3.7 0.9 5.7 1.3 8.4 1.7 17.8 2.6 27.7 2.6 0.2 0 0.4 0 0.6 0 16.7-0.1 32.4-2.9 44.3-8C176.9 84.3 183.2 78.6 183.2 73.4z" class="tea-c"/><path d="M178 115.9c0.1 0 0.2 0.1 0.3 0.1 0 0.1-0.1 0.2-0.1 0.4 -0.1 0-0.2-0.1-0.3-0.1C178 116.1 178 116 178 115.9z" class="tea-b"/><path d="M177.9 115.8c0 0 0.1 0 0.2 0.1 0 0.1-0.1 0.2-0.1 0.4 -0.1 0-0.1 0-0.2-0.1L177.9 115.8z" class="tea-b"/><path d="M178 81.6c0 0.1 0 0.1 0.1 0.2l-0.4 0.1c0 0 0 0 0-0.1C177.8 81.8 177.9 81.7 178 81.6z" class="tea-b"/><path d="M177.7 81.9c-2.8 2.4-6.7 4.6-11.4 6.7 -11.9 5.1-27.5 7.9-44.2 7.9 -9 0-17.8-0.7-25.6-2.1 0.4-2.9-0.5-7.3-3.3-8.9 -2.8-1.7-5.3 2-6.3 4.1 -0.4 0.8-0.7 1.6-1.1 2.4 -9.4-2.8-16.5-6.5-20.8-10.7 12.1-10.5 26.7-16.8 43.4-18.8 16.9-2 31.8 0.9 41.4 3.7C165.6 70.7 176.3 77.7 177.7 81.9z" class="tea-d"/><path d="M175.3 123.7c-0.2 0-0.3-0.2-0.2-0.3 0 0 0.1-0.1 0.1-0.1 0.1 0 0.2-0.1 0.3-0.1C175.4 123.4 175.3 123.6 175.3 123.7z" class="tea-b"/><path d="M178.2 116.4c-0.9 2.4-1.8 4.7-2.8 6.9 -0.1 0-0.2 0.1-0.3 0.1 0 0-0.1 0-0.1 0.1l0 0c1-2.3 2-4.7 2.9-7.2C178 116.3 178.1 116.3 178.2 116.4z" class="tea-b"/><path d="M175.1 123.4c-0.1 0.1 0 0.3 0.2 0.3 -0.7 1.5-1.4 3-2.1 4.4 -0.1 0-0.2 0-0.3 0.1 0 0-0.1 0-0.1 0.1 0.8-1.5 1.6-3.1 2.3-4.8L175.1 123.4z" class="tea-b"/><path d="M173.2 128.1c-0.1 0.1-0.1 0.3-0.2 0.4 0 0 0 0 0 0 -0.2 0-0.3-0.1-0.2-0.3 0 0 0 0 0 0 0 0 0.1 0 0.1-0.1C172.9 128.1 173.1 128.1 173.2 128.1z" class="tea-b"/><path d="M164.7 143.7c2.4-1.8 4.7-3.5 7.2-5.2 3.3-2.3 6.9-4.2 10.4-6.2 4-2.3 8.1-4.6 12-7.1l-0.1 0.2c0.1 0.1 0.1 0.1 0.2 0.2 -5 3.1-10.1 6-15.2 8.9 -3.3 1.8-6.5 3.8-9.5 6 -3.4 2.5-6.6 5.3-10.4 7.3 0 0 0 0-0.1 0 0.3-0.3 0.6-0.6 0.9-0.9C161.7 146 163.2 144.8 164.7 143.7z" class="tea-b"/><path d="M160 147c-0.3 0.3-0.6 0.6-0.9 0.9 -0.2 0-0.3-0.2-0.2-0.3 0 0 0 0 0 0C159.4 147.3 159.7 147.2 160 147z" class="tea-b"/><path d="M173 128.5c-3.2 6.2-6.7 11.2-10 15.1 -1 1.1-1.9 2.2-2.9 3.3 -0.3 0.2-0.6 0.4-1 0.5 0 0 0 0 0 0l0 0c1.3-1.3 2.5-2.7 3.7-4.1 3.3-3.9 6.8-8.9 10-15.2 0 0.1 0.1 0.3 0.2 0.3C172.9 128.5 173 128.5 173 128.5z" class="tea-b"/><path d="M79.3 147c1.8 2.2 3.7 4.1 5.6 5.8 -0.4 0.9-0.6 1.8-0.6 2.7 0 8 15.9 14.5 35.5 14.5s35.5-6.5 35.5-14.5c0-1.1-0.3-2.1-0.8-3.1l-0.1 0c1.7-1.4 3.3-3 4.9-4.6 0 0 0 0 0.1 0 3.7-1.9 7-4.8 10.4-7.3 3.1-2.2 6.2-4.2 9.5-6 5.1-2.9 10.3-5.8 15.2-8.9 9 6.9 13.7 14.9 13.7 23.2 0 11.4-9.2 22.8-25.4 31.3 -16.6 8.7-38.4 13.6-61.4 13.6 -23 0-44.8-4.8-61.4-13.6 -10.5-5.5-18-12.3-22.1-19.5 -1.1-2.3-2.1-4.7-2.8-7.3 0 0 0 0 0 0 -0.3-1.5-0.5-3-0.5-4.6 0-12.3 10.7-24.1 29.4-32.2C67.6 128.9 72.7 139.1 79.3 147z" class="tea-a"/><path d="M154 152.6l0.3-0.1c-0.1 0.1-0.2 0.1-0.2 0.2C154 152.6 154 152.6 154 152.6z" class="tea-b"/><path d="M154 152.7c0.5 0.9 0.8 1.9 0.8 2.9 0 7.8-15.7 14.1-35.1 14.1 -19.4 0-35.1-6.3-35.1-14.1 0-0.8 0.2-1.6 0.5-2.5 11.9 10.6 25.3 13 35.1 13C131.9 166.1 143.7 161.3 154 152.7z" fill="#EAEAEA"/><path d="M166.8 58.3c-11.4-4.8-27.4-8.2-45.4-8.2 -4.7 0-9.4 0.2-13.9 0.6 4.7-0.5 9.6-0.7 14.5-0.7 16.3 0 31.9 2.8 44 7.9C166.3 58.1 166.5 58.2 166.8 58.3z" class="tea-b"/><path d="M114.1 132.8c3.3 9.5-0.4 19.5-8.3 22.3 -1.4 0.5-2.8 0.7-4.3 0.7 -6.8 0-13.4-5.3-16.1-12.8 -1.6-4.6-1.7-9.4-0.1-13.6 1.2-3.2 3.2-5.8 5.8-7.4 0 0 0 0 0 0 0.1 0 0.1 0 0.1-0.1 0.8-0.5 1.6-0.8 2.4-1.1 1.4-0.5 2.8-0.7 4.3-0.7C104.8 120 111.5 125.3 114.1 132.8zM112.4 145.5c1.4-3.8 1.4-8.1-0.1-12.2 -2.4-6.7-8.3-11.5-14.4-11.5 -1.3 0-2.6 0.2-3.9 0.7 -3.4 1.2-6.1 4-7.5 7.7 -1.4 3.8-1.4 8.1 0.1 12.2 2.4 6.8 8.3 11.5 14.4 11.5 1.3 0 2.6-0.2 3.9-0.7C108.4 152.1 111 149.3 112.4 145.5z" class="tea-c"/><path d="M87.4 95.8c10 2.7 21.7 4.1 34 4.1 35.7-0.2 62.6-12.9 63.4-24.5h0c0 0.7 0 1.4 0 2.1 -3.6 11.1-29.5 22.6-63.4 22.8 -0.2 0-0.5 0-0.7 0 -12 0-23.6-1.4-33.4-4.1C87.3 96 87.3 95.9 87.4 95.8z" class="tea-b"/><path d="M112.1 133.5c1.4 4 1.5 8.3 0.1 12 -1.4 3.7-4 6.4-7.3 7.5 -1.2 0.4-2.5 0.6-3.8 0.6 -6 0-11.8-4.6-14.1-11.3 -1.4-4-1.5-8.3-0.1-12 1.4-3.7 4-6.4 7.3-7.5 1.2-0.4 2.5-0.6 3.8-0.6C103.9 122.2 109.7 126.8 112.1 133.5z" class="tea-c"/><path d="M85.3 152.8c11.8 10.6 25.2 13 34.9 13 13.6 0 27.6-6.6 38.8-18.2l0 0c-0.1 0.1 0 0.3 0.2 0.3 -1.6 1.6-3.2 3.2-4.9 4.6l-0.3 0.1c0 0 0 0 0 0.1 -10.3 8.7-22.2 13.4-33.8 13.4 -9.8 0-23.2-2.4-35.1-13 0-0.1 0.1-0.2 0.1-0.3L85.3 152.8z" class="tea-b"/><path d="M96 92.1c0.1 0.7 0.1 1.5 0 2.2 -0.7-0.1-1.4-0.3-2-0.4 0.2-1.2 0-2.4-0.2-3.6 -0.2-1-0.6-2.3-1.6-2.7 -1.2-0.5-2.4 1.4-2.9 2.1 -1.1 1.6-1.7 3.6-2.1 5.6 -0.1 0.3-0.1 0.5-0.1 0.8 -0.5 3.5 0.1 6.8 1.3 10.2 1.5 4.1 3.7 8 4.5 12.3 0.1 0.7 0.2 1.4 0.1 2.1 0 0 0 0 0 0.1 -0.5 0.2-1 0.5-1.5 0.8 -0.3-4.3-2.2-8.2-3.8-12.1 -0.9-2.1-1.7-4.3-2.2-6.5 -0.5-2.2-0.8-4.9-0.3-7.2 0.8-3.1 1.9-6.8 4.3-9.1 1.3-1.3 3.1-1.5 4.5-0.1C95.2 87.8 95.8 90.1 96 92.1z" class="tea-b"/><path d="M96 94.3c0.1 0 0.2 0 0.4 0.1 0 0 0 0 0 0.1 0 0.2-0.4 0.1-0.4-0.1C96 94.3 96 94.3 96 94.3z" class="tea-b"/><path d="M93.8 94.2c-0.1 0-0.2-0.1-0.2-0.2 0 0 0-0.1 0-0.1 0.1 0 0.2 0 0.4 0.1 0 0.1 0 0.1 0 0.2C93.9 94.2 93.8 94.2 93.8 94.2z" class="tea-b"/><path d="M90.7 88.5c2.4-2.4 3.1 3.6 2.9 5.3 -1.9-0.4-3.7-0.8-5.4-1.3C88.8 91 89.6 89.6 90.7 88.5z" class="tea-d"/><path d="M93.8 94.2c-1.9-0.4-3.8-0.8-5.7-1.3 0-0.1 0.1-0.2 0.1-0.3 1.7 0.5 3.6 0.9 5.4 1.3 0 0 0 0.1 0 0.1 0 0.1 0.1 0.2 0.2 0.2V94.2z" class="tea-b"/><path d="M93.6 120.4c-0.1 0-0.3 0.1-0.4 0.1 0.2-3.5-1.7-7.1-3-10.3 -1.5-3.6-3-7.2-3.1-11.1 0-1 0-2 0.2-3 9.8 2.7 21.4 4.1 33.4 4.1 0.2 0 0.5 0 0.7 0 33.8-0.1 59.7-11.7 63.4-22.8 0 1.3-0.1 2.6-0.2 3.8 0 0 0 0 0 0 -0.2 3.3-0.5 6.5-0.8 9.6 -1.2 9.5-3.2 17.8-5.7 25 0 0-0.1 0-0.1-0.1l-0.1 0.3c0.1 0 0.1 0 0.2 0.1 -0.9 2.5-1.9 4.9-2.9 7.2 -0.7 1.7-1.5 3.3-2.3 4.8 0 0 0 0 0 0 -3.2 6.2-6.7 11.2-10 15.2 -1.2 1.4-2.4 2.8-3.7 4.1 -11.3 11.6-25.2 18.2-38.8 18.2 -9.7 0-23.1-2.4-34.9-13 -2-1.8-3.9-3.7-5.7-6 -12.6-15.1-19.7-38.7-21.1-70.1 2.2 7.4 11.9 14.3 26.3 18.7 -0.3 1.4-0.4 2.8-0.3 4.2 0.3 4.5 2.3 8.7 4 12.8 1.2 3 2.4 6 2.6 9.3 -2.6 1.7-4.7 4.3-5.9 7.5 -1.6 4.3-1.6 9.2 0.1 13.9 2.7 7.7 9.5 13.1 16.4 13.1 1.5 0 3-0.3 4.4-0.8 8.1-2.9 11.9-13 8.5-22.7 -2.7-7.7-9.5-13.1-16.4-13.1C96.5 119.7 95 119.9 93.6 120.4z" class="tea-a"/><path d="M93.2 120.6c0 0.2-0.3 0.2-0.4 0.1 0.1-0.1 0.2-0.1 0.4-0.1C93.2 120.6 93.2 120.6 93.2 120.6z" class="tea-b"/><path d="M91.3 121.8c0 0 0 0.1 0 0.1 0 0-0.1 0-0.1 0.1 0 0 0 0 0 0 -0.1 0-0.2 0-0.2-0.2 0 0 0-0.1 0-0.1 0.1-0.1 0.2-0.1 0.4-0.2C91.3 121.6 91.3 121.7 91.3 121.8z" class="tea-b"/><path d="M91.2 121.9c0 0 0.1-0.1 0.1-0.1C91.3 121.9 91.2 121.9 91.2 121.9z" class="tea-b"/><path d="M84.6 155.6c0 7.8 15.7 14.1 35.1 14.1 19.4 0 35.1-6.3 35.1-14.1 0-1-0.3-1.9-0.7-2.9 0.1-0.1 0.2-0.1 0.2-0.2l0.1 0c0.5 1 0.8 2.1 0.8 3.1 0 8-15.9 14.5-35.5 14.5s-35.5-6.5-35.5-14.5c0-0.9 0.2-1.8 0.6-2.7 0.1 0.1 0.2 0.2 0.3 0.3C84.8 153.9 84.6 154.7 84.6 155.6z" class="tea-b"/><path d="M88 92.5c0.1 0 0.2 0 0.2 0.1 0 0.1-0.1 0.2-0.1 0.3 -0.1 0-0.1 0-0.2-0.1L88 92.5z" class="tea-b"/><path d="M87.1 95.7c0.1 0 0.2 0 0.2 0.1 0 0.1 0 0.3-0.1 0.4 -0.1 0-0.2 0-0.3-0.1L87.1 95.7z" class="tea-b"/><path d="M88 92.5l-0.1 0.3c0.1 0 0.1 0 0.2 0.1 -0.3 0.9-0.6 1.9-0.7 2.9 -0.1 0-0.2 0-0.2-0.1l-0.1 0.4 -0.1 0c0-0.3 0.1-0.5 0.1-0.8 0.4-1.9 1-3.9 2.1-5.6 0.5-0.8 1.7-2.6 2.9-2.1 1 0.4 1.4 1.7 1.6 2.7 0.2 1.1 0.4 2.4 0.2 3.6 -0.1 0-0.2 0-0.4-0.1 0.2-1.7-0.5-7.7-2.9-5.3 -1.1 1.1-1.9 2.5-2.5 4C88.1 92.5 88 92.5 88 92.5z" class="tea-b"/><path d="M90.2 110.2c1.3 3.2 3.2 6.8 3 10.3v0c-0.1 0-0.3 0.1-0.4 0.2 0 0 0 0 0-0.1 0-0.7 0-1.4-0.1-2.1 -0.8-4.3-3-8.2-4.5-12.3 -1.2-3.3-1.8-6.7-1.3-10.2l0.1 0c0.1 0 0.2 0 0.3 0.1 -0.1 1-0.2 2-0.2 3C87.2 103 88.7 106.7 90.2 110.2z" class="tea-b"/><path d="M85.9 91.9l-0.1 0.3c-0.1 0-0.1 0-0.2-0.1 0-0.1 0.1-0.2 0.1-0.3C85.8 91.9 85.9 91.9 85.9 91.9z" class="tea-b"/><path d="M86.6 130.3c1.4-3.8 4.1-6.5 7.5-7.7 1.2-0.4 2.6-0.7 3.9-0.7 6.1 0 12 4.7 14.4 11.5 1.4 4.1 1.5 8.4 0.1 12.2 -1.4 3.8-4.1 6.5-7.5 7.7 -1.2 0.4-2.6 0.7-3.9 0.7 -6.1 0-12-4.7-14.4-11.5C85.2 138.4 85.2 134 86.6 130.3zM86.9 142.4c2.3 6.6 8.2 11.3 14.1 11.3 1.3 0 2.6-0.2 3.8-0.6 3.4-1.2 6-3.9 7.3-7.5 1.4-3.7 1.4-7.9-0.1-12 -2.3-6.6-8.2-11.3-14.1-11.3 -1.3 0-2.6 0.2-3.8 0.6 -3.4 1.2-6 3.9-7.3 7.5C85.5 134.1 85.5 138.3 86.9 142.4z" fill="#285B18"/><path d="M85.3 152.8c0 0.1-0.1 0.2-0.1 0.3 -0.1-0.1-0.2-0.2-0.3-0.3 0-0.1 0.1-0.1 0.1-0.2L85.3 152.8z" class="tea-b"/><path d="M108.4 62.3c-16.7 2-31.3 8.3-43.4 18.8 -0.1-0.1-0.2-0.2-0.3-0.3 12.2-10.6 26.9-16.9 43.6-18.9 16.9-2 31.9 0.9 41.6 3.7 7.3 2.1 14.2 5 19.4 8.1 4.8 2.8 7.8 5.6 8.6 7.8v0c-0.1 0.1-0.2 0.2-0.3 0.3 -1.3-4.2-12-11.2-27.8-15.8C140.3 63.3 125.3 60.4 108.4 62.3z" class="tea-b"/><path d="M84.9 95.1l-0.1 0.4c0 0 0 0-0.1 0 0-0.1 0-0.2 0.1-0.4C84.8 95.1 84.9 95.1 84.9 95.1z" class="tea-b"/><path d="M84.9 95.1c0 0-0.1 0-0.1 0 0.2-1 0.5-1.9 0.8-2.9 0.1 0 0.1 0 0.2 0.1l0.1-0.3c0 0-0.1 0-0.1 0 0.3-0.8 0.7-1.6 1.1-2.4 1-2.1 3.5-5.8 6.3-4.1 2.7 1.6 3.7 6 3.3 8.9 -0.1 0-0.2 0-0.4-0.1 0.1-0.7 0.1-1.5 0-2.2 -0.2-1.9-0.8-4.2-2.3-5.7 -1.4-1.4-3.2-1.2-4.5 0.1 -2.4 2.3-3.5 6-4.3 9.1 -0.6 2.3-0.3 4.9 0.3 7.2 0.5 2.2 1.3 4.4 2.2 6.5 1.6 3.9 3.5 7.9 3.8 12.1 -0.1 0.1-0.2 0.1-0.4 0.2 -0.2-3.2-1.3-6.3-2.6-9.2 -1.7-4.1-3.7-8.3-4-12.8 -0.1-1.4 0-2.8 0.3-4.2 0 0 0 0 0.1 0L84.9 95.1z" class="tea-b"/><path d="M85.3 129.3c-1.6 4.2-1.5 9.1 0.1 13.6 2.7 7.6 9.3 12.8 16.1 12.8 1.5 0 2.9-0.2 4.3-0.7 7.9-2.8 11.6-12.8 8.3-22.3 -2.7-7.6-9.3-12.8-16.1-12.8 -1.5 0-2.9 0.2-4.3 0.7 -0.8 0.3-1.6 0.7-2.4 1.1 0 0 0-0.1 0-0.1 0-0.1 0-0.2 0-0.3 0.5-0.3 1-0.5 1.5-0.8 0 0.2 0.4 0.2 0.4-0.1 0 0 0-0.1 0-0.1v0c0.1 0 0.3-0.1 0.4-0.1 1.4-0.5 2.9-0.8 4.4-0.8 7 0 13.7 5.4 16.4 13.1 3.4 9.7-0.4 19.8-8.5 22.7 -1.4 0.5-2.9 0.8-4.4 0.8 -7 0-13.7-5.4-16.4-13.1 -1.7-4.7-1.7-9.6-0.1-13.9 1.2-3.3 3.3-5.9 5.9-7.5 0 0 0 0.1 0 0.1 0 0.1 0.1 0.2 0.2 0.2C88.6 123.6 86.5 126.1 85.3 129.3z" class="tea-b"/><path d="M77.9 57.5c-10.8 4.4-17.4 10-17.4 15 -0.1 7.5 9.5 15 25.2 19.6 -0.3 0.9-0.6 1.9-0.8 2.9 -15.8-4.8-25.7-12.6-26.4-20.7 0-0.3 0-0.6 0-0.8H58.3c0-0.1 0-0.1 0-0.2 0.1-5.7 6.7-11.4 18.1-15.9 8.6-3.3 19.1-5.6 30.5-6.6C96.2 51.9 86.2 54.2 77.9 57.5z" class="tea-c"/><path d="M65 81.1c0 0-0.1 0.1-0.1 0.1l-0.2-0.3c0 0 0.1-0.1 0.1-0.1C64.8 80.9 64.9 81 65 81.1z" class="tea-b"/><path d="M84.8 152.8c-1.9-1.7-3.8-3.7-5.6-5.8 -6.6-7.9-11.7-18.1-15.2-30.5 0 0 0 0 0 0l0-0.1c-3.4-11.9-5.4-25.8-6-41.7 0.1 0.7 0.2 1.3 0.4 2 1.4 31.4 8.5 54.9 21.1 70.1 1.9 2.2 3.8 4.2 5.7 6l0 0 -0.3-0.2C84.9 152.7 84.9 152.8 84.8 152.8z" class="tea-b"/><path d="M64 116.5l0 0.1c0 0 0 0 0 0C64 116.5 64 116.5 64 116.5z"/><path d="M58.4 74.3c0.7 8.1 10.7 16 26.4 20.7 0 0.1 0 0.2-0.1 0.4C70.3 91.1 60.7 84.1 58.5 76.8 58.4 75.9 58.4 75.1 58.4 74.3z" class="tea-b"/><path d="M85.6 92.2c-15.6-4.6-25.3-12.1-25.2-19.6 0.1-5.1 6.6-10.7 17.4-15 8.3-3.3 18.3-5.6 29-6.7 0.2 0 0.4 0 0.5-0.1 4.5-0.4 9.2-0.6 13.9-0.6 18 0 33.9 3.4 45.4 8.2 10.3 4.5 16.4 10.2 16.4 15.2 0 5.1-6.3 10.9-16.8 15.4 -11.9 5.1-27.6 7.9-44.3 8 -0.2 0-0.4 0-0.6 0 -9.8 0-19.3-0.9-27.7-2.6v0c0.1 0 0.2 0 0.2-0.1 0-0.1 0-0.1 0-0.2 0.7 0.1 1.3 0.3 2 0.4 0 0 0 0 0 0 0 0.2 0.3 0.3 0.4 0.1 0 0 0 0 0-0.1 7.9 1.4 16.6 2.1 25.6 2.1 16.6-0.1 32.3-2.9 44.2-7.9 4.8-2 8.6-4.3 11.4-6.7 0 0 0 0 0 0.1l0.4-0.1c0-0.1 0-0.1-0.1-0.2v0c3.2-2.7 4.9-5.5 4.9-8.2 0-4.9-6.5-10.7-17-15.2 -12-5.1-27.6-7.9-43.8-7.9 -16.4 0-32 2.7-44 7.5 -10.7 4.3-17.2 9.8-17.2 14.7 0 2.8 1.3 5.6 3.9 8.3 0 0-0.1 0.1-0.1 0.1l0.2 0.3c0 0 0.1-0.1 0.1-0.1 4.2 4.2 11.4 8 20.8 10.7C85.7 92 85.7 92.1 85.6 92.2z" class="tea-b"/><path d="M58.4 74.3c0 0.8 0.1 1.6 0.1 2.4 -0.2-0.7-0.3-1.3-0.4-2 0-0.4 0-0.9 0-1.3l0.3 0C58.3 73.8 58.4 74 58.4 74.3z" class="tea-b"/><path d="M58.4 73.5c0 0.3 0 0.6 0 0.8 0-0.3 0-0.6 0-0.8H58.4z" class="tea-b"/><path d="M58 73.3c0.1-5.8 6.8-11.7 18.4-16.2 12.2-4.7 28.2-7.3 45-7.3 16.7 0 32.8 2.9 45.3 8.1 11.6 4.8 18.5 11.2 18.5 17 0 0 0 0 0 0 0 0-0.1 0-0.1 0.1 -0.2 0.1-0.1 0.4 0.1 0.3 0 0.2 0 0.3 0 0.5 0-0.1 0-0.2 0-0.3l-0.3 0h0c0-0.2 0-0.4 0-0.6 0-5.7-6.8-11.8-18.1-16.5 -0.2-0.1-0.5-0.2-0.8-0.3 -12.1-5.1-27.7-7.9-44-7.9 -4.9 0-9.8 0.2-14.5 0.7 -0.2 0-0.4 0-0.5 0.1 -11.4 1-21.9 3.3-30.5 6.6C65 61.9 58.4 67.6 58.3 73.3c0 0.1 0 0.1 0 0.2l-0.3 0c0 0.4 0 0.9 0 1.3C58 74.3 58 73.8 58 73.3z" class="tea-b"/><path d="M40.1 164.7c4.4 5.8 11 11.2 19.7 15.7 16.7 8.8 38.5 13.6 61.5 13.6 23 0 44.9-4.8 61.5-13.6 12.6-6.6 21-15 24.2-23.9 -2.7 10.3-11.4 19.6-25.4 26.9 -14.1 7.4-32.7 12.2-52.2 13.6 -21.5 1.5-42.4-1.3-58.7-8C56.8 183.4 46.4 175.1 40.1 164.7z" class="tea-b"/><path d="M70.7 189c16.3 6.7 37.2 9.5 58.7 8 19.6-1.4 38.1-6.2 52.2-13.6 13.9-7.3 22.6-16.5 25.4-26.9 0.4-1 0.7-2 0.9-3.1l0.1 0c-1.7 11.7-10.8 22.2-26.2 30.2 -14.2 7.4-32.8 12.3-52.4 13.6 -3.8 0.3-7.5 0.4-11.3 0.4 -17.5 0-34.1-2.9-47.6-8.4 -15.8-6.4-27-16.2-33-28.5 0.7 1.3 1.6 2.6 2.5 3.9C46.4 175.1 56.8 183.4 70.7 189z" class="tea-b"/><path d="M37.9 160.6c4 7.2 11.6 13.9 22.1 19.5 16.6 8.7 38.4 13.6 61.4 13.6 23 0 44.8-4.8 61.4-13.6 16.1-8.5 25.4-19.9 25.4-31.3 0-8.3-4.7-16.3-13.7-23.2 0.1-0.1 0.2-0.1 0.3-0.2 9 7 13.7 15.1 13.7 23.4 0 1.6-0.2 3.1-0.5 4.7l-0.2 0c-0.2 1-0.4 2.1-0.6 3.1 -3.2 8.8-11.6 17.2-24.2 23.9 -16.7 8.8-38.5 13.6-61.5 13.6 -23 0-44.9-4.8-61.5-13.6 -8.6-4.5-15.3-9.9-19.7-15.7C39.3 163.4 38.6 162 37.9 160.6z" class="tea-b"/><path d="M37.9 160.6c0.7 1.4 1.4 2.7 2.2 4.1 -1-1.3-1.8-2.6-2.5-3.9 -1.1-2.4-2.1-4.8-2.8-7.3v0l0.4-0.1c0 0 0 0 0 0C35.7 155.8 36.6 158.3 37.9 160.6z" class="tea-b"/><path d="M35.1 153.4c0.7 2.5 1.7 4.9 2.8 7.3C36.6 158.3 35.7 155.8 35.1 153.4z" class="tea-b"/><path d="M34.8 153.5c0.7 2.5 1.7 5 2.8 7.3C36.3 158.4 35.3 156 34.8 153.5z" class="tea-b"/><path d="M34.3 148.8c0-12.5 10.8-24.4 29.6-32.6l0.1 0.3c0 0 0 0 0 0.1 -18.7 8.2-29.4 19.9-29.4 32.2 0 1.5 0.2 3.1 0.5 4.6l-0.4 0.1C34.5 151.9 34.3 150.4 34.3 148.8z" class="tea-b"/><path d="M101.2 143.7c-0.9 3.8-5 5.8-4.9 5.5 0.7-2.1 4.6-5.5 4.6-5.5s-4.6 3.6-10.5 1.6c-0.2-0.1 6.4-2.1 9.8-2.2 0.2 0-8.6 1.2-11.9-7.2 0-0.1 2 1.1 7.1 2.7 2.2 0.7 3.8 2.2 4.5 3 0.3 0.3-5.8-6.4-4.8-16.4 0-0.2 2.7 3.6 4.2 7.1 1.9 4.3 1.8 9 1.8 8.9 0.1-2.2 1.7-5.9 3.8-8.4 1.3-1.6 1.8-3.3 1.8-3.1 2.8 7.8-6.5 14.7-4.7 12.9 1.9-1.8 8.9-4.7 8.7-4.3 -2.4 4.9-10.1 5.5-9.1 5.2s8 1.2 6.6 1.4c-5.1 0.9-7-1.2-7-1.2s0.3 1.7 1.6 4.1c0.2 0.5-0.7 0.2-0.7 0.2S101.3 143.6 101.2 143.7z" fill="#55874B"/><path d="M95.2 125.2l6 18c0 0-3.6-4-5.1-8.8C94.7 129.7 95.2 125.2 95.2 125.2z" class="tea-e"/><path d="M88.5 136c0 0 5.2 4.6 12.7 7.2 0 0 0.1 0.1-0.1 0.1 -1 0.1-5.1 0.1-8.2-1.8C89.3 139.4 88.5 136 88.5 136z" class="tea-e"/><path d="M90.5 145.3c0.6 0.4 3.4 1 6.4 0.4 3.7-0.8 4.5-2.4 4.4-2.4C96.8 145.7 90.1 145.1 90.5 145.3z" class="tea-e"/><path d="M101.2 143.6c0 0-0.1 1.5-1.8 3.5s-3.1 2.2-3.1 2.2 2.2-2.1 2.8-2.8c0.8-0.9 1.9-2.4 2.1-3.2C101.2 143.1 101.2 143.6 101.2 143.6z" class="tea-e"/><path d="M101.3 143.7c0-0.1-0.1-0.6-0.1-0.5 0.3 1.4 1.6 4.8 1.6 4.8s-0.2 0-0.5-0.1C102.2 147.9 101.7 145.2 101.3 143.7z" class="tea-e"/><path d="M106.9 129.6c-1 2.5-1.5 2.5-2.9 4.6 -1.2 1.9-3 5.4-2.8 8.9 0 0.1 0 0 0.1 0.1 0 0.1 1.7-2.6 3.3-6.5C106 132.8 107 129.2 106.9 129.6z" class="tea-e"/><path d="M101.2 143.3c4.5-1.7 4.5-1.7 5.5-2.2 1.2-0.7 4.2-2.8 4.2-2.8s0.2-0.5-5.2 2.1C103 141.5 101.2 143.3 101.2 143.3z" class="tea-e"/><path d="M101.3 143.3c-0.1 0 1 0 3.2 0.4 3.9 0.7 4.3 1.1 4.1 1.1 -0.8 0-4.1-0.4-4.6-0.5 -0.5-0.1-2.1-0.7-2.7-1C101.1 143.2 101.3 143.3 101.3 143.3z" class="tea-e"/><path d="M154.2 100.4c-0.4-1.1 21.3-8.9 22.5-9.8 4.4-3-1.1 40-29.3 63.4C142.9 157.8 161.6 119.4 154.2 100.4z" class="tea-c"/><path d="M146.2 52.1c-2.9-0.6-6.2-1.1-6.2-1 -0.1 0.6-0.7 12.5-0.3 12.5 1 0.2 3.9 0.8 6.4 1.5C146.1 60.7 146.1 56.4 146.2 52.1z" class="tea-a"/><path d="M147.2 52.3c-0.1 4.3-0.1 8.7-0.1 13 1.6 0.4 2.9 0.7 3.4 0.9 0.1 0 0-11.9 0.1-12.9C150.6 53.1 149 52.7 147.2 52.3z" class="tea-a"/></svg>
