<svg xmlns="http://www.w3.org/2000/svg" width="295" height="396" viewBox="0 0 295.3 395.6"><style>.timer-a{fill:#A5A5A5;}.timer-b{fill:#FFF;}.timer-c{fill:#6A6B68;}.timer-d{fill:#55874B;}.timer-e{fill:#78A56D;}.timer-f{opacity:0.1;}</style><path d="M147.6 96.9c26.7 0 48.4-21.7 48.4-48.4C196.1 21.7 174.3 0 147.6 0c-26.7 0-48.4 21.7-48.4 48.4C99.2 75.1 120.9 96.9 147.6 96.9zM147.6 0.6c26.4 0 47.8 21.5 47.8 47.8 0 26.4-21.5 47.8-47.8 47.8 -26.4 0-47.8-21.5-47.8-47.8C99.8 22 121.2 0.6 147.6 0.6z" class="timer-a"/><path d="M147.6 96.3c26.4 0 47.8-21.5 47.8-47.8 0-26.4-21.5-47.8-47.8-47.8 -26.4 0-47.8 21.5-47.8 47.8C99.8 74.8 121.2 96.3 147.6 96.3zM148.1 8.3c22.7 0 41.2 18.5 41.2 41.2 0 22.7-18.5 41.2-41.2 41.2s-41.2-18.5-41.2-41.2C106.9 26.7 125.4 8.3 148.1 8.3z" class="timer-a"/><path d="M148.1 90.6c22.7 0 41.2-18.5 41.2-41.2 0-22.7-18.5-41.2-41.2-41.2s-41.2 18.5-41.2 41.2C106.9 72.2 125.4 90.6 148.1 90.6zM148.1 8.8c22.4 0 40.7 18.3 40.7 40.7 0 22.4-18.2 40.7-40.7 40.7 -22.4 0-40.7-18.2-40.7-40.7C107.4 27 125.6 8.8 148.1 8.8z" class="timer-a"/><path d="M276.5 247.4v0.1c0 0.2 0 0.3 0 0.5 0 34.4-13.4 66.8-37.7 91.1 -23.9 23.9-55.6 37.3-89.3 37.7v-27.3h-2.9v27.3c-5 0-9.9-0.4-14.8-1 -2.9-2.2-6.2-3.8-9.3-5.2 -6.5-2.3-10.6-8.2-17-11.7 -2.3-0.6-2.3-4.1-4.1-5.9 -10-12.3-22.3-20.5-31.1-34.6 -1.8-2.3-4.1-3.5-5.9-5.9 -13.8-20.1-19.9-42.3-20.2-64.6h2v-2.9h-2.1c0.1-22.2 5.8-44.5 15-65.2 5.9-13.5 14.1-25.8 20-39.3 0.3-0.7 0.7-1.5 1-2.2 19.8-12.3 42.7-19 66.5-19.2v118.2c-4.4 0.6-7.7 4.3-7.7 8.8 0 4.9 4 8.9 8.9 8.9 4.5 0 8.2-3.3 8.8-7.7H276.5z" class="timer-b"/><path d="M238.1 156.3c23.9 23.6 37.5 55.1 38.3 88.7H156.5c-0.5-4-3.7-7.1-7.7-7.7V119.2C182.5 119.5 214.2 132.7 238.1 156.3z" fill="#C0DD9E"/><path d="M255.2 124.9c7.6 4.4 15.4 16.3 15.5 16.4l-0.5 0.3c-0.1-0.1-7.8-11.9-15.3-16.2L255.2 124.9z" class="timer-c"/><path d="M166.4 47.3c0 7.4 0 14.9 0 22.3 0-0.4-0.6-0.4-0.6 0 0-7.4 0-14.9 0-22.3C165.8 46.9 166.4 46.9 166.4 47.3z" class="timer-c"/><path d="M165.8 69.6c0-0.4 0.6-0.4 0.6 0 0 1 0 2 0 2.9 0 0.3-0.4 0.4-0.5 0.2 0 0 0 0 0 0 0 0 0-0.1 0-0.1C165.8 71.5 165.8 70.5 165.8 69.6z" class="timer-c"/><path d="M164.9 72.8l1-0.2c0 0 0 0 0 0 0.1 0.2 0.5 0.1 0.5-0.2 0-1 0-2 0-2.9 0-7.4 0-14.9 0-22.3l1.3 0c0.3 0.8 0.5 1.7 0.5 2.7v21.1c0 1.4-0.4 2.7-1.2 3.8l-0.9-0.5c0.2 0 0.4-0.4 0.1-0.6C165.8 73.4 165.4 73.1 164.9 72.8z" class="timer-a"/><path d="M164.1 44.9c0 8.8 0 17.6 0 26.4 0-0.3-0.2-0.4-0.3-0.4 -0.1 0-0.3 0.1-0.3 0.4 0-8.8 0-26.4 0-26.4 0-0.3 0.1-0.4 0.3-0.4S164.1 44.6 164.1 44.9z" class="timer-c"/><path d="M164.1 71.3c0 0 0 0 0 0 0 0.3-0.1 0.4-0.3 0.4 0 0-0.1 0-0.1 0 0 0 0 0-0.1 0 -0.1-0.1-0.1-0.2-0.1-0.4 0-0.3 0.1-0.4 0.3-0.4C163.9 70.9 164.1 71 164.1 71.3z" class="timer-c"/><path d="M164.9 72.8c-0.5-0.3-0.9-0.5-1.4-0.7l0.2-0.4c0 0 0.1 0 0.1 0 0.1 0 0.3-0.1 0.3-0.4 0 0 0 0 0 0 0-8.8 0-17.6 0-26.4 0-0.3-0.1-0.4-0.3-0.4l1-1.1c1.3 1.1 2.3 2.4 2.9 3.8l-1.3 0c0-0.4-0.6-0.4-0.6 0 0 7.4 0 14.9 0 22.3 0 1 0 2 0 2.9 0 0 0 0.1 0 0.1L164.9 72.8z" class="timer-a"/><path d="M160.1 70.4c-0.1 0-0.2-0.1-0.2-0.3 0-9.1 0-27.6 0-27.6h0.6c0 9.4 0 18.4 0 27.6C160.5 70.4 160.3 70.5 160.1 70.4z" class="timer-c"/><path d="M163.6 71.7c0 0 0 0 0.1 0l-0.2 0.4c-1.1-0.5-2.3-0.8-3.5-1l0.1-0.8c0.2 0.1 0.4 0 0.4-0.3 0-9.1 0-18.2 0-27.6l1.2-1.1c1.1 0.6 2.1 1.2 3 1.9l-1 1.1c-0.1 0-0.3 0.1-0.3 0.4 0 0 0 17.6 0 26.4C163.5 71.5 163.5 71.6 163.6 71.7z" class="timer-a"/><path d="M160 71.2c-0.6-0.1-1.3-0.2-1.9-0.3 -0.7-0.1-1.4-0.2-2-0.2l0.1-0.8c0.1 0 0.3-0.1 0.3-0.3 0-9.7 0-19.4 0-29.3l0.2-0.7c1.9 0.5 3.6 1.1 5.2 1.9l-1.2 1.1h-0.6c0 0 0 18.4 0 27.6 0 0.1 0.1 0.2 0.2 0.3L160 71.2z" class="timer-a"/><path d="M155.8 69.6c0-9.7 0-29.3 0-29.3h0.6c0 10 0 19.6 0 29.4 0 0.2-0.1 0.3-0.3 0.3S155.8 69.7 155.8 69.6z" class="timer-c"/><path d="M25.7 141.5c3.9-7.7 15.4-16 15.5-16l-0.3-0.5c-0.1 0.1-11.6 8.4-15.6 16.2L25.7 141.5zM23.3 142.1c-1.5 0.1-3.1-0.4-4.2-1.5L6.9 129.3c-1-1-1.7-2.3-1.9-3.7 -0.2-1.4 0.2-2.7 1-3.6l13.9-14.8c0.7-0.8 1.8-1.2 3.1-1.2 1.5 0 3.1 0.6 4.3 1.7l12.1 11.4c1.2 1.1 1.8 2.6 1.8 4.2l0 0.1 12.5 11.7 0.2-0.2c10.6-8.8 22.2-16 34.6-21.4 -2.1 8.2-4.7 16.2-8 24 -8.8 5.4-17.1 11.9-24.5 19.4 -23.6 23.7-36.9 55-37.6 88.3h-0.9v2.9h0.9c0 34.6 13.5 67.1 37.9 91.5 20.9 20.8 47.6 33.7 76.4 37 1.7 1.5 3.3 3.2 4.6 5.3 1.2 1.2 3.5 0.6 4.1 1.8 4.1 3.5 7.6 7.6 11.7 9.4 1.4 0.6 2.7 1.2 4.1 1.8 -3.1 0.2-6.2 0.3-9.3 0.3 -39.3 0-76.2-15.3-104-43.1C15.9 324.2 0.6 287.3 0.6 248c0-34.6 12.2-68.1 34.5-94.6l0.2-0.2 -11.7-11 -0.1-0.1L23.3 142.1z" class="timer-a"/><path d="M150.3 69.3c-0.1 0-0.3-0.1-0.3-0.3 0-9.8 0-19.6 0-29.3 0-0.2 0.1-0.3 0.3-0.3 0.1 0 0.3 0.1 0.3 0.3 0 9.8 0 19.6 0 29.3C150.6 69.2 150.4 69.3 150.3 69.3z" class="timer-c"/><path d="M150.3 38.5c2.2 0.2 4.3 0.5 6.3 1l-0.2 0.7h-0.6c0 0 0 19.6 0 29.4 0 0.2 0.1 0.3 0.3 0.3l-0.1 0.8c-1.9-0.2-3.9-0.3-5.8-0.4l0-1c0.1 0 0.3-0.1 0.3-0.3 0-9.8 0-19.6 0-29.3 0-0.2-0.1-0.3-0.3-0.3L150.3 38.5z" class="timer-a"/><path d="M276.4 245.1c-0.8-33.6-14.3-65.1-38.3-88.7 -24-23.7-55.7-36.9-89.3-37.2v118.2c4 0.5 7.1 3.7 7.7 7.7H276.4zM238.6 155.9c24.1 23.8 37.8 55.6 38.5 89.4l0 0.3H155.9l0-0.3c-0.4-3.9-3.5-7-7.4-7.4l-0.3 0V118.6h0.3C182.4 118.8 214.4 132.1 238.6 155.9z" class="timer-c"/><path d="M277 246.8H155.9l0 0.3c-0.4 4.3-4 7.5-8.3 7.5 -4.6 0-8.3-3.7-8.3-8.3 0-4.3 3.2-7.8 7.5-8.3l0.3 0h1.2l0.3 0c3.9 0.4 7 3.5 7.4 7.4l0 0.3h121.1V246.8z" class="timer-a"/><path d="M148.2 376.8c-0.2 0-0.4 0-0.6 0v-26.1h0.6V376.8z" class="timer-c"/><path d="M147.6 376.8c0.2 0 0.4 0 0.6 0v0.3h-0.6V376.8z" class="timer-c"/><path d="M146.5 349.6h2.9v27.3c-0.4 0-0.8 0-1.2 0v-26.1h-0.6v26.1c-0.4 0-0.8 0-1.2 0V349.6z" class="timer-c"/><path d="M147.6 377.4c-0.4 0-0.8 0-1.2 0v-0.6c0.4 0 0.8 0 1.2 0v0.3h0.6v-0.3c0.4 0 0.8 0 1.2 0v0.6C148.8 377.4 148.2 377.4 147.6 377.4z" class="timer-c"/><path d="M146.5 377.4c0.4 0 0.8 0 1.2 0 0.6 0 1.2 0 1.8 0v0.9h-2.9V377.4z" class="timer-c"/><path d="M145.3 39.6c0 9.7 0 19.4 0 29.3h-0.2 -0.4c0-10 0-19.7 0-29.3 0-0.2 0.1-0.3 0.3-0.3C145.1 39.3 145.3 39.4 145.3 39.6z" class="timer-c"/><path d="M145 38.4c0.6 0 1.2 0 1.8 0 1.2 0 2.4 0.1 3.6 0.2l-0.1 0.8c-0.1 0-0.3 0.1-0.3 0.3 0 9.8 0 19.6 0 29.3 0 0.2 0.1 0.3 0.3 0.3l0 1c-0.8 0-1.6-0.1-2.4-0.1 -0.9 0-1.8-0.1-2.7-0.1v-1.1h0.2c0-10 0-19.7 0-29.3 0-0.2-0.1-0.3-0.3-0.3L145 38.4z" class="timer-a"/><path d="M139.7 39.9c0.2 0 0.3 0.1 0.3 0.3 0 9.6 0 19.4 0 28.8 0 0.3-0.1 0.4-0.3 0.4 -0.1 0-0.3-0.1-0.3-0.4 0-9.4 0-19.1 0-28.8C139.4 40 139.5 40 139.7 39.9z" class="timer-c"/><path d="M145.1 70.1c-1.8 0-3.6 0.1-5.3 0.2l-0.1-0.9c0.1 0 0.3-0.1 0.3-0.4 0-9.4 0-19.1 0-28.8 0-0.2-0.2-0.3-0.3-0.3l-0.2-0.9c1.8-0.3 3.6-0.5 5.5-0.6l0 0.9c-0.1 0-0.3 0.1-0.3 0.3 0 9.7 0 19.4 0 29.3h0.4V70.1z" class="timer-a"/><path d="M135.3 41.4c0 9.4 0 18.8 0 28.2 0 0.3-0.1 0.4-0.3 0.4 -0.1 0-0.3-0.1-0.3-0.4 0-9.4 0-28.2 0-28.2H135.3z" class="timer-c"/><path d="M139.4 69c0 0.3 0.1 0.4 0.3 0.4l0.1 0.9c-1.1 0.1-2.1 0.2-3.1 0.4 -0.5 0.1-1 0.2-1.6 0.3l-0.1-1c0.1 0 0.3-0.1 0.3-0.4 0-9.4 0-18.8 0-28.2h-0.6l-0.4-1c1.6-0.6 3.3-1.1 5.1-1.4l0.2 0.9c-0.1 0-0.2 0.1-0.2 0.3C139.4 49.8 139.4 59.6 139.4 69z" class="timer-a"/><path d="M135 70l0.1 1c-1.1 0.2-2.2 0.5-3.3 0.9l-0.3-0.7c0.1 0 0.2-0.2 0.2-0.4v0c0-8.8 0-18.2 0-27 0-0.4-0.3-0.5-0.5-0.4l-1.5-0.6c1.3-0.9 2.8-1.7 4.5-2.4l0.4 1c0 0 0 18.8 0 28.2C134.7 69.9 134.9 70 135 70z" class="timer-a"/><path d="M146.5 376.8v0.6c-4.7 0-9.3-0.3-13.9-0.9 -0.3-0.2-0.6-0.5-0.9-0.7C136.5 376.5 141.5 376.8 146.5 376.8z" class="timer-c"/><path d="M131.3 43.4c0.2-0.2 0.5 0 0.5 0.4 0 8.8 0 18.2 0 27 0-0.4-0.6-0.4-0.6 0 0-8.8 0-27 0-27C131.2 43.5 131.3 43.4 131.3 43.4z" class="timer-c"/><path d="M131.8 70.7c0 0.3-0.1 0.4-0.2 0.4 -0.1 0-0.1 0-0.2-0.1 -0.1-0.1-0.1-0.2-0.1-0.4 0-0.4 0.6-0.4 0.6 0V70.7z" class="timer-c"/><path d="M131.3 71.1c0.1 0.1 0.1 0.1 0.2 0.1l0.3 0.7c-0.9 0.4-1.8 0.8-2.6 1.4l-0.7-0.5c0.1 0 0.3-0.1 0.3-0.3 0-8.8 0-17.6 0-26.4 0-0.3-0.3-0.4-0.5-0.2l-1.2-0.3c0.7-1.1 1.6-2 2.7-2.8l1.5 0.6c-0.1 0.1-0.1 0.2-0.1 0.4 0 0 0 18.2 0 27C131.2 70.9 131.3 71 131.3 71.1z" class="timer-a"/><path d="M166.3 73.7c0.2 0.2 0.1 0.6-0.1 0.6 0 0-0.1 0-0.2-0.1 -2.5-1.9-5.7-2.5-8.7-2.9 -3-0.3-5.9-0.5-8.9-0.6 -3.7-0.1-7.4-0.1-11.2 0.5 -2.7 0.4-5.8 1-8 2.8 -0.3 0.2-0.7-0.2-0.4-0.4 0.1-0.1 0.3-0.2 0.4-0.3 0.8-0.6 1.7-1 2.6-1.4 1.1-0.4 2.2-0.7 3.3-0.9 0.5-0.1 1-0.2 1.6-0.3 1.1-0.2 2.1-0.3 3.1-0.4 1.8-0.2 3.5-0.2 5.3-0.2 0.9 0 1.8 0 2.7 0.1 0.8 0 1.6 0.1 2.4 0.1 1.9 0.1 3.9 0.2 5.8 0.4 0.7 0.1 1.4 0.1 2 0.2 0.6 0.1 1.3 0.2 1.9 0.3 1.2 0.2 2.4 0.5 3.5 1 0.5 0.2 1 0.4 1.4 0.7C165.4 73.1 165.8 73.4 166.3 73.7z" class="timer-c"/><path d="M128.8 72.5c0 0.2-0.1 0.3-0.3 0.3 -0.1 0-0.3-0.1-0.3-0.3 0-8.8 0-17.6 0-26.4 0-0.1 0-0.2 0.1-0.2 0.2-0.1 0.5-0.1 0.5 0.2C128.8 54.9 128.8 63.7 128.8 72.5z" class="timer-c"/><path d="M122.4 370.7c3.1 1.4 6.4 2.9 9.3 5.2 -28.4-3.5-54.6-16.2-75.1-36.8 -24.3-24.3-37.7-56.7-37.7-91.1h25.3c0.4 22.3 6.4 44.4 20.2 64.6 1.8 2.3 4.1 3.5 5.9 5.9 8.8 14.1 21.1 22.3 31.1 34.6 1.8 1.8 1.8 5.3 4.1 5.9C111.8 362.5 115.9 368.3 122.4 370.7z" class="timer-b"/><path d="M125.3 49.9c0-8.3 11.1-12.1 21.4-12.1 5.7 0 11 1.1 15 3 4.6 2.2 7 5.4 7 9.1v21.1c0 4-3.3 7.3-7.3 7.3h-0.3v22.6c29.7 2.7 57.5 14.2 80.6 33.3l10.9-10.4c0-1.6 0.7-3.3 1.9-4.5l12-11.5c1.3-1.2 3-1.9 4.7-1.9 1.4 0 2.6 0.5 3.5 1.4l14.1 14.7c1.9 2 1.5 5.8-0.9 8.2l-12 11.5c-1.3 1.2-2.9 1.8-4.6 1.7l-10.4 10c22.2 26.5 34.4 60.1 34.4 94.7 0 39.4-15.4 76.5-43.2 104.4 -25.4 25.4-58.4 40.4-93.9 42.9 -0.4-0.2-0.8-0.3-1.2-0.5 35.8-2.2 69.1-17.2 94.6-42.8 27.8-27.8 43.1-64.7 43.1-104 0-34.6-12.2-68.1-34.4-94.6l-0.2-0.2 11-10.5 0.1 0c1.5 0.2 3.1-0.4 4.3-1.5l12-11.5c2.2-2.1 2.6-5.5 0.9-7.3l-14.1-14.7c-0.7-0.8-1.8-1.2-3.1-1.2 -1.5 0-3.2 0.7-4.3 1.8l-12 11.5c-1.2 1.1-1.8 2.6-1.7 4.2l0 0.1 -0.1 0.1 -11.4 10.9 -0.2-0.2c-23-19.1-51-30.7-80.7-33.3l-0.3 0V77.8h0.9c2.3 0 4.4-1.2 5.6-3 0.7-1.1 1.2-2.4 1.2-3.8V49.9c0-0.9-0.2-1.8-0.5-2.7 -0.6-1.5-1.6-2.7-2.9-3.8 -0.9-0.7-1.9-1.3-3-1.9 -1.5-0.8-3.3-1.4-5.2-1.9 -2-0.5-4.1-0.9-6.3-1 -1.2-0.1-2.4-0.2-3.6-0.2 -0.6 0-1.2 0-1.8 0 -1.8 0.1-3.7 0.3-5.5 0.6 -1.8 0.3-3.5 0.8-5.1 1.4 -1.7 0.6-3.2 1.4-4.5 2.4 -1.1 0.8-2 1.8-2.7 2.8 -0.8 1.3-1.2 2.7-1.2 4.3v21.1c0 3.7 3 6.8 6.8 6.8h2.1v23.7l-0.3 0c-16.1 1.4-31.6 5.5-46.1 11.9 0.1-0.2 0.1-0.5 0.2-0.7 14.4-6.3 29.7-10.2 45.6-11.7V78.4h-1.5c-4 0-7.3-3.3-7.3-7.3V49.9z" class="timer-a"/><path d="M254.9 125.4c7.5 4.3 15.2 16.1 15.3 16.2l0.5-0.3c-0.1-0.1-7.9-12-15.5-16.4L254.9 125.4zM260.2 153.5c22.2 26.4 34.4 60 34.4 94.6 0 39.3-15.3 76.2-43.1 104 -25.6 25.6-58.9 40.5-94.6 42.8 -1.4-0.6-2.7-1.2-4.1-1.8 -4.1-1.8-7.6-5.9-11.7-9.4 -0.6-1.2-2.9-0.6-4.1-1.8 -1.3-2.1-2.8-3.8-4.6-5.3 4.6 0.5 9.3 0.8 13.9 0.9v0.9h2.9v-0.9c33.9-0.4 65.7-13.9 89.8-37.9 24.4-24.4 37.9-56.9 37.9-91.5 0-0.2 0-0.3 0-0.5l0-0.7h0v-1.2l0-0.3c-0.7-33.9-14.3-65.6-38.5-89.4 -24.1-23.8-56.1-37.1-90.1-37.3h-0.3v119.4h-1.2V118.6h-0.3c-23.8 0.2-46.6 6.7-66.4 18.8 3.3-7.7 5.8-15.8 8-24 14.5-6.4 30.1-10.4 46.1-11.9l0.3 0V77.8h-2.1c-3.7 0-6.7-3-6.7-6.7V49.9c0-1.6 0.4-3 1.2-4.3l1.2 0.3c-0.1 0-0.1 0.1-0.1 0.2 0 8.8 0 17.6 0 26.4 0 0.2 0.1 0.3 0.3 0.3l0.7 0.5c-0.1 0.1-0.3 0.2-0.4 0.3 -0.3 0.2 0.1 0.7 0.4 0.4 2.2-1.8 5.2-2.4 8-2.8 3.7-0.6 7.4-0.6 11.2-0.5 3 0.1 5.9 0.2 8.9 0.6 3 0.3 6.3 1 8.7 2.9 0.1 0 0.1 0.1 0.2 0.1l0.9 0.5c-1.2 1.8-3.3 3-5.6 3h-0.9v23.7l0.3 0c29.8 2.6 57.7 14.2 80.7 33.3l0.2 0.2 11.4-10.9 0.1-0.1 0-0.1c-0.1-1.5 0.6-3 1.7-4.1l12-11.5c1.1-1.1 2.8-1.8 4.3-1.8 1.2 0 2.3 0.4 3.1 1.2l14.1 14.7c1.7 1.8 1.3 5.2-0.9 7.3l-12 11.5c-1.2 1.1-2.7 1.7-4.3 1.6l-0.1 0 -11 10.5L260.2 153.5z" class="timer-a"/><path d="M238.7 339.1c24.3-24.3 37.7-56.7 37.7-91.1 0-0.2 0-0.3 0-0.5v-0.1h-120c-0.6 4.4-4.3 7.7-8.8 7.7 -4.9 0-8.9-4-8.9-8.9 0-4.5 3.3-8.2 7.7-8.8V119.2c-23.9 0.2-46.7 6.9-66.5 19.2 0.1-0.3 0.3-0.6 0.4-1 19.8-12.1 42.6-18.6 66.4-18.8h0.3v119.4l-0.3 0c-4.3 0.4-7.5 4-7.5 8.3 0 4.6 3.7 8.3 8.3 8.3 4.3 0 7.8-3.2 8.3-7.5l0-0.3h121.1 0l0 0.7c0 0.2 0 0.3 0 0.5 0 34.6-13.5 67.1-37.9 91.5 -24 24-55.8 37.4-89.8 37.9v-0.6C183.1 376.4 214.8 363 238.7 339.1z" class="timer-c"/><path d="M44.9 246.2v0.6h-0.9c0-0.2 0-0.4 0-0.6H44.9z" class="timer-c"/><path d="M44 245.1h2.1v2.9h-2c0-0.4 0-0.8 0-1.2h0.9v-0.6h-0.9C44 245.8 44 245.5 44 245.1z" class="timer-c"/><path d="M44 248H18.8c0-0.4 0-0.8 0-1.2h25.2C44 247.2 44 247.6 44 248z" class="timer-c"/><path d="M41.2 125.5c-0.1 0.1-11.5 8.4-15.5 16l-0.5-0.3c4-7.8 15.5-16.2 15.6-16.2L41.2 125.5z" class="timer-c"/><path d="M18.8 245.1c0.7-33.2 14-64.3 37.4-87.9 7.2-7.3 15.2-13.6 23.7-18.8 -0.3 0.8-0.6 1.5-1 2.2 -5.9 13.5-14.1 25.8-20 39.3 -9.2 20.6-14.8 42.9-15 65.2H18.8z" class="timer-b"/><path d="M18.8 245.1h25.2c0 0.4 0 0.8 0 1.2H18.8C18.8 245.8 18.8 245.5 18.8 245.1z" class="timer-c"/><path d="M18.8 246.2h25.2c0 0.2 0 0.4 0 0.6H18.8C18.8 246.6 18.8 246.4 18.8 246.2z" class="timer-c"/><path d="M18.5 246.2h0.3c0 0.2 0 0.4 0 0.6H18.5V246.2z"/><path d="M18.8 248h-0.6c0-1 0-2 0-2.9h0.6c0 0.4 0 0.8 0 1.2H18.5v0.6h0.3C18.8 247.2 18.8 247.6 18.8 248z"/><path d="M56.1 339.5c-24.4-24.4-37.9-56.9-37.9-91.5h0.6c0 34.4 13.4 66.8 37.7 91.1 20.5 20.5 46.8 33.3 75.1 36.8 0.3 0.2 0.6 0.5 0.9 0.7C103.7 373.2 77 360.4 56.1 339.5z" class="timer-c"/><path d="M18.2 245.1c0.7-33.3 14-64.6 37.6-88.3 7.5-7.5 15.7-14 24.5-19.4 -0.1 0.3-0.3 0.6-0.4 1 -8.5 5.3-16.5 11.6-23.7 18.8 -23.5 23.6-36.7 54.7-37.4 87.9H18.2z" class="timer-c"/><path d="M18.2 245.1c0 1 0 2 0 2.9h-0.9v-2.9H18.2z" class="timer-c"/><path d="M5 125.5c0.2 1.4 0.9 2.7 1.9 3.7l12.1 11.3c1.2 1.1 2.7 1.7 4.2 1.5l0.1 0 0.1 0.1 11.7 11 -0.2 0.2c-22.2 26.4-34.5 60-34.5 94.6 0 39.3 15.3 76.2 43.1 104 27.8 27.8 64.7 43.1 104 43.1 3.1 0 6.2-0.1 9.3-0.3 0.4 0.2 0.8 0.3 1.2 0.5 -3.5 0.2-7 0.4-10.5 0.4 -39.4 0-76.5-15.4-104.4-43.2C15.4 324.5 0 287.4 0 248c0-34.6 12.2-68.2 34.4-94.7l-11.2-10.6c-1.6 0.1-3.3-0.5-4.6-1.7L6.5 129.7c-1.1-1.1-1.9-2.5-2.1-4.1 -0.2-1.6 0.2-3.1 1.1-4.1l13.9-14.8c0.9-0.9 2.1-1.4 3.5-1.4 1.7 0 3.4 0.7 4.7 1.9l12.1 11.3c1.3 1.2 2 2.8 2 4.5l11.9 11.2c10.7-8.9 22.5-16.1 34.9-21.5 -0.1 0.2-0.1 0.5-0.2 0.7 -12.4 5.5-24 12.6-34.6 21.4l-0.2 0.2 -12.5-11.7 0-0.1c0.1-1.5-0.6-3.1-1.8-4.2L27.2 107.6c-1.1-1.1-2.7-1.7-4.3-1.7 -1.3 0-2.4 0.4-3.1 1.2L6 121.9C5.1 122.8 4.8 124.1 5 125.5z" class="timer-a"/><path d="M189 201.9C189 202 189 202 189 201.9L189 201.9z" class="timer-d"/><path d="M192.6 210.2c-1.1-0.7-2.2-1.2-3.1-1.5C187.2 207.9 188.8 208.9 192.6 210.2z" class="timer-d"/><path d="M187.6 210.8c-0.4-1-0.8-1.7-1-2.1C186 208.2 186.4 209.1 187.6 210.8z" class="timer-d"/><path d="M185.5 204.5c-0.4-0.8-0.9-1.6-1.4-2.5C184.9 203.6 185.5 204.6 185.5 204.5z" class="timer-d"/><path d="M185.2 207.7c0.4-0.1-9.7 8-9.7 8s0.4 2.8 1.3 1.6c4.8-6.2 8.8-9.2 8.8-9.2s-3.2 7.5 5.5 19.7c1.9 2.7-1.4-11.4-3.6-17 -1.1-1.7-1.5-2.6-1-2.1 0.3 0.3 0.6 1 1 2.1 3.2 4.7 12.3 15.2 24 15.3 1.3 0-11-11.3-18.9-15.9 -3.8-1.3-5.4-2.4-3.1-1.5 0.9 0.3 2 0.9 3.1 1.5 7.9 2.6 25.1 6 36.5-5.5 0.3-0.3-4.6 0.5-10.5-0.8 -9.1-2.2-20.8-1.8-26.6 0.7 -0.3 0.1 12-5.5 20.9-15.9 7.1-8.3 13.7-20.1 13.1-19.9 -26.4 9.5-36.6 32.2-36.9 33.1 0 0 0 0 0 0 0 0 0 0 0 0 1.2-2.9 3.3-8.8 2.3-15.5 -2.3-15.5-1.7-22.2-2-21.9 -13.9 14.9-8.2 31.3-5.2 37.4 0.5 0.9 1 1.7 1.4 2.5 0 0.1-0.6-0.8-1.4-2.5 -5.3-8.9-16.7-21-16.6-20.5 2 17.9 17.2 25.4 17.2 25.4s-13.9-5.9-20.1-5.1C163.7 201.9 174.1 210.1 185.2 207.7z" class="timer-d"/><path d="M202.9 182.9c-10.5 9.9-16.6 24.2-16.6 24.2l39.6-38.2C225.9 168.9 213.4 173.1 202.9 182.9z" class="timer-e"/><path d="M186.4 207.1c-2.6-23.1 2.9-42.3 2.9-42.3s-7.7 6.4-8.8 18.6c-0.9 10.4 4.2 21.2 5.6 23.7C186.3 207.4 186.4 207.1 186.4 207.1z" class="timer-e"/><path d="M186.4 207.2c-11.8-8.6-18.7-27-18.8-25.6 -0.1 2.1 1.5 10.1 7.1 17.1C181.5 207.2 186.5 207.3 186.4 207.2z" class="timer-e"/><path d="M174.2 207.1c7.4 2.1 11.4 0.5 11.4 0.5s1.2-0.6 0.7-0.4c-2.3 0.6-7.8-0.6-11.1-1.4 -2.4-0.6-10.7-3.8-10.7-3.8S166.9 205 174.2 207.1z" class="timer-e"/><path d="M186.5 207c0.2-0.2-1 0.6-1.2 0.7 -3.4 3-9.8 7.9-9.8 8 0.1 0.9 0.4 1.3 0.4 1.3S183.2 209.5 186.5 207z" class="timer-e"/><path d="M207.4 207.5c12.2-1 22.8-2.8 21.6-2.8 -7.8 0.4-8.4-0.8-15.6-1.8 -6.5-0.9-17.9-1.2-26.8 3.9 -0.2 0.1 0 0.1-0.2 0.3C186.1 207.3 195.2 208.5 207.4 207.5z" class="timer-e"/><path d="M211.6 226c0 0 1.5-0.1-11.9-11 -6.6-5.3-13.4-7.9-13.4-7.9 10.1 9.7 10 9.7 12.6 11.5C202.2 220.8 211.6 226 211.6 226z" class="timer-e"/><path d="M191.4 228.1c0.3 0.6 0.9-0.9-2.1-12 -1.6-6-2.8-9-2.8-8.8 0 0.2-0.2-0.5-0.2-0.1 0.1 1.9 0.4 6.8 0.8 8.2C187.4 216.7 190.4 226 191.4 228.1z" class="timer-e"/><path d="M132.5 376.6c-28.8-3.3-55.6-16.2-76.4-37 -24.4-24.4-37.9-56.9-37.9-91.5h-0.9v-2.9h0.9c0.7-33.3 14-64.6 37.6-88.3 7.5-7.5 15.7-14 24.5-19.4 3.3-7.7 5.8-15.8 8-24 -12.4 5.5-24 12.6-34.6 21.4l-0.2 0.2 -12.5-11.7 0-0.1c0.1-1.5-0.6-3.1-1.8-4.2L27.2 107.6c-1.1-1.1-2.7-1.7-4.3-1.7 -1.3 0-2.4 0.4-3.1 1.2L6 121.9c-0.8 0.9-1.2 2.2-1 3.6 0.2 1.4 0.9 2.7 1.9 3.7l12.1 11.3c1.2 1.1 2.7 1.7 4.2 1.5l0.1 0 0.1 0.1 11.7 11 -0.2 0.2c-22.2 26.4-34.5 60-34.5 94.6 0 39.3 15.3 76.2 43.1 104 27.8 27.8 64.7 43.1 104 43.1 3.1 0 6.2-0.1 9.3-0.3C155.6 394.2 134.2 378 132.5 376.6z" class="timer-f"/><path d="M79 140.6c0.3-0.7 0.7-1.5 1-2.2 -8.5 5.3-16.5 11.6-23.7 18.8 -23.5 23.6-36.7 54.7-37.4 87.9h25.2c0.1-22.2 5.8-44.5 15-65.2C64.9 166.4 73.1 154.1 79 140.6z" class="timer-f"/><path d="M64.3 312.6c-10.7-22-19.9-42.3-20.2-64.6H18.8c0 34.4 13.4 66.8 37.7 91.1 20.5 20.5 46.8 33.3 75.1 36.8C128.8 373.6 79.5 344 64.3 312.6z" class="timer-f"/><path d="M250.8 205.5c-1.9-10-5.8-19.7-10.9-28.6 -9.3-16.4-23.7-30.5-41.3-37.3 -0.4-0.3-0.9-0.6-1.3-0.8 -1.8-1-3.6-1.4-5.4-1.4 -1.9-0.4-3.4 0.1-4.6 1.1 -2.1 1.1-3.9 2.9-5.1 5.3 -5.5 11.7 3.3 24.5 11.4 32.5 9.6 9.4 20.7 17 29.9 26.8 1.1 1.2 2.1 2.4 3.2 3.7 0 0.1 0.1 0.1 0.1 0.1 0 0 0 0 0.1 0.1 0.2 0.3 0.4 0.7 0.7 1 1.3 1.9 2.4 4 3.6 5.9 2.5 4.1 5.3 9.1 10 10.8 2.2 0.8 5 0.3 7.1-0.8 2.6-1.5 3.6-4.3 4-7.1C252.6 213.1 251.5 209.1 250.8 205.5z" style="fill:#FFF;opacity:0.2"/></svg>
