<svg xmlns="http://www.w3.org/2000/svg" width="253" height="253" viewBox="0 0 253.4 253.4"><style>.tincture-a{fill:#32201E;}.tincture-b{fill:#BE5727;}.tincture-c{fill:#583B1F;}.tincture-d{fill:#E28E39;}.tincture-e{opacity:0.2;}.tincture-f{fill:#FFFDFD;opacity:0.2;}</style><circle cx="127.4" cy="126.7" r="126.7" fill="#F4F2DC"/><path d="M140.5 70c5.3 0 7.5 0.2 7.5 4.5 0 4.7-3.8 8.5-8.5 8.5h-5.5 -11 -7.5c-4.4 0-7.5-3.5-7.5-8.5 0-4.3 2.2-4.5 7.5-4.5h2.8l-0.1-0.6c-0.1-0.6-0.2-1.2-0.2-1.8v-22.3c0-5.2 4.2-9.4 9.4-9.4h0.3c4.9 0 10.4 4 10.4 9.4v22.3c0 0.6-0.1 1.2-0.2 1.8l-0.1 0.6H140.5z" class="tincture-a"/><path d="M139.5 83h2.5c0.5 0 0.9 0.1 1.3 0.2 -1.2 0.5-2.5 0.8-3.8 0.8h-5.5v-1H139.5z" class="tincture-b"/><path d="M134 172.6v0.4h-1v-0.1C133.3 172.8 133.7 172.7 134 172.6z" class="tincture-c"/><path d="M134 139v33.6c-0.3 0.1-0.7 0.2-1 0.3v-33.9H134z" class="tincture-c"/><rect x="133" y="138" width="1" height="1" class="tincture-c"/><rect x="133" y="84" width="1" height="54" class="tincture-d"/><path d="M133 139v33.9c-3.7 0.9-6.9 0.4-9-0.2v-33.6H133z" class="tincture-c"/><rect x="124" y="138" width="9" height="1" class="tincture-c"/><rect x="124" y="84" width="9" height="54" class="tincture-d"/><path d="M124 172.6v0.4h-1v-0.7C123.3 172.4 123.6 172.5 124 172.6z" class="tincture-c"/><path d="M124 139v33.6c-0.4-0.1-0.7-0.2-1-0.3v-33.3H124z" class="tincture-c"/><rect x="123" y="138" width="1" height="1" class="tincture-c"/><rect x="123" y="84" width="1" height="54" class="tincture-d"/><polygon points="123 83 134 83 134 84 133 84 124 84 123 84 " class="tincture-b"/><path d="M134 173v-0.4c0.8-0.2 1.5-0.5 2.3-0.8l0.4 0.9c-2.8 1.2-5.4 1.7-7.7 1.7 -4.8 0-8-1.8-8.2-1.9l0.5-0.9c0 0 0.7 0.4 1.8 0.7v0.7h1v-0.4c2.1 0.6 5.3 1.1 9 0.2v0.1H134z" class="tincture-c"/><path d="M123 83v1h-7.5c-1.2 0-2.3-0.2-3.3-0.6 0.6-0.2 1.2-0.3 1.8-0.3h1.5H123z" class="tincture-b"/><path d="M114 84h1.5 7.5v54 1 33.3c-1.1-0.4-1.7-0.7-1.7-0.7l-0.5 0.9c0.2 0.1 3.5 1.9 8.2 1.9 2.3 0 4.9-0.4 7.7-1.7l-0.4-0.9c-0.8 0.4-1.6 0.6-2.3 0.8v-33.6 -1 -54h5.5 2.5c2.2 0 4 1.8 4 4 0 2-1.5 3.7-3.6 4l-0.4 0.1v16h2c6.7 0 10 3.1 10 9.1v83.6c-0.4 3.1-3.6 5.5-8.3 7 -4.6 1.6-10.7 2.3-16.6 2.3 -17 0-27.2-5.1-27.2-9.5v-83.5c0-5.3 4.3-8.7 11.5-9l0.5 0v-16l-0.4 0c-2-0.2-3.6-1.9-3.6-3.9C110 85.8 111.8 84 114 84z" class="tincture-b"/><path d="M140.5 69c4.9 0 8.5 0 8.5 5.5 0 3.9-2.3 7.2-5.7 8.7 -0.4-0.1-0.9-0.2-1.3-0.2h-2.5c4.7 0 8.5-3.8 8.5-8.5 0-4.3-2.2-4.5-7.5-4.5h-2.8l0.1-0.6c0.1-0.6 0.2-1.2 0.2-1.8v-22.3c0-5.4-5.5-9.4-10.4-9.4h-0.3c-5.2 0-9.4 4.2-9.4 9.4v22.3c0 0.6 0.1 1.2 0.2 1.8l0.1 0.6h-2.8c-5.3 0-7.5 0.2-7.5 4.5 0 5 3.1 8.5 7.5 8.5h-1.5c-0.6 0-1.2 0.1-1.8 0.4 -3.2-1.3-5.2-4.6-5.2-8.8 0-5.5 3.6-5.5 8.5-5.5h1.6c-0.1-0.5-0.1-0.9-0.1-1.4v-22.3c0-5.7 4.7-10.4 10.4-10.4h0.3c6.1 0 11.4 4.9 11.4 10.4v22.3c0 0.5 0 0.9-0.1 1.4H140.5z" class="tincture-a"/><path d="M155 117v83.5c-0.9 7.4-14.5 10.5-25.8 10.5 -13.7 0-28.2-4-28.2-10.5v-83.5c0-5.8 4.5-9.5 12-9.9v-14.2c-2.3-0.5-4-2.5-4-4.9 0-2.1 1.3-3.9 3.2-4.6 1 0.4 2.1 0.7 3.3 0.7h-1.5c-2.2 0-4 1.8-4 4 0 2 1.5 3.7 3.6 4l0.4 0.1v16l-0.5 0c-7.2 0.3-11.5 3.6-11.5 9v83.5c0 4.4 10.2 9.5 27.2 9.5 5.9 0 11.9-0.8 16.6-2.3 4.6-1.5 7.9-3.9 8.3-7v-83.6c0-6.1-3.3-9.1-10-9.1h-2v-16l0.4 0c2-0.2 3.6-1.9 3.6-3.9 0-2.2-1.8-4-4-4h-2.5c1.4 0 2.7-0.3 3.8-0.8 2.1 0.6 3.7 2.5 3.7 4.8 0 2.4-1.7 4.4-4 4.9v14.1h1C151.3 107 155 110.4 155 117z" class="tincture-b"/><path d="M117.1 69c0 0 3.9 0 8.8 0.1 0 0 0.4-34.1 0.1-34C121.5 35.7 117.3 39.5 117 44.9 116.7 50.3 116.9 68.1 117.1 69z" class="tincture-e"/><path d="M120.1 107.9L113 107c0-1.9 0-3.4 0-4.9 0-4.3 0-7.8 0-9.2 0 0-2-0.2-3.4-2.6 -1.3-2.2-0.4-5.8 2.5-7 0.3-0.1-4.8-1.2-5.1-8.8 -0.2-4.8 3.3-5.2 3.3-5.2 2.4-0.6 10.7-0.3 10.7-0.3C121 78.1 120.1 98.6 120.1 107.9z" class="tincture-e"/><path d="M154.9 172.2c-1.1-1.9-12.2-3.8-26.9-3.8 -14.7 0-25.4 2.5-26.9 4.1 -0.9 1 11.8 4.2 26.9 3.9C142.7 176.1 155.9 173.9 154.9 172.2z" fill="#AC4F22"/><rect x="123.5" y="168.3" width="11" height="5" class="tincture-c"/><polygon points="134 173.3 123.5 173.3 123.5 84.3 134 84.3 " style="fill:#BE5727;opacity:0.5"/><path d="M129.7 109L113 107c0 0-0.8 0.1-1.9 0.2 -3.2 0.5-9.7 2.2-10.1 9.3 -0.2 4.6-0.1 19.7-0.1 35.9 -0.1 21.4-0.3 44.7 0.1 48.9 0.7 7 22 9.7 22 9.7s-18.7-12.3-19.3-19.3S104 128 104 128s1-13.3 5.3-16S129.7 109 129.7 109z" style="fill:#020202;opacity:0.2"/><path d="M155.5 202c-14 17-54.6 7.7-54.2-1.3l0.2-27.7c14.9 5.7 49 3.3 54-0.2V202z" style="fill:#8A3118;opacity:0.6"/><path d="M152.8 118.8c-0.3-2.2-0.6-4.6-1.9-6.4 -1.5-2.1-3.9-2.9-6.4-2.8 -1.8 0.1-2.3 2-1.6 3.2 0.8 3.1 4.9 4.2 6.1 7.1C149.8 121.5 153 120.7 152.8 118.8z" class="tincture-f"/><path d="M146.3 87.3c-0.2-0.9-0.9-1.6-1.7-2 -1-0.5-2.2-0.3-2.7 0.7 -0.4 0.7-0.3 1.7 0.3 2.4 0 0.6 0.1 1.1 0.6 1.6 0.8 0.8 2.1 0.8 2.8 0C146.1 89.2 146.5 88.3 146.3 87.3z" class="tincture-f"/></svg>
