<?xml version="1.0" encoding="UTF-8"?>
<svg width="80px" height="80px" viewBox="0 0 80 80" version="1.1" xmlns="http://www.w3.org/2000/svg" xmlns:xlink="http://www.w3.org/1999/xlink">
    <!-- Generator: Sketch 43.2 (39069) - http://www.bohemiancoding.com/sketch -->
    <title>icon-plus</title>
    <desc>Created with Sketch.</desc>
    <defs></defs>
    <g id="Desktop" stroke="none" stroke-width="1" fill="none" fill-rule="evenodd">
        <g id="11-AdminProducts_A" transform="translate(-542.000000, -1114.000000)" fill="#AAAAAA">
            <g id="Products" transform="translate(143.000000, 552.000000)">
                <g id="Products-Row-Copy" transform="translate(15.000000, 78.000000)">
                    <g id="Add-Product-Button" transform="translate(293.000000, 372.000000)">
                        <path d="M155,155.857143 L155,149.142857 C155,148.233633 154.6678,147.446802 154.003348,146.782366 C153.338896,146.11793 152.552066,145.785714 151.642857,145.785714 L138.214286,145.785714 L138.214286,132.357143 C138.214286,131.447934 137.88207,130.661104 137.217634,129.996652 C136.553198,129.3322 135.766367,129 134.857143,129 L128.142857,129 C127.233633,129 126.446802,129.3322 125.782366,129.996652 C125.11793,130.661104 124.785714,131.447934 124.785714,132.357143 L124.785714,145.785714 L111.357143,145.785714 C110.447918,145.785714 109.661088,146.11793 108.996652,146.782366 C108.332216,147.446802 108,148.233633 108,149.142857 L108,155.857143 C108,156.766367 108.332216,157.553198 108.996652,158.217634 C109.661088,158.88207 110.447918,159.214286 111.357143,159.214286 L124.785714,159.214286 L124.785714,172.642857 C124.785714,173.552087 125.11793,174.338917 125.782366,175.003348 C126.446802,175.667779 127.233633,176 128.142857,176 L134.857143,176 C135.766367,176 136.553198,175.667779 137.217634,175.003348 C137.88207,174.338917 138.214286,173.552087 138.214286,172.642857 L138.214286,159.214286 L151.642857,159.214286 C152.552066,159.214286 153.338896,158.88207 154.003348,158.217634 C154.6678,157.553198 155,156.766367 155,155.857143 Z M171,152 C171,159.256948 169.211823,165.949656 165.635417,172.078125 C162.05901,178.206594 157.206615,183.059031 151.078125,186.635417 C144.949635,190.211804 138.256943,192 131,192 C123.743057,192 117.050349,190.211804 110.921875,186.635417 C104.793401,183.059031 99.940974,178.206594 96.3645833,172.078125 C92.7881943,165.949656 91,159.256948 91,152 C91,144.743057 92.7881943,138.050365 96.3645833,131.921875 C99.940974,125.793385 104.793401,120.94099 110.921875,117.364583 C117.050349,113.788177 123.743057,112 131,112 C138.256943,112 144.949635,113.788177 151.078125,117.364583 C157.206615,120.94099 162.05901,125.793385 165.635417,131.921875 C169.211823,138.050365 171,144.743057 171,152 Z" id="icon-plus"></path>
                    </g>
                </g>
            </g>
        </g>
    </g>
</svg>