<?xml version="1.0" encoding="UTF-8"?>
<svg width="137px" height="57px" viewBox="0 0 137 57" version="1.1" xmlns="http://www.w3.org/2000/svg" xmlns:xlink="http://www.w3.org/1999/xlink">
    <!-- Generator: Sketch 43.2 (39069) - http://www.bohemiancoding.com/sketch -->
    <title>icon-youTube</title>
    <desc>Created with Sketch.</desc>
    <defs></defs>
    <g id="Desktop" stroke="none" stroke-width="1" fill="none" fill-rule="evenodd">
        <g id="08-About-DT" transform="translate(-652.000000, -2213.000000)" fill="#000000">
            <g id="YouTube-Channel" transform="translate(0.000000, 2179.000000)">
                <path d="M771.7793,71.3091197 L771.7793,66.577979 L781.548253,66.577979 L781.547169,61.1921505 C781.547169,58.3784417 780.977053,56.3200609 779.950954,54.9885549 C778.575141,53.1870436 776.620808,52.2333333 774.158712,52.2333333 C771.65324,52.2333333 769.698907,53.1870436 768.279447,54.9885549 C767.236811,56.3200609 766.628471,58.4948892 766.628471,61.3088615 L766.628471,70.5298172 C766.628471,73.3274552 767.297265,75.2859862 768.339631,76.6032656 C769.758819,78.4021424 771.713152,79.3 774.280705,79.3 C776.845004,79.3 778.858978,78.3578818 780.216628,76.4462459 C780.813311,75.6023967 781.19881,74.6457884 781.36445,73.5882765 C781.408639,73.1108945 781.538765,72.0230852 781.538765,70.4860836 L781.538765,69.7394496 L776.388207,69.7394496 C776.388207,71.6531931 776.396882,72.7907956 776.351338,73.0505631 C776.071296,74.3256895 775.366988,74.9643066 774.158712,74.9643066 C772.474119,74.9643066 771.762492,73.7402906 771.7793,71.3091197 L771.7793,71.3091197 Z M763.831012,61.0527673 C763.831012,58.5061744 763.495869,56.7651282 763.161832,55.6835325 C762.49431,53.670204 761.155398,52.5495956 759.163607,52.5495956 C757.3235,52.5495956 755.494445,53.6516393 753.878688,55.5874804 L753.88449,43.8333333 L748.91123,43.8333333 L748.91123,79.8865232 L753.88449,79.8865232 L753.891398,77.177691 C755.56269,79.1912885 757.385113,80.2333333 759.163607,80.2333333 C761.155398,80.2333333 762.610905,79.1950553 763.278427,77.1959866 C763.612465,76.0562753 763.831012,74.3015074 763.831012,71.8149135 L763.831012,61.0527673 Z M744.248798,53.1666667 L739.234484,53.1666667 L739.234484,73.4481198 C738.173297,74.9617567 737.304501,75.8050382 736.34492,75.8050382 C735.70731,75.8050382 735.392728,75.5315054 735.275815,74.7824259 L735.275815,72.9143974 L735.275815,53.1666667 L730.261502,53.1666667 L730.261502,74.2487035 C730.261502,76.1009873 730.492424,77.3621734 730.818091,78.1696955 C731.354094,79.4981307 732.424254,80.2333333 733.965496,80.2333333 C735.722089,80.2333333 737.333531,79.120522 739.234484,76.9173157 L739.234484,79.8527892 L744.248798,79.8527892 L744.248798,53.1666667 Z M725.332645,48.8621891 L731.193988,48.8621891 L731.193988,43.8333333 L714.409233,43.8388915 L714.409233,48.8621891 L720.004152,48.8621891 L720.004152,79.3 L725.332645,79.3 L725.332645,48.8621891 Z M788.075658,59.4673374 L788.075658,65.5077531 C788.075658,71.9507382 787.274818,78.3937234 787.274818,78.3937234 C787.274818,78.3937234 786.491166,83.8802379 784.086766,86.2964578 C781.037559,89.4682653 777.618816,89.4840681 776.051512,89.6696839 C764.829816,90.4748227 747.978877,90.5 747.978877,90.5 C747.978877,90.5 727.128842,90.31117 720.71326,89.6996824 C718.928961,89.3672881 714.921002,89.4682653 711.870989,86.2964578 C709.466321,83.8802379 708.683743,78.3937234 708.683743,78.3937234 C708.683743,78.3937234 707.881828,71.9507382 707.881828,65.5077531 L707.881828,59.4673374 C707.881828,53.0238166 708.683743,46.5808315 708.683743,46.5808315 C708.683743,46.5808315 709.466321,41.0940491 711.870989,38.6775614 C714.921002,35.5065574 718.338402,35.4907546 719.906243,35.3054066 C731.127939,34.5 747.961421,34.5 747.961421,34.5 L747.996602,34.5 C747.996602,34.5 764.829816,34.5 776.051512,35.3054066 C777.618816,35.4907546 781.037559,35.5065574 784.086766,38.6775614 C786.491166,41.0940491 787.274818,46.5808315 787.274818,46.5808315 C787.274818,46.5808315 788.075658,53.0238166 788.075658,59.4673374 L788.075658,59.4673374 Z M756.16031,56.9 C755.343748,56.9 754.408577,57.3208615 753.579414,58.1203111 L753.573662,74.3463555 C754.403098,75.1562397 755.343748,75.5666667 756.16031,75.5666667 C757.590459,75.5666667 758.236093,74.541402 758.236093,71.8658678 L758.236093,60.361071 C758.236093,57.6855368 757.590459,56.9 756.16031,56.9 L756.16031,56.9 Z M775.953335,60.3210702 C775.953335,57.6903754 775.298126,56.9 773.652013,56.9 C771.993833,56.9 771.290903,57.6254832 771.290903,60.2854934 L771.290903,63.4333333 L775.953335,63.4279257 L775.953335,60.3210702 Z M671.514859,43.8333333 L665.919941,43.8333333 L662.19932,58.0363437 L658.46005,43.8333333 L652.865132,43.8333333 C654.004097,47.2220385 659.525749,65.4037037 659.525749,65.4037037 L659.525749,80.2333333 L664.854242,80.2333333 L664.854242,65.4037037 L671.514859,43.8333333 Z M680.787085,60.8362709 C681.071721,58.1561654 680.186503,56.9 678.507151,56.9 C676.827798,56.9 675.945426,58.1561654 676.230062,60.8362709 L676.230062,71.5566928 C675.945426,74.2367983 676.827513,75.5666667 678.506866,75.5666667 C680.185934,75.5666667 681.068875,74.2367983 680.784239,71.5566928 L680.787085,60.8362709 Z M685.502155,71.1042163 C685.502155,74.0083449 685.01367,76.0151487 683.954918,77.3825138 C682.556603,79.2461677 680.252602,80.2333333 678.042264,80.2333333 C675.831926,80.2333333 673.567711,79.2461677 672.171053,77.3825138 C671.095448,76.0151487 670.582373,74.0083449 670.582373,71.1042163 L670.587623,61.3862636 C670.587623,58.4653575 671.164521,56.2485645 672.240127,54.8679398 C673.636508,52.9986032 675.540438,52.2333333 678.042264,52.2333333 C680.252602,52.2333333 682.44581,52.9986032 683.844402,54.8679398 C684.903154,56.2485645 685.502155,58.4415443 685.502155,61.3624504 L685.502155,71.1042163 Z M703.219397,79.8565045 L698.205083,79.8565045 L698.205083,76.9496905 C696.30413,79.1313866 694.692688,80.2333333 692.936095,80.2333333 C691.394853,80.2333333 690.324693,79.5053085 689.78869,78.1898431 C689.463023,77.390205 689.232101,76.141332 689.232101,74.3071323 L689.232101,53.1666667 L694.246414,53.1666667 L694.246414,72.9858532 L694.246414,74.8356439 C694.363327,75.57741 694.677909,75.8482722 695.315519,75.8482722 C696.275364,75.8482722 697.143896,75.0132239 698.205083,73.5143648 L698.205083,53.1666667 L703.219397,53.1666667 L703.219397,79.8565045 Z" id="icon-youTube"></path>
            </g>
        </g>
    </g>
</svg>