<?xml version="1.0" encoding="UTF-8"?>
<svg width="14px" height="12px" viewBox="0 0 14 12" version="1.1" xmlns="http://www.w3.org/2000/svg" xmlns:xlink="http://www.w3.org/1999/xlink">
    <!-- Generator: Sketch 43.2 (39069) - http://www.bohemiancoding.com/sketch -->
    <title>icon-filters</title>
    <desc>Created with Sketch.</desc>
    <defs></defs>
    <g id="Symbols" stroke="none" stroke-width="1" fill="none" fill-rule="evenodd">
        <g id="SearchBar" transform="translate(-393.000000, -20.000000)" fill="#000000">
            <g id="SearchBar-Copy">
                <g id="Filters" transform="translate(393.000000, 18.000000)">
                    <path d="M7.83609865,11.5389012 L7.83609865,11.5389012 L6.16351735,11.5389012 L6.16351735,13.2120445 L7.83609865,13.2120445 L7.83609865,11.5389012 Z M4.86917773,7.09385904 L4.86917773,7.09385904 L3.2078369,7.09385904 L3.2078369,8.76644034 L4.86917773,8.76644034 L4.86917773,7.09385904 Z M10.7917791,2.64151059 L10.7917791,2.64151059 L9.12706613,2.64151059 L9.12706613,4.31409188 L10.7917791,4.31409188 L10.7917791,2.64151059 Z M0.542160469,8.46463383 L0.542160469,8.46463383 C0.236981826,8.46463383 -0.000192,8.22408787 -0.000192,7.92677755 C-0.000192,7.62834319 0.236981826,7.39173138 0.542160469,7.39173138 L2.55870001,7.39173138 L2.55870001,6.77350577 C2.55870001,6.58972416 2.70426404,6.44528418 2.87961531,6.44528418 L2.88692161,6.44528418 L5.19346517,6.44528418 C5.37668476,6.44528418 5.51831462,6.58972416 5.51831462,6.77350577 L5.51831462,6.77743994 L5.51831462,7.39173138 L13.4568935,7.39173138 C13.7553279,7.39173138 13.999808,7.62834319 13.999808,7.92677755 C13.999808,8.22408787 13.7553279,8.46463383 13.4568935,8.46463383 L5.51831462,8.46463383 L5.51831462,9.08791766 C5.51831462,9.2627069 5.37668476,9.4077089 5.19346517,9.4077089 L5.18559684,9.4077089 L2.87961531,9.4077089 C2.70426404,9.4077089 2.55870001,9.2627069 2.55870001,9.08791766 L2.55870001,9.07555314 L2.55870001,8.46463383 L0.542160469,8.46463383 Z M13.4568935,2.93882091 L13.4568935,2.93882091 C13.7553279,2.93882091 13.999808,3.18330104 13.999808,3.47780124 C13.999808,3.77567358 13.7553279,4.01621954 13.4568935,4.01621954 L11.440916,4.01621954 L11.440916,4.62713885 L11.440916,4.63500718 C11.440916,4.81035844 11.295914,4.95929461 11.1160665,4.95929461 L8.80952297,4.95929461 L8.79828251,4.95929461 C8.61899708,4.95929461 8.47736721,4.81035844 8.47736721,4.63500718 L8.47736721,4.01621954 L0.542160469,4.01621954 C0.236981826,4.01621954 -0.000192,3.77567358 -0.000192,3.47780124 C-0.000192,3.18330104 0.236981826,2.93882091 0.542160469,2.93882091 L8.47736721,2.93882091 L8.47736721,2.3279016 L8.47736721,2.32115732 C8.47736721,2.14074784 8.61899708,1.99968 8.79828251,1.99968 L11.1087602,1.99968 L11.1160665,1.99968 C11.295914,1.99968 11.440916,2.14074784 11.440916,2.32115732 L11.440916,2.93882091 L13.4568935,2.93882091 Z M5.84316408,10.8976326 L5.84990836,10.8976326 L8.15701394,10.8976326 C8.33292723,10.8976326 8.47736721,11.0426346 8.47736721,11.2185479 L8.47736721,11.2258542 L8.47736721,11.8367735 L13.4568935,11.8367735 C13.7553279,11.8367735 13.999808,12.0812537 13.999808,12.379126 C13.999808,12.6730642 13.7553279,12.9136101 13.4568935,12.9136101 L8.47736721,12.9136101 L8.47736721,13.5323978 C8.47736721,13.7156174 8.33292723,13.8566852 8.15701394,13.8566852 L8.14914562,13.8566852 L5.84316408,13.8566852 C5.65938247,13.8566852 5.51438046,13.7156174 5.51438046,13.5323978 L5.51438046,13.5245295 L5.51438046,12.9136101 L0.542160469,12.9136101 C0.236981826,12.9136101 -0.000192,12.6730642 -0.000192,12.379126 C-0.000192,12.0812537 0.236981826,11.8367735 0.542160469,11.8367735 L5.51438046,11.8367735 L5.51438046,11.2185479 C5.51438046,11.0426346 5.65938247,10.8976326 5.84316408,10.8976326 L5.84316408,10.8976326 Z" id="icon-filters"></path>
                </g>
            </g>
        </g>
    </g>
</svg>