<?xml version="1.0" encoding="UTF-8"?>
<svg width="18px" height="18px" viewBox="0 0 18 18" version="1.1" xmlns="http://www.w3.org/2000/svg" xmlns:xlink="http://www.w3.org/1999/xlink">
    <!-- Generator: Sketch 43.2 (39069) - http://www.bohemiancoding.com/sketch -->
    <title>icon-menu</title>
    <desc>Created with Sketch.</desc>
    <defs></defs>
    <g id="Mobile" stroke="none" stroke-width="1" fill="none" fill-rule="evenodd">
        <g id="01-Home" transform="translate(-341.000000, -16.000000)" fill-rule="nonzero" fill="#FFFFFF">
            <g id="Header">
                <path d="M347.5625,34 C348.287374,34 348.875,33.3386601 348.875,32.5228559 C348.875,31.7070518 348.287374,31.0457119 347.5625,31.0457119 L342.3125,31.0457119 C341.587626,31.0457119 341,31.7070518 341,32.5228559 C341,33.3386601 341.587626,34 342.3125,34 L347.5625,34 Z M357.453125,26.4771441 C358.30744,26.4771441 359,25.8158041 359,25 C359,24.1841959 358.30744,23.5228559 357.453125,23.5228559 L342.546875,23.5228559 C341.69256,23.5228559 341,24.1841959 341,25 C341,25.8158041 341.69256,26.4771441 342.546875,26.4771441 L357.453125,26.4771441 Z M353,18.9542881 C353.828427,18.9542881 354.5,18.2929482 354.5,17.4771441 C354.5,16.6613399 353.828427,16 353,16 L342.5,16 C341.671573,16 341,16.6613399 341,17.4771441 C341,18.2929482 341.671573,18.9542881 342.5,18.9542881 L353,18.9542881 Z" id="icon-menu" transform="translate(350.000000, 25.000000) scale(-1, 1) translate(-350.000000, -25.000000) "></path>
            </g>
        </g>
    </g>
</svg>