<?xml version="1.0" encoding="UTF-8"?>
<svg width="18px" height="18px" viewBox="0 0 18 18" version="1.1" xmlns="http://www.w3.org/2000/svg" xmlns:xlink="http://www.w3.org/1999/xlink">
    <!-- Generator: Sketch 43.2 (39069) - http://www.bohemiancoding.com/sketch -->
    <title>icon-search</title>
    <desc>Created with Sketch.</desc>
    <defs></defs>
    <g id="Symbols" stroke="none" stroke-width="1" fill="none" fill-rule="evenodd">
        <g id="SearchBar" transform="translate(-515.000000, -16.000000)" fill="#FFFFFF">
            <g id="SearchBar-Copy">
                <g id="Submit" transform="translate(496.000000, 1.000000)">
                    <path d="M36.538,32.567 C35.965,33.142 35.036,33.142 34.463,32.567 L31.513,29.604 C30.228,30.484 28.675,31 27,31 C22.582,31 19,27.419 19,23 C19,18.582 22.582,15 27,15 C31.418,15 35,18.582 35,23 C35,24.681 34.479,26.239 33.594,27.527 L36.538,30.483 C37.111,31.058 37.111,31.992 36.538,32.567 L36.538,32.567 Z M27,18 C24.238,18 22,20.239 22,23 C22,25.762 24.238,28 27,28 C29.761,28 32,25.762 32,23 C32,20.239 29.761,18 27,18 L27,18 Z" id="icon-search"></path>
                </g>
            </g>
        </g>
    </g>
</svg>